<?xml version="1.0" encoding="UTF-8" standalone="no"?>
<!-- Created with Inkscape (http://www.inkscape.org/) -->

<svg
   width="200"
   height="200"
   viewBox="0 0 52.916665 52.916666"
   version="1.1"
   id="svg1"
   xml:space="preserve"
   inkscape:export-filename="globe_black.svg"
   inkscape:export-xdpi="96"
   inkscape:export-ydpi="96"
   xmlns:inkscape="http://www.inkscape.org/namespaces/inkscape"
   xmlns:sodipodi="http://sodipodi.sourceforge.net/DTD/sodipodi-0.dtd"
   xmlns="http://www.w3.org/2000/svg"
   xmlns:svg="http://www.w3.org/2000/svg"><sodipodi:namedview
     id="namedview1"
     pagecolor="#ffffff"
     bordercolor="#000000"
     borderopacity="0.25"
     inkscape:showpageshadow="2"
     inkscape:pageopacity="0.0"
     inkscape:pagecheckerboard="0"
     inkscape:deskcolor="#d1d1d1"
     inkscape:document-units="mm" /><defs
     id="defs1" /><g
     inkscape:label="Layer 1"
     inkscape:groupmode="layer"
     id="layer1"><path
       style="fill:#ffffff;stroke-width:0.340098"
       d="M 24.685982,52.770319 C 12.639182,51.822738 2.9123673,42.919087 0.89439769,30.99217 -0.75674729,21.233313 3.1628323,11.410321 11.077762,5.4712923 c 2.964949,-2.2247729 6.696782,-3.899037 10.281749,-4.61284457 3.386114,-0.67421367 6.872088,-0.67421367 10.258201,0 8.839533,1.76005107 16.2997,8.29577767 19.334732,16.93883227 2.975292,8.472934 1.456755,17.914919 -4.010706,24.937831 -4.297118,5.519615 -10.403509,9.010572 -17.303679,9.892321 -1.323933,0.169182 -3.73379,0.238716 -4.952077,0.142887 z m 6.256849,-3.505376 c 0.675519,-0.136355 0.729458,-0.164578 0.875431,-0.458075 0.08555,-0.172023 0.217879,-0.54419 0.29405,-0.82704 l 0.138494,-0.514272 1.972962,-1.330405 1.972963,-1.330403 0.522497,-1.414463 0.522497,-1.414462 1.349764,-0.618123 1.349763,-0.618123 1.279994,-2.421634 c 0.703996,-1.331898 1.281019,-2.466985 1.282274,-2.522416 0.0013,-0.05543 -0.898685,-0.631708 -1.999867,-1.280617 l -2.002148,-1.179835 -1.014319,-1.162848 -1.014319,-1.162849 -0.560405,-0.06033 c -0.308222,-0.03318 -1.151624,-0.216945 -1.874227,-0.40837 -0.722602,-0.191425 -1.779665,-0.417682 -2.349028,-0.502792 l -1.035206,-0.154747 -0.900145,0.251396 -0.900144,0.251396 -0.371094,-0.402589 c -0.204102,-0.221425 -0.452039,-0.505495 -0.550972,-0.631267 -0.120948,-0.15376 -0.367773,-0.279539 -0.753411,-0.383926 l -0.573533,-0.155248 0.0442,-0.845028 0.0442,-0.845028 h -0.678804 -0.678804 l -0.398595,0.443334 -0.398595,0.443333 -0.210634,-0.892259 c -0.115849,-0.490742 -0.192253,-0.91064 -0.169786,-0.933107 0.06987,-0.06987 1.624218,-0.771001 1.709233,-0.771001 0.04426,0 0.485897,0.182219 0.981431,0.404929 0.708164,0.318275 1.004687,0.404929 1.385627,0.404929 h 0.484656 l 0.157014,-0.652385 c 0.08636,-0.358812 0.197684,-0.731295 0.247389,-0.82774 0.0497,-0.09645 0.678142,-0.878927 1.396523,-1.738848 l 1.306147,-1.563497 1.898053,-0.950083 1.898052,-0.950084 1.034819,0.122057 c 0.56915,0.06713 1.075311,0.123104 1.124802,0.124383 0.0495,0.0013 0.126348,-0.253254 0.170793,-0.56563 l 0.08081,-0.567955 -1.386995,-1.411697 c -1.346697,-1.370681 -1.401239,-1.441111 -1.877228,-2.42402 l -0.490234,-1.012323 h -0.789273 c -0.71902,0 -0.828224,-0.02397 -1.226837,-0.269234 -0.34737,-0.213739 -0.645203,-0.299507 -1.444923,-0.416102 -0.55405,-0.08078 -1.022372,-0.131717 -1.040718,-0.113199 -0.01834,0.01852 -0.122457,0.53983 -0.231359,1.158473 -0.108902,0.618641 -0.210791,1.138815 -0.22642,1.155943 -0.01563,0.01712 -0.541848,-0.0627 -1.169373,-0.177391 -1.287215,-0.235262 -1.233885,-0.190152 -1.337702,-1.131492 l -0.06153,-0.557868 0.341397,-0.08909 c 0.187767,-0.049 0.598906,-0.141045 0.913642,-0.204538 0.664567,-0.134067 0.601129,-0.02631 0.95813,-1.627596 0.140682,-0.631014 0.299322,-1.145334 0.352532,-1.142934 0.05321,0.0025 0.46118,0.158434 0.906602,0.346741 l 0.809859,0.342374 v 0.573416 0.573415 l 0.764864,0.329571 c 0.420677,0.181263 0.969844,0.379228 1.220371,0.439922 0.441611,0.106985 0.471801,0.101321 0.989826,-0.185724 0.293878,-0.162841 0.549503,-0.307516 0.568056,-0.321499 0.07078,-0.05335 -1.112422,-1.345254 -2.113225,-2.30737 l -1.044136,-1.0037723 0.04156,-0.4325164 c 0.02285,-0.2378831 0.05754,-0.4474989 0.07707,-0.465811 0.01953,-0.018314 0.492998,0.055365 1.052145,0.1637393 l 1.016628,0.1970367 0.927255,0.8213592 0.927255,0.8213585 0.359304,0.974037 c 0.197617,0.535719 0.411245,1.166116 0.474727,1.400883 0.105281,0.389342 0.244993,0.543454 1.59003,1.75391 1.374456,1.236932 1.952941,1.629924 2.238151,1.520478 0.05344,-0.02051 0.309271,-0.383154 0.568506,-0.805879 l 0.471337,-0.768591 0.469165,-0.05319 c 0.258041,-0.02925 1.117052,-0.110819 1.908913,-0.181246 0.791861,-0.07043 1.594677,-0.182457 1.784035,-0.248957 L 45.668928,13.75293 44.832292,12.631764 C 42.875258,10.009153 39.979701,7.5072908 37.299101,6.1228154 36.480775,5.7001668 36.464466,5.6960321 35.932949,5.7764793 35.522426,5.8386173 35.127434,5.8168921 34.265323,5.6848009 L 33.135636,5.5117002 32.399165,5.9870073 c -0.40506,0.2614181 -1.04017,0.7875898 -1.411354,1.1692701 l -0.674881,0.693963 -2.069638,0.1834777 c -1.853698,0.1643339 -2.140051,0.170357 -2.744518,0.057724 -0.371185,-0.069167 -0.735678,-0.1278847 -0.809986,-0.1304878 -0.0756,-0.00265 -0.383856,0.387091 -0.699888,0.884894 l -0.564783,0.8896284 -0.55989,0.052376 c -0.307941,0.028803 -1.067197,0.07825 -1.687236,0.1098705 -1.089724,0.055581 -1.163027,0.04751 -2.196764,-0.24183 l -1.069423,-0.2993285 -0.961326,0.5104322 -0.961327,0.5104311 -2.016002,0.280293 c -1.563823,0.217426 -2.362876,0.379829 -3.56252,0.72406 -0.8505882,0.24407 -1.5740482,0.443764 -1.6076909,0.443764 -0.03364,0 0.088415,-0.165572 0.2712417,-0.367938 0.352311,-0.389966 0.3708158,-0.489506 0.069973,-0.376364 -0.4176066,0.157053 -3.0551603,3.769586 -2.880064,3.944683 0.026532,0.02651 0.3811033,-0.03679 0.787983,-0.140678 0.4068757,-0.103885 0.7764764,-0.176649 0.8213326,-0.161697 0.044856,0.01495 -0.2246691,0.267051 -0.5989462,0.56022 -0.3742741,0.293169 -0.6987582,0.56258 -0.7210752,0.59869 -0.022315,0.03611 0.2501043,0.251631 0.6053841,0.478935 l 0.6459611,0.413281 h 1.3557795 c 1.1642973,0 1.6193783,-0.04679 3.2221413,-0.331311 1.026496,-0.182221 1.880543,-0.313824 1.897883,-0.292449 0.01734,0.02137 0.564611,0.91357 1.216156,1.982655 l 1.184629,1.943791 0.0022,1.835546 0.0022,1.835545 1.625815,2.204614 c 1.523644,2.06607 1.645085,2.206368 1.932479,2.23254 l 0.306667,0.02793 0.0062,-0.747802 0.0062,-0.747802 0.612206,1.270812 0.612205,1.270811 1.068783,0.245122 c 0.587829,0.134817 1.47345,0.339006 1.968045,0.453752 l 0.899265,0.208629 0.810435,0.858049 c 0.809988,0.857575 0.810848,0.858164 1.552806,1.063919 0.408304,0.113228 0.742369,0.231182 0.742369,0.262118 0,0.03094 -0.323942,0.732922 -0.719873,1.559967 -0.395931,0.827044 -0.719873,1.545519 -0.719873,1.596612 0,0.05109 0.370535,0.781772 0.823413,1.623734 0.771547,1.434412 0.856536,1.647148 1.349252,3.377315 l 0.52584,1.846476 -0.534844,2.140534 -0.534844,2.140534 0.0906,1.153858 c 0.04983,0.634623 0.148618,1.286004 0.219529,1.447512 0.145562,0.331544 0.110908,0.330959 1.615429,0.02727 z M 21.937176,7.7628323 C 22.733015,7.5574908 23.420439,7.357212 23.464785,7.3177674 23.51028,7.2773055 23.382721,6.9721952 23.172049,6.6175848 L 22.798683,5.9891179 22.134062,6.2125778 21.46944,6.4360368 20.919562,6.2126014 c -0.302431,-0.1228889 -0.549876,-0.1882031 -0.549876,-0.145143 0,0.043057 -0.322216,0.3135507 -0.716035,0.6010902 -0.393818,0.2875384 -0.717761,0.5495326 -0.719874,0.5822099 -0.0043,0.067132 1.345793,0.8743381 1.473667,0.8810671 0.04551,0.00236 0.733892,-0.1636518 1.529732,-0.3689933 z m 6.338347,-0.5797552 0.752093,-0.061656 0.957607,-0.7198868 C 31.432896,5.313236 31.380146,5.4635194 30.493002,4.9549039 l -0.760517,-0.436017 -0.879567,0.4729419 c -1.180179,0.6345804 -2.814227,1.6175319 -2.814227,1.692881 0,0.033433 0.212587,0.1929797 0.472418,0.3545523 0.349204,0.2171508 0.542823,0.2822547 0.742368,0.2496216 0.148475,-0.024281 0.608396,-0.07189 1.022046,-0.1058047 z"
       id="path2" /></g></svg>
