<?xml version="1.0" encoding="UTF-8" standalone="no"?>
<!-- Created with Inkscape (http://www.inkscape.org/) -->

<svg
   width="50"
   height="50"
   viewBox="0 0 13.229166 13.229166"
   version="1.1"
   id="svg1"
   xml:space="preserve"
   inkscape:export-filename="send-red.svg"
   inkscape:export-xdpi="96"
   inkscape:export-ydpi="96"
   xmlns:inkscape="http://www.inkscape.org/namespaces/inkscape"
   xmlns:sodipodi="http://sodipodi.sourceforge.net/DTD/sodipodi-0.dtd"
   xmlns="http://www.w3.org/2000/svg"
   xmlns:svg="http://www.w3.org/2000/svg"><sodipodi:namedview
     id="namedview1"
     pagecolor="#ffffff"
     bordercolor="#000000"
     borderopacity="0.25"
     inkscape:showpageshadow="2"
     inkscape:pageopacity="0.0"
     inkscape:pagecheckerboard="0"
     inkscape:deskcolor="#d1d1d1"
     inkscape:document-units="mm" /><defs
     id="defs1" /><g
     inkscape:label="Layer 1"
     inkscape:groupmode="layer"
     id="layer1"><path
       style="fill:#800000;stroke-width:0.100822"
       d="M 5.9599654,13.075453 C 5.1897102,13.012402 4.2802574,12.714803 3.6258306,12.311658 2.7305882,11.760165 1.9928327,10.943136 1.5478168,10.010357 0.27820242,7.3491785 1.3853837,4.1651937 4.0393056,2.8454379 l 0.3467856,-0.1724514 0.00718,1.0877984 0.00718,1.087798 -0.1405601,0.1176064 c -0.7759782,0.6492534 -1.2047824,1.4381212 -1.338965,2.4632812 -0.027612,0.210916 -0.027612,0.309262 0,0.520178 0.1193075,0.911514 0.4407409,1.581183 1.0526667,2.1931085 0.6119253,0.611925 1.2815939,0.933359 2.1931072,1.052667 0.2109164,0.02761 0.3092625,0.02761 0.5201789,0 0.911511,-0.119308 1.5811793,-0.440742 2.193104,-1.052667 C 9.4919098,9.5308315 9.8133421,8.8611625 9.9326502,7.9496485 10.017772,7.2993115 9.7517498,6.3611795 9.303678,5.7315635 9.1069176,5.4550843 8.78355,5.1156546 8.5275082,4.9168404 L 8.3474475,4.777023 V 3.7106271 2.6442309 l 0.060018,0.01773 c 0.1195683,0.035323 0.6248572,0.2851105 0.8202826,0.4054974 0.7225021,0.4450815 1.3760539,1.0986326 1.8211349,1.8211354 0.563529,0.9147778 0.851385,2.1085928 0.767643,3.1836168 -0.103381,1.327139 -0.641083,2.4996475 -1.574261,3.4328255 -0.9230912,0.923091 -2.1013943,1.468055 -3.3992095,1.57213 -0.3804712,0.03051 -0.4920467,0.0303 -0.8830975,-0.0017 z M 5.9971104,8.7483765 C 5.9148378,8.7138575 5.8116478,8.6600635 5.767798,8.6288405 5.5537105,8.4763965 5.3818482,8.2013265 5.338056,7.9410285 5.3258978,7.8687435 5.3179493,6.3448745 5.3204087,4.5546524 5.3251722,1.0856447 5.3195224,1.2353781 5.4555145,0.96393825 c 0.1880702,-0.3754133 0.6680053,-0.6127766 1.0829658,-0.5356067 0.4168848,0.077528 0.7126044,0.3440129 0.8491073,0.76516555 0.027246,0.084052 0.035356,0.7852142 0.038884,3.3611553 0.00244,1.7902221 -0.00548,3.3140911 -0.017647,3.3863761 -0.054587,0.324447 -0.2774757,0.620847 -0.5783703,0.769114 -0.1550609,0.07641 -0.205029,0.08731 -0.4296141,0.09373 -0.2170465,0.0062 -0.2759802,-0.0019 -0.4037308,-0.0555 z"
       id="path3" /></g></svg>
