<?xml version="1.0" encoding="UTF-8" standalone="no"?>
<!-- Created with Inkscape (http://www.inkscape.org/) -->

<svg
   width="200"
   height="200"
   viewBox="0 0 52.916665 52.916666"
   version="1.1"
   id="svg1"
   xml:space="preserve"
   inkscape:export-filename="network-black.svg"
   inkscape:export-xdpi="96"
   inkscape:export-ydpi="96"
   xmlns:inkscape="http://www.inkscape.org/namespaces/inkscape"
   xmlns:sodipodi="http://sodipodi.sourceforge.net/DTD/sodipodi-0.dtd"
   xmlns="http://www.w3.org/2000/svg"
   xmlns:svg="http://www.w3.org/2000/svg"><sodipodi:namedview
     id="namedview1"
     pagecolor="#ffffff"
     bordercolor="#000000"
     borderopacity="0.25"
     inkscape:showpageshadow="2"
     inkscape:pageopacity="0.0"
     inkscape:pagecheckerboard="0"
     inkscape:deskcolor="#d1d1d1"
     inkscape:document-units="mm" /><defs
     id="defs1" /><g
     inkscape:label="Layer 1"
     inkscape:groupmode="layer"
     id="layer1"><path
       style="fill:#ffffff;stroke-width:0.385523"
       d="m 40.524917,52.485504 c -1.277839,-0.141799 -2.476673,-0.755899 -3.300909,-1.690884 -1.625623,-1.844049 -1.74586,-4.69417 -0.278694,-6.606094 0.373313,-0.486484 0.376101,-0.496992 0.202677,-0.765024 -0.175024,-0.270502 -6.574269,-9.730324 -6.621677,-9.788631 -0.01369,-0.01681 -0.294165,0.0597 -0.623298,0.170057 -1.528579,0.512542 -3.265976,0.49576 -4.882443,-0.04715 -0.430012,-0.144428 -0.796822,-0.247228 -0.815138,-0.228449 -0.117751,0.12073 -5.595488,7.913503 -5.635293,8.016915 -0.02721,0.0707 0.06385,0.277252 0.202368,0.459011 0.764747,1.003481 1.139194,2.204748 1.136364,3.645563 -0.0049,2.49278 -1.23505,4.474109 -3.456649,5.567425 -3.584842,1.76421 -7.8567262,-0.279361 -8.7809902,-4.20063 -0.232093,-0.984672 -0.14971,-2.505757 0.185182,-3.41905 0.37331,-1.018073 0.749514,-1.596296 1.562108,-2.400956 1.8354562,-1.817535 4.7297302,-2.298876 7.0003882,-1.164213 l 0.578827,0.289242 2.761829,-3.905181 c 1.519007,-2.147848 2.761832,-3.936643 2.761832,-3.975095 0,-0.03848 -0.276397,-0.375703 -0.614219,-0.749441 -0.681404,-0.753855 -1.391541,-2.046602 -1.690052,-3.076592 -0.147508,-0.508979 -0.192129,-0.994796 -0.192056,-2.091061 8.9e-5,-1.340208 0.0199,-1.484503 0.321932,-2.346065 0.245913,-0.701474 0.293703,-0.94647 0.202584,-1.038599 -0.06559,-0.06631 -2.131814,-1.682086 -4.591612,-3.59061 l -4.472364,-3.47004 -0.372904,0.246777 C 9.7463538,17.230938 7.5095508,17.209688 6.1583885,16.279659 4.73308,15.298595 3.9659544,13.754537 4.0895259,12.115482 4.2444565,10.060514 5.5725062,8.4873691 7.5976888,7.9598729 c 2.358949,-0.6144272 4.8817882,0.9073516 5.4972522,3.3159481 0.212027,0.82975 0.150088,2.078659 -0.139112,2.805081 l -0.203044,0.510012 3.879268,3.009087 c 2.133595,1.654999 4.171126,3.233866 4.527846,3.508602 l 0.648586,0.499514 0.585963,-0.553226 c 0.70639,-0.666924 1.410964,-1.125144 2.261377,-1.4707 1.974468,-0.802296 4.405772,-0.713487 6.268684,0.228981 0.413069,0.208977 0.51997,0.228715 0.627555,0.115889 0.09734,-0.102086 5.25509,-7.364749 6.595885,-9.287714 l 0.193462,-0.277464 -0.40486,-0.5121918 C 37.096955,8.789526 36.702932,7.6484316 36.701019,6.2736058 36.698719,4.599842 37.232628,3.280149 38.374401,2.1376233 c 3.528352,-3.5306784 9.509602,-1.3066543 9.908147,3.6841741 0.222956,2.7919344 -1.68115,5.3959216 -4.442535,6.0754596 -0.893472,0.219872 -2.264091,0.161071 -3.143376,-0.134851 l -0.746311,-0.251169 -0.234869,0.315805 c -0.697074,0.937283 -6.687754,9.450412 -6.687754,9.503718 0,0.03466 0.179319,0.266763 0.398488,0.515753 0.827571,0.94017 1.641572,2.955149 1.641572,4.06355 0,0.23276 0.05738,0.494453 0.127504,0.581543 0.0847,0.105174 0.949446,0.319186 2.575571,0.637403 1.346438,0.263482 2.519735,0.499704 2.607322,0.524936 0.105537,0.03042 0.218206,-0.07775 0.334052,-0.320697 0.234471,-0.491692 1.134729,-1.430167 1.676481,-1.747656 1.370229,-0.803006 3.111649,-0.844022 4.55786,-0.107349 0.642066,0.32705 1.522836,1.237983 1.877143,1.941424 0.730943,1.451204 0.682995,3.049914 -0.132987,4.433992 -1.531397,2.597571 -5.058986,3.017632 -7.19193,0.856413 -0.684592,-0.693669 -1.082086,-1.456287 -1.254287,-2.406431 l -0.128484,-0.708919 -2.618533,-0.523548 -2.61853,-0.523551 -0.22437,0.620864 c -0.353602,0.978462 -0.97949,1.963241 -1.739499,2.736936 -0.385288,0.392228 -0.675528,0.753587 -0.64498,0.803015 0.03058,0.04943 1.525106,2.25874 3.321238,4.909577 2.68689,3.965481 3.305022,4.817784 3.487617,4.808874 0.122065,-0.0059 0.49551,-0.08628 0.829881,-0.178504 3.191625,-0.880277 6.448842,1.704392 6.408745,5.085475 -0.03797,3.200873 -2.626526,5.502985 -5.79266,5.151644 z"
       id="path1" /></g></svg>
