<?xml version="1.0" encoding="UTF-8" standalone="no"?>
<!-- Created with Inkscape (http://www.inkscape.org/) -->

<svg
   width="200"
   height="200"
   viewBox="0 0 52.916666 52.916666"
   version="1.1"
   id="svg1"
   xml:space="preserve"
   xmlns:inkscape="http://www.inkscape.org/namespaces/inkscape"
   xmlns:sodipodi="http://sodipodi.sourceforge.net/DTD/sodipodi-0.dtd"
   xmlns="http://www.w3.org/2000/svg"
   xmlns:svg="http://www.w3.org/2000/svg"><sodipodi:namedview
     id="namedview1"
     pagecolor="#ffffff"
     bordercolor="#000000"
     borderopacity="0.25"
     inkscape:showpageshadow="2"
     inkscape:pageopacity="0.0"
     inkscape:pagecheckerboard="0"
     inkscape:deskcolor="#d1d1d1"
     inkscape:document-units="mm" /><defs
     id="defs1" /><g
     inkscape:label="Layer 1"
     inkscape:groupmode="layer"
     id="layer1"><path
       style="fill:#000000;stroke-width:1.46081"
       d="M 6.2617485,52.066587 C 4.1421175,51.313893 2.3085464,48.703586 1.3727539,45.106585 0.30198992,40.990803 0.27849545,26.61828 1.3372385,23.339524 2.9740512,18.27018 6.7868407,14.293524 11.347723,12.898813 12.781421,12.460385 15.10373,12.12188 17.503995,12.001474 l 3.854162,-0.193343 0.130463,16.911493 c 0.123364,15.993253 0.178113,16.967483 1.008319,17.942637 l 0.877855,1.031144 -2.219445,2.309047 c -1.240215,1.290294 -2.55301,2.309047 -2.975459,2.309047 -0.877283,0 -2.352043,-1.067231 -3.29664,-2.385618 L 14.224695,49.006694 12.954851,50.30923 C 11.848205,51.444398 9.4375655,52.638401 8.2554807,52.636863 8.04145,52.636579 7.1443125,52.379966 6.2618505,52.066587 Z M 13.028525,33.003574 c 0.07155,-8.147861 -0.04991,-13.605172 -0.303055,-13.605172 -0.794322,0 -2.7713725,1.982859 -3.3452023,3.355008 -0.3980707,0.9519 -0.5748672,4.155403 -0.579163,10.494559 -0.00694,11.156223 0.5921433,13.71783 3.1508353,13.457953 0.950656,-0.09656 0.957744,-0.186668 1.076585,-13.702348 z M 27.349268,26.404652 V 0.49781748 l 3.323579,0.00246 c 9.710183,0.00493 15.578071,2.18892522 18.723413,6.96687482 3.615147,5.4916247 2.521944,12.9179767 -2.549232,17.3172207 l -1.564873,1.357529 2.23107,1.562118 c 3.428766,2.400693 4.706406,4.739708 4.962697,9.085388 0.328887,5.576324 -1.084434,8.876647 -4.996031,11.666602 -3.914457,2.791987 -8.354196,3.856064 -16.088991,3.856064 h -4.041632 z m 11.903966,17.55611 c 2.386244,-1.427313 3.396211,-3.195805 3.419497,-5.987644 0.02772,-3.328934 -1.979266,-6.419422 -4.894309,-7.536449 -0.753104,-0.288586 -0.802241,0.142416 -0.802241,7.036181 0,4.271633 0.177058,7.343584 0.423262,7.343584 0.23278,0 1.066989,-0.385048 1.853791,-0.855672 z m 0.790685,-23.230893 c 2.087384,-2.172494 2.480638,-6.880918 0.811874,-9.72068 -0.718885,-1.2233666 -2.803495,-3.0163061 -3.506959,-3.0163061 -0.204951,0 -0.372653,3.3173321 -0.372653,7.3718631 v 7.371876 l 1.031451,-0.480476 c 0.567315,-0.264261 1.483632,-0.951087 2.036287,-1.526277 z"
       id="path1" /></g></svg>
