<?xml version="1.0" encoding="UTF-8" standalone="no"?>
<!-- Created with Inkscape (http://www.inkscape.org/) -->

<svg
   width="200"
   height="200"
   viewBox="0 0 52.916665 52.916666"
   version="1.1"
   id="svg1"
   xml:space="preserve"
   xmlns:inkscape="http://www.inkscape.org/namespaces/inkscape"
   xmlns:sodipodi="http://sodipodi.sourceforge.net/DTD/sodipodi-0.dtd"
   xmlns="http://www.w3.org/2000/svg"
   xmlns:svg="http://www.w3.org/2000/svg"><sodipodi:namedview
     id="namedview1"
     pagecolor="#ffffff"
     bordercolor="#000000"
     borderopacity="0.25"
     inkscape:showpageshadow="2"
     inkscape:pageopacity="0.0"
     inkscape:pagecheckerboard="0"
     inkscape:deskcolor="#d1d1d1"
     inkscape:document-units="mm" /><defs
     id="defs1" /><g
     inkscape:label="Layer 1"
     inkscape:groupmode="layer"
     id="layer1"><path
       style="fill:#ff7f2a;stroke-width:0.105973"
       d="M 11.442971,46.801055 C 10.220315,45.589199 9.0136426,43.942697 8.0887521,42.224233 7.8091413,41.704711 7.7191694,41.527428 7.5223959,41.108253 6.1632232,38.212921 5.4933456,35.113161 5.5519126,31.990152 5.579257,30.53172 5.7008078,29.538351 6.0236478,28.134846 c 0.7553636,-3.283859 2.3050915,-6.375197 4.4698432,-8.916267 0.75259,-0.883414 1.991947,-1.877488 2.602762,-2.087642 0.182282,-0.06271 0.414797,-0.179623 0.578376,-0.290807 l 0.12617,-0.08576 -0.155135,0.168668 c -0.08532,0.09277 -0.203921,0.262388 -0.263553,0.37693 -0.194512,0.373618 -0.368429,0.600609 -1.726266,2.253089 -1.457448,1.773712 -2.1121362,2.740574 -2.8871568,4.26385 -1.0083652,1.981899 -1.6489849,4.027852 -1.9753492,6.30868 -0.1181588,0.825743 -0.1282601,0.906326 -0.1704717,1.35987 -0.2520866,2.708561 0.022507,5.400856 0.8144049,7.984731 0.6598024,2.152887 1.6962305,4.183998 3.0646718,6.005907 0.388098,0.516701 0.998583,1.269708 1.244483,1.535021 0.137501,0.14835 0.192375,0.232022 0.152165,0.232022 -0.0052,0 -0.210314,-0.198938 -0.455626,-0.442084 z m 29.821621,0.418077 c 0,-0.01841 0.0728,-0.112022 0.161765,-0.208016 0.2459,-0.265313 0.856385,-1.018321 1.244483,-1.535021 2.196775,-2.924724 3.502657,-6.316925 3.878289,-10.074369 0.08172,-0.817366 0.1112,-1.888812 0.0748,-2.71762 -0.03276,-0.746109 -0.08522,-1.420478 -0.143366,-1.843538 C 46.266417,29.2825 46.137513,28.61027 45.849537,27.54982 45.16557,25.031168 43.908062,22.543795 42.28973,20.508447 c -0.201433,-0.253335 -0.549191,-0.683263 -0.772799,-0.955391 -1.357835,-1.652479 -1.531755,-1.87947 -1.726262,-2.253089 -0.05963,-0.114548 -0.178232,-0.284161 -0.263555,-0.376929 l -0.155135,-0.168669 0.126169,0.08576 c 0.163579,0.111189 0.396093,0.228094 0.578374,0.290806 0.610816,0.210154 1.850173,1.204229 2.602762,2.087642 2.164753,2.54107 3.714481,5.632409 4.469844,8.916268 0.322835,1.403506 0.444386,2.396874 0.471737,3.855304 0.05858,3.12301 -0.611315,6.222772 -1.970484,9.118103 -0.235259,0.501152 -0.477601,0.9677 -0.786577,1.514281 -0.938645,1.66048 -2.202381,3.314121 -3.381928,4.425366 -0.119504,0.112596 -0.217298,0.189648 -0.217298,0.171232 z M 19.251778,45.909727 c -0.06522,-0.02779 -0.124458,-0.08442 -0.168232,-0.160854 -0.06358,-0.111009 -0.06751,-0.143561 -0.06644,-0.552551 7.31e-4,-0.291161 0.01642,-0.50863 0.0475,-0.658906 0.02551,-0.123366 0.06057,-0.331557 0.07793,-0.462638 0.03442,-0.259938 0.118825,-0.666064 0.265162,-1.275756 0.118396,-0.493263 0.161517,-0.80842 0.164668,-1.203398 0.0022,-0.263696 -0.0073,-0.334008 -0.06165,-0.464894 -0.10734,-0.258049 -0.270935,-0.392543 -0.477466,-0.392543 -0.160381,0 -0.246735,0.04084 -0.386894,0.183022 -0.068,0.06898 -0.13426,0.125397 -0.14726,0.125397 -0.01302,0 -0.05341,-0.02413 -0.08983,-0.05362 l -0.06618,-0.05361 0.04642,-0.163683 c 0.02553,-0.09002 0.08101,-0.270934 0.123261,-0.40201 0.13776,-0.427263 0.103392,-0.959967 -0.07839,-1.215257 -0.07014,-0.0985 -0.341837,-0.231453 -0.524275,-0.256547 -0.179296,-0.02467 -0.336946,0.02188 -0.480587,0.141896 -0.124867,0.104331 -0.209382,0.115561 -0.260133,0.03459 -0.04797,-0.07652 0.01812,-0.377185 0.144653,-0.658201 0.146016,-0.324276 0.182991,-0.520941 0.16866,-0.897036 -0.01606,-0.421318 -0.112499,-0.596228 -0.376893,-0.683483 -0.158055,-0.05216 -0.283713,-0.0141 -0.331619,0.100605 -0.03369,0.08062 -0.05487,0.09684 -0.126609,0.09684 -0.129685,0 -0.159747,-0.08948 -0.09959,-0.296376 0.054,-0.185734 0.206985,-0.501432 0.329574,-0.680081 0.111916,-0.163089 0.254601,-0.476866 0.360245,-0.792193 0.07437,-0.221964 0.08685,-0.299942 0.08633,-0.538889 -3.19e-4,-0.153654 -0.01211,-0.290873 -0.02617,-0.30493 -0.01539,-0.01539 -0.08561,0.01958 -0.176416,0.0878 -0.08297,0.06233 -0.172375,0.113357 -0.198675,0.113357 -0.05835,0 -0.135943,-0.07337 -0.135943,-0.128519 0,-0.02222 0.09279,-0.131729 0.206199,-0.243333 0.178265,-0.175442 0.624932,-0.800438 0.773946,-1.082937 0.03302,-0.06262 0.03106,-0.06593 -0.03082,-0.05193 -0.449464,0.101764 -0.535744,0.09655 -1.130692,-0.06842 -0.548672,-0.152138 -0.780307,-0.28781 -1.234577,-0.723133 -0.159399,-0.15275 -0.337629,-0.295563 -0.413044,-0.330964 -0.104992,-0.04928 -0.147122,-0.09082 -0.202014,-0.199139 -0.103339,-0.203925 -0.383858,-0.549531 -0.651478,-0.802634 l -0.237172,-0.224307 -0.07882,-0.271985 c -0.04335,-0.149581 -0.110652,-0.326224 -0.149576,-0.392529 -0.137093,-0.233568 -0.47975,-0.647735 -0.63677,-0.769669 -0.156076,-0.1212 -0.160166,-0.128048 -0.235179,-0.393613 -0.10547,-0.373414 -0.183737,-0.525496 -0.394929,-0.767473 -0.158108,-0.181154 -0.193706,-0.243603 -0.270751,-0.474944 -0.04878,-0.1465 -0.119958,-0.328775 -0.158146,-0.40505 -0.08923,-0.178203 -0.35137,-0.453205 -0.46901,-0.492028 -0.08234,-0.02718 -0.09437,-0.04565 -0.12314,-0.188884 -0.05467,-0.272279 -0.134138,-0.394343 -0.480213,-0.73771 l -0.326159,-0.323605 -0.07493,-0.240337 c -0.08,-0.256592 -0.167384,-0.365324 -0.436928,-0.543699 C 9.8963345,24.678685 9.8505616,24.591687 9.7939855,24.315207 9.7711806,24.203744 9.6991797,24.001865 9.633981,23.86659 9.5329438,23.656935 9.5152623,23.593743 9.5142186,23.438386 c -0.00131,-0.197379 0.059753,-0.353209 0.1832252,-0.467447 0.1007036,-0.09317 0.4422232,-0.27828 0.9069722,-0.491612 0.341396,-0.156711 0.528796,-0.221265 0.995369,-0.342877 0.666938,-0.173834 0.784457,-0.198352 1.163601,-0.242741 0.381973,-0.04472 1.189384,-0.04539 1.415948,-0.0014 0.542066,0.105792 1.099468,0.24172 1.247718,0.304244 0.09252,0.03902 0.262861,0.09872 0.37852,0.132638 0.115656,0.03393 0.349081,0.119201 0.518715,0.189485 0.169631,0.07029 0.434597,0.17533 0.58881,0.233429 0.542224,0.204274 1.689548,0.723492 2.369259,1.072197 0.625679,0.320981 1.772804,1.000122 2.298922,1.361043 0.622888,0.427307 2.105382,1.638712 2.902098,2.371419 0.365348,0.335995 0.896301,0.902683 1.035118,1.104783 0.09705,0.14129 0.106017,0.167827 0.0777,0.22996 -0.01762,0.03863 -0.0449,0.07024 -0.06064,0.07024 -0.01573,0 -0.02865,0.04817 -0.02865,0.107066 0,0.175904 -0.07695,0.381727 -0.210573,0.563243 -0.142017,0.192912 -0.155329,0.273613 -0.05993,0.363232 0.03627,0.03409 0.0815,0.113834 0.100491,0.177227 l 0.03453,0.115265 0.07085,-0.123278 c 0.03896,-0.06779 0.137699,-0.236826 0.219413,-0.375618 0.27822,-0.472539 0.407451,-0.7415 0.389894,-0.811455 -0.01198,-0.04777 6.37e-4,-0.07728 0.04622,-0.109307 0.0583,-0.04083 0.07131,-0.03879 0.187583,0.02935 0.08667,0.0508 0.160511,0.07187 0.241023,0.06879 0.09907,-0.0039 0.133078,-0.02292 0.232197,-0.130655 0.127125,-0.138184 0.173828,-0.152518 0.244034,-0.07495 0.06074,0.06711 0.05858,0.131337 -0.01363,0.406689 -0.07856,0.299245 -0.08482,0.825898 -0.01257,1.056117 0.08541,0.272123 0.08538,0.295792 -3.17e-4,0.415229 -0.0454,0.06315 -0.133897,0.136002 -0.207922,0.171143 -0.154857,0.07353 -0.272529,0.05614 -0.490007,-0.07241 -0.152879,-0.09037 -0.18627,-0.172592 -0.127609,-0.314218 0.01702,-0.04105 0.04229,-0.263645 0.05618,-0.494671 0.02781,-0.462765 0.0093,-0.54622 -0.122048,-0.54622 -0.08625,0 -0.104494,0.0255 -0.220657,0.308424 -0.279727,0.681312 -0.329084,0.957564 -0.217565,1.217729 0.06719,0.156757 0.05368,0.201818 -0.122276,0.407975 -0.115931,0.135806 -0.124595,0.155454 -0.08693,0.197061 0.02301,0.02544 0.04183,0.07096 0.04183,0.101201 0,0.03024 0.01991,0.130184 0.04421,0.222101 0.02432,0.09191 0.05487,0.230201 0.0679,0.307305 0.04533,0.26805 -0.06945,1.126958 -0.251018,1.878586 -0.113167,0.46849 -0.229987,1.12038 -0.286384,1.598197 -0.0577,0.488945 -0.03291,1.726777 0.04772,2.381135 l 0.0141,0.11431 -0.05856,-0.12617 c -0.06161,-0.132776 -0.151576,-0.517427 -0.252446,-1.079484 -0.07547,-0.420516 -0.300528,-1.144506 -0.446347,-1.43584 -0.139093,-0.277895 -0.373808,-0.541729 -0.488802,-0.549435 -0.07285,-0.0049 -0.0864,0.008 -0.127262,0.120716 -0.02515,0.06939 -0.06557,0.164027 -0.08982,0.210291 -0.06381,0.121776 -0.127411,0.422627 -0.180795,0.855176 -0.04936,0.400003 -0.04182,1.278217 0.01628,1.892602 0.01455,0.154213 0.02695,0.459439 0.0275,0.678281 6.35e-4,0.218841 0.01132,0.404318 0.0241,0.412168 0.01273,0.0078 0.104174,-0.01132 0.203279,-0.0428 0.147516,-0.04671 0.233561,-0.05498 0.474591,-0.04549 0.359692,0.0141 0.479845,0.06145 0.71942,0.283256 0.188157,0.1742 0.233892,0.192194 0.233892,0.09202 0,-0.08862 -0.05173,-0.230785 -0.266585,-0.732529 -0.16069,-0.375273 -0.223037,-0.564053 -0.27779,-0.841157 -0.0091,-0.04626 0.07499,0.09252 0.186979,0.308426 0.111975,0.215897 0.236886,0.443824 0.277573,0.506513 0.161382,0.248648 0.358415,0.681786 0.414684,0.911611 0.04507,0.184032 0.06038,0.345342 0.0653,0.686944 l 0.0064,0.446441 -0.08976,0.189502 c -0.109592,0.231378 -0.330579,0.471354 -0.521776,0.566629 -0.174861,0.08715 -0.490948,0.09798 -0.7073,0.02426 -0.417611,-0.14229 -0.625586,-0.698247 -0.419091,-1.120308 0.159158,-0.325303 0.374109,-0.484166 0.664159,-0.490852 0.255856,-0.0059 0.4334,0.13123 0.510448,0.39425 0.126201,0.430842 -0.05187,0.730921 -0.433732,0.730921 -0.126504,0 -0.155757,-0.01168 -0.239443,-0.09533 -0.129321,-0.129321 -0.134549,-0.29034 -0.01333,-0.411519 0.04719,-0.04718 0.111915,-0.08196 0.152556,-0.08196 0.096,0 0.117873,0.04599 0.03209,0.06752 -0.129396,0.03248 -0.117742,0.241202 0.01584,0.283597 0.09079,0.02883 0.213638,-0.03796 0.263646,-0.143365 0.05962,-0.125625 0.03068,-0.28023 -0.0716,-0.382498 -0.14994,-0.14994 -0.495317,-0.08698 -0.633592,0.115526 -0.192249,0.281516 -0.110319,0.675379 0.173964,0.836394 0.134502,0.07619 0.427383,0.08722 0.583516,0.02197 0.262514,-0.109688 0.418947,-0.367802 0.415951,-0.686327 -0.0047,-0.502564 -0.177672,-0.776374 -0.560693,-0.887721 -0.139941,-0.04067 -0.168369,-0.04058 -0.33825,0.0014 -0.208393,0.05121 -0.418702,0.18238 -0.589456,0.367625 -0.156892,0.170209 -0.211411,0.36604 -0.210636,0.756583 6.35e-4,0.281027 0.0096,0.334577 0.102442,0.60283 0.05601,0.161921 0.147667,0.405169 0.203681,0.540549 0.136593,0.330145 0.153576,0.458084 0.09836,0.741283 -0.06333,0.324896 -0.172921,0.447754 -0.555746,0.623099 -0.122518,0.05611 -0.206541,0.01789 -0.346387,-0.157528 -0.230379,-0.289017 -0.647251,-0.521001 -0.878472,-0.488865 -0.07981,0.01108 -0.268402,0.12523 -0.348362,0.210821 -0.08542,0.09144 -0.224435,0.09664 -0.33806,0.01272 -0.183969,-0.136018 -0.688591,0.02432 -0.998228,0.317155 -0.205132,0.194005 -0.523384,0.614796 -0.612486,0.809823 -0.15076,0.329994 -0.188932,0.554385 -0.208315,1.224715 -0.01783,0.616468 -0.01879,0.62404 -0.08811,0.693276 -0.08998,0.08985 -0.21193,0.109914 -0.338989,0.05576 z m 1.024174,-3.225903 c 0.280773,-0.385252 0.537421,-0.581096 0.807781,-0.616407 0.136837,-0.01786 0.336641,0.04325 0.430932,0.131836 0.08465,0.07952 0.09852,0.04391 0.115954,-0.297734 0.01424,-0.277614 0.01156,-0.295326 -0.0611,-0.419353 -0.08969,-0.15305 -0.273659,-0.295361 -0.381817,-0.295361 -0.04233,0 -0.161914,0.02622 -0.265751,0.05832 -0.344044,0.106267 -0.521136,0.341882 -0.778063,1.035192 -0.162596,0.438761 -0.197218,0.675133 -0.09838,0.671664 0.01975,-6.36e-4 0.123458,-0.121367 0.230437,-0.26815 z m 2.875184,-0.136503 c 0.06107,-0.07358 -0.008,-0.231049 -0.203105,-0.46281 -0.284329,-0.337807 -0.624183,-0.473066 -0.83379,-0.331837 -0.18094,0.121913 -0.259316,0.405819 -0.141472,0.512463 0.04598,0.04161 0.06922,0.04457 0.144381,0.01837 0.122897,-0.04284 0.317111,-0.03917 0.425583,0.008 0.04963,0.02159 0.177071,0.109461 0.283217,0.195259 0.20017,0.161786 0.235659,0.168389 0.325189,0.06052 z m -3.15605,-1.491859 c 0.120747,-0.476315 0.08346,-1.000322 -0.09022,-1.26818 -0.146775,-0.226364 -0.537977,-0.331742 -0.750477,-0.202156 -0.132063,0.08052 -0.256858,0.299315 -0.306512,0.537345 -0.024,0.115037 -0.05113,0.233326 -0.06028,0.262861 -0.01243,0.04029 0.01424,0.02841 0.106757,-0.04743 0.2106,-0.172573 0.38756,-0.203998 0.601535,-0.106827 0.22307,0.101294 0.31894,0.311377 0.379378,0.831317 0.01867,0.160595 0.03698,0.288945 0.04071,0.285222 0.0039,-0.0039 0.03933,-0.135183 0.07911,-0.29214 z m -1.077694,-2.202887 c 0.03805,-0.206752 0.02066,-0.404032 -0.04759,-0.539348 -0.087,-0.172528 -0.264268,-0.378803 -0.387664,-0.451117 -0.109091,-0.06393 -0.151091,-0.07282 -0.294753,-0.06244 -0.105553,0.0076 -0.195927,0.03246 -0.244264,0.06706 -0.0695,0.04976 -0.308614,0.485095 -0.356257,0.648608 -0.01804,0.06195 -0.01728,0.06187 0.144712,-0.0141 0.137972,-0.06465 0.199981,-0.07629 0.405779,-0.07629 0.225243,0 0.251774,0.0062 0.364504,0.08521 0.141425,0.0991 0.291289,0.332386 0.319032,0.496586 0.02403,0.142242 0.04937,0.101732 0.0965,-0.154234 z m 4.400359,-1.493032 c 0.01837,-0.200475 0.05163,-0.553761 0.07387,-0.78508 0.05859,-0.608891 0.103767,-1.194887 0.09835,-1.275755 -0.0026,-0.03855 -0.0055,-0.126701 -0.0066,-0.19588 l -0.0016,-0.125776 -0.09614,0.111761 c -0.05288,0.06147 -0.113357,0.143305 -0.134381,0.181862 -0.06107,0.111963 -0.466973,0.491096 -0.596063,0.556755 -0.22527,0.114584 -0.337348,0.432965 -0.415964,1.181634 -0.04284,0.408031 -0.04263,0.453458 0.0033,0.743025 0.04742,0.298479 0.108353,0.452317 0.213822,0.539856 0.02277,0.01888 0.141123,0.0669 0.263033,0.106684 0.266161,0.08689 0.38195,0.154778 0.466769,0.273693 l 0.06358,0.08915 0.01726,-0.518711 c 0.0095,-0.285292 0.0323,-0.682741 0.05067,-0.883217 z m -1.629854,0.79691 c 0.04769,-0.01663 0.131366,-0.08471 0.185937,-0.151319 0.106518,-0.129988 0.141472,-0.275626 0.212103,-0.883924 0.01702,-0.146501 0.05719,-0.446654 0.08927,-0.667005 0.03208,-0.220349 0.05311,-0.405886 0.04668,-0.412304 -0.0064,-0.0064 -0.06166,0.0061 -0.122745,0.02788 -0.0611,0.02174 -0.130004,0.04014 -0.153142,0.04084 -0.04858,0.0016 -0.296595,0.391305 -0.393208,0.618035 -0.0829,0.194531 -0.103423,0.564807 -0.05707,1.029976 0.04651,0.466792 0.03896,0.451203 0.192165,0.3978 z m -0.749099,-0.899015 c 0.170253,-0.051 0.284434,-0.167849 0.480846,-0.492038 0.324995,-0.536421 0.354177,-0.632394 0.203779,-0.67014 -0.03658,-0.0093 -0.148092,-0.07028 -0.247833,-0.135791 -0.142002,-0.09328 -0.200296,-0.116323 -0.268776,-0.106267 -0.127426,0.0187 -0.329237,0.259983 -0.505655,0.604555 -0.134032,0.261796 -0.147152,0.303949 -0.144879,0.465655 0.003,0.20932 0.0501,0.29745 0.179067,0.334698 0.126049,0.03639 0.180113,0.03627 0.303447,-6.34e-4 z m -2.787982,-0.552513 c 0.0607,-0.208757 0.03772,-0.629038 -0.0467,-0.8547 -0.129275,-0.345521 -0.354505,-0.455115 -0.528364,-0.257099 -0.111093,0.126534 -0.289005,0.511278 -0.278346,0.601956 0.0064,0.05468 0.05127,0.0933 0.204505,0.176128 0.231428,0.12508 0.298857,0.197156 0.412351,0.4408 l 0.08454,0.181474 0.05316,-0.06565 c 0.02924,-0.0361 0.07374,-0.136412 0.09886,-0.222911 z m 2.509616,-0.572075 c 0.17585,-0.184675 0.262766,-0.300679 0.301855,-0.402865 l 0.05489,-0.143501 -0.0846,-0.263055 c -0.05443,-0.169235 -0.09023,-0.349844 -0.100386,-0.506401 l -0.01578,-0.243348 -0.07182,0.04705 c -0.03951,0.02588 -0.111547,0.06072 -0.160089,0.0774 l -0.08826,0.03033 0.115037,-0.180773 c 0.06326,-0.09943 0.151728,-0.211718 0.196567,-0.249534 0.152635,-0.128746 0.980417,-1.605917 0.928831,-1.657505 -0.0076,-0.0076 -0.06807,0.0069 -0.134457,0.03237 -0.184166,0.07034 -0.184994,0.05662 -0.0043,-0.07039 0.09117,-0.06407 0.230246,-0.165172 0.309028,-0.224663 0.07878,-0.05949 0.299587,-0.178893 0.490678,-0.265331 0.191088,-0.08644 0.372666,-0.185711 0.403506,-0.220607 0.03084,-0.03488 0.09547,-0.08337 0.143639,-0.107733 0.110985,-0.05614 0.86322,-0.356213 1.104079,-0.44044 0.100241,-0.03506 0.218104,-0.0964 0.261923,-0.13632 0.08591,-0.07828 0.186695,-0.253447 0.186695,-0.324516 0,-0.0593 -0.130231,-0.104992 -0.23619,-0.08287 -0.164619,0.03435 -1.153988,0.32445 -1.577114,0.462437 -0.233966,0.07629 -0.44215,0.138805 -0.462637,0.138895 -0.02047,9.6e-5 -0.07282,0.01873 -0.116312,0.0414 -0.04348,0.02266 -0.207508,0.08719 -0.364499,0.143334 -0.156996,0.05617 -0.365567,0.139305 -0.463497,0.184761 -0.09792,0.04547 -0.183615,0.0771 -0.190412,0.07029 -0.02537,-0.02538 0.282962,-0.333131 0.38678,-0.386095 0.05933,-0.03028 0.107852,-0.06158 0.107852,-0.06959 0,-0.008 -0.02523,-0.06405 -0.05607,-0.124489 -0.03084,-0.06045 -0.05608,-0.159846 -0.05608,-0.220866 0,-0.06103 -0.02444,-0.167959 -0.0543,-0.237637 -0.04491,-0.104742 -0.0722,-0.131638 -0.157703,-0.155243 -0.114786,-0.03169 -0.168231,-0.01049 -0.594038,0.235523 l -0.21736,0.125594 0.139714,-0.119016 c 0.609757,-0.519455 0.772536,-0.791642 0.77688,-1.299044 0.0017,-0.190148 -0.0106,-0.254709 -0.07597,-0.400303 -0.124063,-0.276467 -0.303327,-0.395852 -0.594955,-0.396237 -0.167253,-2.11e-4 -0.605427,0.146425 -0.820954,0.274755 -0.23343,0.138986 -0.703862,0.383385 -0.630377,0.327492 0.610747,-0.464539 1.109537,-0.893158 1.177621,-1.011948 l 0.05607,-0.09784 -0.06585,-0.05447 C 20.250106,28.101241 19.556,27.963468 19.212189,27.9945 c -0.344528,0.03108 -0.599932,0.114953 -1.137693,0.373604 -0.286466,0.137774 -0.575092,0.284748 -0.64139,0.326599 -0.0663,0.04184 -0.270139,0.150667 -0.452975,0.24182 -0.269773,0.134487 -0.335865,0.179391 -0.350637,0.238249 -0.03315,0.132048 0.01156,0.370386 0.110903,0.591964 0.05393,0.120232 0.118885,0.291146 0.144335,0.379808 0.0496,0.172787 0.102212,0.245452 0.177498,0.245193 0.217895,-6.35e-4 0.484219,-0.0881 1.056453,-0.346489 0.136882,-0.06181 0.19699,-0.07993 0.154213,-0.04649 -0.225716,0.176406 -0.454622,0.348949 -0.59582,0.44911 -0.154505,0.109591 -0.16122,0.119503 -0.16122,0.237707 0,0.11002 0.01697,0.142471 0.157049,0.300368 0.08637,0.09737 0.18779,0.244701 0.225361,0.32741 0.05963,0.131291 0.06747,0.185251 0.06165,0.424959 -0.0066,0.268081 0.01836,0.363951 0.09441,0.363951 0.01485,0 0.105136,-0.05789 0.200748,-0.128654 0.206388,-0.152756 1.64191,-0.892297 1.517885,-0.78197 -0.102317,0.09101 -0.637769,0.443485 -0.869198,0.572165 -0.347415,0.193175 -0.569618,0.366155 -0.629657,0.490175 -0.138441,0.285975 -0.0118,0.437425 0.307214,0.367288 0.145304,-0.03196 1.121425,-0.410519 1.44048,-0.558667 0.152284,-0.0707 0.283857,-0.128564 0.292381,-0.128564 0.0195,0 -0.607741,0.409681 -0.786044,0.513399 -0.179228,0.104268 -0.212825,0.170655 -0.137729,0.272218 0.05991,0.08103 0.172268,0.383981 0.172268,0.464485 0,0.03103 0.01612,0.04129 0.04906,0.03123 0.133034,-0.04069 0.609461,-0.221452 0.680492,-0.258183 0.175866,-0.09094 0.113131,-0.03422 -0.0913,0.08257 -0.319532,0.182522 -0.542177,0.345843 -0.577672,0.423746 -0.01723,0.03781 -0.04525,0.06876 -0.06226,0.06876 -0.01702,0 -0.0043,0.04313 0.02835,0.09591 0.117945,0.19084 0.195132,0.485111 0.227492,0.86732 0.01718,0.202726 0.03604,0.373503 0.04197,0.379501 0.0059,0.0061 0.07103,-0.05709 0.144684,-0.140183 0.190465,-0.214886 0.289121,-0.313752 0.301073,-0.301718 0.0057,0.0057 -0.09085,0.212304 -0.214567,0.459042 -0.123701,0.246739 -0.234911,0.481963 -0.247121,0.522717 -0.0245,0.08176 0.04619,0.243448 0.233655,0.534395 0.05667,0.08793 0.103006,0.165744 0.103006,0.172915 0,0.0072 0.02478,0.07086 0.05508,0.141533 0.08235,0.192104 0.133095,0.176504 0.425775,-0.130867 z m 1.689488,-0.481295 c 0.24574,-0.137653 0.601716,-0.480682 0.78086,-0.752477 0.211427,-0.320772 0.454215,-0.788921 0.708842,-1.366807 0.280276,-0.636097 0.33671,-0.787864 0.435666,-1.171648 0.111688,-0.433192 0.108591,-0.557735 -0.01815,-0.729986 -0.01156,-0.01557 -0.563374,0.161768 -0.895089,0.287628 -0.366512,0.139063 -1.070551,0.516674 -1.231601,0.660567 -0.20278,0.181177 -0.436108,0.534146 -0.675007,1.021123 -0.150621,0.307044 -0.255325,0.561749 -0.291573,0.709325 -0.0533,0.217008 -0.05434,0.250084 -0.01806,0.57479 0.04381,0.392104 0.06413,0.458329 0.187669,0.612068 0.112572,0.140077 0.18363,0.186058 0.367023,0.237508 0.221361,0.0621 0.441731,0.03424 0.64943,-0.08211 z m -4.112559,-1.476509 c 0.122684,-0.243989 0.175787,-0.427417 0.175787,-0.607198 0,-0.252359 -0.118874,-0.394898 -0.264382,-0.317024 -0.09403,0.05032 -0.246492,0.303208 -0.261139,0.433163 -0.02096,0.185884 0.151319,0.706417 0.225752,0.682108 0.01837,-0.0061 0.07416,-0.09197 0.123987,-0.191049 z m -1.707968,-1.630902 c 0.01908,-0.165839 -0.487779,-0.790152 -0.710605,-0.87525 -0.12173,-0.04649 -0.131365,-0.04653 -0.181979,-6.35e-4 -0.02939,0.02661 -0.0676,0.09125 -0.08489,0.143653 -0.0278,0.08423 -0.0231,0.109031 0.04049,0.213909 0.09518,0.156945 0.116407,0.180586 0.29726,0.331015 0.247113,0.20554 0.38987,0.280327 0.518715,0.271745 0.09922,-0.0067 0.113166,-0.01635 0.121003,-0.08435 z m -1.337007,-1.116189 c 0.136306,-0.156856 0.05987,-0.590968 -0.136154,-0.773288 -0.14094,-0.131093 -0.398804,-0.242574 -0.56848,-0.245783 -0.149593,-0.0028 -0.154486,-6.35e-4 -0.163371,0.07717 -0.0077,0.06695 0.02003,0.108341 0.16876,0.252347 0.144198,0.139624 0.192978,0.210987 0.257397,0.376624 0.09731,0.250198 0.236849,0.411967 0.331557,0.384373 0.03552,-0.01023 0.08514,-0.0425 0.110296,-0.07144 z m -0.892587,-1.461784 c 0.07255,-0.09754 0.07692,-0.40591 0.0079,-0.569591 -0.05292,-0.125792 -0.21583,-0.306647 -0.330438,-0.366814 -0.145456,-0.07637 -0.386924,-0.02634 -0.386924,0.0802 0,0.015 0.05511,0.104445 0.122488,0.198934 0.06736,0.0945 0.187752,0.301928 0.267525,0.460983 0.15948,0.317991 0.207012,0.347215 0.319271,0.196284 z M 25.226521,28.97783 c 0,-0.114656 -0.01257,-0.241643 -0.02805,-0.282194 -0.03258,-0.08569 -0.77642,-0.839372 -1.206804,-1.22278 -0.452887,-0.403454 -1.092309,-0.936844 -1.526966,-1.273751 -0.215898,-0.167345 -0.493477,-0.384489 -0.616849,-0.482547 -0.280881,-0.223255 -0.651489,-0.46843 -1.219677,-0.806879 -0.10024,-0.0597 -0.311122,-0.193275 -0.468632,-0.296818 -0.308201,-0.202606 -1.624837,-0.877574 -2.213155,-1.134566 -0.740768,-0.323586 -0.958457,-0.413863 -1.313711,-0.5448 -0.200476,-0.07388 -0.459131,-0.171917 -0.57479,-0.217836 -0.296648,-0.117778 -0.492839,-0.171127 -0.534542,-0.145351 -0.0485,0.02998 0.122959,0.136184 0.593123,0.367378 0.206809,0.101701 0.659907,0.324799 1.006884,0.495775 0.346979,0.170979 0.744425,0.356751 0.883215,0.412835 0.616116,0.248953 1.702992,0.798833 2.074855,1.049727 0.107948,0.07282 0.240431,0.157369 0.294406,0.187856 0.356233,0.201227 0.674335,0.406363 0.959835,0.618977 0.483065,0.359739 1.209509,0.923063 1.421132,1.102019 0.101503,0.08583 0.291811,0.236935 0.422891,0.335773 0.348203,0.262561 1.652333,1.581729 1.916059,1.938157 0.04374,0.05912 0.09105,0.107495 0.105147,0.107495 0.01409,0 0.02562,-0.0938 0.02562,-0.208461 z m -8.405222,-0.19545 c 0.296405,-0.07519 0.377621,-0.112212 0.820789,-0.374321 0.593781,-0.351166 0.792037,-0.505792 0.933953,-0.728404 0.146486,-0.229773 0.0737,-0.343765 -0.250941,-0.392992 -0.211624,-0.03209 -0.38836,-0.0026 -0.951121,0.159078 -0.637256,0.183005 -1.238209,0.430291 -1.352317,0.556469 -0.167758,0.185502 0.02043,0.642926 0.330651,0.803684 0.111808,0.05793 0.156783,0.05569 0.468986,-0.02353 z m -3.314116,-0.1012 c 0.02925,-0.01563 0.09353,-0.0871 0.142852,-0.158804 0.07561,-0.109901 0.09175,-0.162652 0.102901,-0.336316 0.02412,-0.376145 -0.127262,-0.603563 -0.426739,-0.640979 -0.176438,-0.02203 -0.272519,-0.005 -0.337506,0.06003 -0.05577,0.05576 -0.03558,0.129609 0.07328,0.267974 0.113226,0.14394 0.210104,0.370182 0.250141,0.584208 0.0463,0.247452 0.0796,0.285686 0.19507,0.223888 z m 7.068739,-1.233275 c 0.01334,-0.242128 0.044,-0.420224 0.122913,-0.714986 0.161925,-0.604804 0.161727,-0.601448 0.0496,-0.836469 -0.05273,-0.110534 -0.142366,-0.249118 -0.199187,-0.30798 -0.132623,-0.137396 -0.378548,-0.287127 -0.544455,-0.331499 -0.203936,-0.05455 -0.24747,-0.02032 -0.354478,0.278845 -0.08823,0.246653 -0.390553,0.791609 -0.557935,1.00572 -0.10584,0.13538 -0.128368,0.23238 -0.08865,0.381696 0.04365,0.164083 0.140228,0.281135 0.34318,0.415949 0.395559,0.262751 0.877234,0.451988 1.113039,0.437284 l 0.09813,-0.0061 z m -4.126307,0.04382 c 0.239488,-0.08385 0.523752,-0.177938 0.6317,-0.209095 0.249519,-0.07202 0.640567,-0.322894 0.654272,-0.419754 0.01272,-0.08987 -0.137259,-0.241288 -0.301943,-0.304853 -0.19426,-0.07498 -1.069438,-0.0634 -1.529948,0.02025 -0.185054,0.03361 -0.379022,0.08118 -0.431038,0.105707 -0.168753,0.07957 -0.225437,0.352487 -0.129624,0.624061 0.0548,0.155302 0.111154,0.218625 0.252234,0.283408 0.196499,0.09023 0.369458,0.07006 0.854342,-0.09972 z m -3.546073,-0.212029 c 0.06529,-0.06812 0.08269,-0.11468 0.09178,-0.245337 0.0106,-0.151504 0.0044,-0.170669 -0.100991,-0.317024 -0.06172,-0.08567 -0.162245,-0.190445 -0.22339,-0.232818 -0.0953,-0.06605 -0.134261,-0.07582 -0.272831,-0.06853 -0.225323,0.01179 -0.240921,0.04787 -0.12617,0.291352 0.05023,0.106601 0.103871,0.220762 0.11917,0.253705 0.01533,0.03293 0.09102,0.137032 0.168231,0.23132 0.161879,0.197659 0.223519,0.213302 0.344201,0.08733 z m 2.677209,-1.044683 c 0.257658,-0.128868 0.436287,-0.284099 0.512787,-0.445627 0.05351,-0.112988 0.0634,-0.279988 0.02126,-0.358737 -0.06482,-0.121109 -0.465827,-0.200418 -0.731594,-0.144683 -0.2611,0.05475 -0.578173,0.196691 -0.684948,0.306623 -0.115287,0.118684 -0.122715,0.189939 -0.04222,0.405106 0.06502,0.17377 0.160688,0.275194 0.331623,0.351565 0.155343,0.06941 0.270051,0.04732 0.59307,-0.114252 z m 2.183542,0.01022 c 0.02096,-0.01334 0.06732,-0.167643 0.103037,-0.343043 0.07422,-0.364423 0.211665,-0.70804 0.377017,-0.942507 0.156573,-0.222021 0.16949,-0.324649 0.05985,-0.475485 -0.09753,-0.134153 -0.197715,-0.166613 -0.429564,-0.139154 -0.460564,0.05455 -0.695172,0.416703 -0.695172,1.073113 0,0.489403 0.07257,0.645071 0.369176,0.791887 0.134199,0.06641 0.159786,0.0706 0.215668,0.03519 z m -5.532732,-0.184347 0.103047,-0.09718 -0.01049,-0.232265 c -0.009,-0.198671 -0.02199,-0.249327 -0.08995,-0.350222 -0.128079,-0.19015 -0.34754,-0.226283 -0.563548,-0.09278 l -0.09512,0.05879 0.05358,0.118039 c 0.02947,0.06491 0.05385,0.160666 0.05421,0.212775 3.19e-4,0.06629 0.02798,0.125927 0.09174,0.198647 0.05011,0.05715 0.112631,0.143849 0.138896,0.192656 0.06694,0.124398 0.179989,0.121399 0.31766,-0.0085 z m 2.692557,-0.914878 c 0.697031,-0.275727 0.93752,-0.430479 0.93752,-0.603291 0,-0.154014 -0.224101,-0.192838 -0.729003,-0.126291 -0.794678,0.104743 -1.070319,0.148501 -1.18776,0.188514 -0.122338,0.04167 -0.130048,0.05028 -0.130048,0.144986 0,0.134609 0.09541,0.324229 0.238098,0.473132 0.170019,0.177446 0.244492,0.170859 0.871199,-0.07706 z m -3.198819,-0.226425 c 0.08592,-0.03915 0.11138,-0.121822 0.08721,-0.283137 -0.03988,-0.265948 -0.243641,-0.552754 -0.42505,-0.598287 -0.09938,-0.02495 -0.338225,0.0016 -0.388369,0.04331 -0.03697,0.03068 -0.03667,0.04751 0.0026,0.14582 0.03019,0.07542 0.03889,0.151862 0.02712,0.23781 -0.02302,0.167945 0.02889,0.263406 0.198447,0.364945 0.211591,0.126714 0.358437,0.153115 0.497981,0.08953 z m 2.552159,-0.668863 c 0.215897,-0.03078 0.529594,-0.06806 0.697104,-0.08286 0.290846,-0.02568 0.400507,-0.06065 0.365907,-0.116645 -0.0203,-0.03282 -0.467724,-0.257895 -0.662094,-0.333041 -0.334746,-0.129427 -1.051848,-0.215648 -1.556285,-0.187136 -0.357206,0.02018 -0.412959,0.04566 -0.391355,0.178805 0.01815,0.111903 0.147699,0.326003 0.262808,0.434356 0.170851,0.16083 0.633496,0.199214 1.283915,0.106518 z m -3.563896,-0.388666 c 0.131669,-0.137442 0.155692,-0.44157 0.04948,-0.626533 -0.0937,-0.163185 -0.39133,-0.207398 -0.52951,-0.07866 -0.05475,0.05101 -0.147835,0.379782 -0.147835,0.522162 0,0.0838 0.08967,0.16707 0.235648,0.218854 0.189828,0.06734 0.303317,0.05698 0.392224,-0.03582 z m 5.456154,-0.07735 c 0.06848,-0.01363 0.100428,-0.04124 0.130049,-0.112153 0.08353,-0.199926 -0.06233,-0.356567 -0.547482,-0.587878 -0.441443,-0.210478 -0.507594,-0.197481 -0.507396,0.09969 2.12e-4,0.259478 0.136078,0.414719 0.478276,0.546327 0.187576,0.07214 0.292474,0.08482 0.446548,0.05401 z m -3.897017,-0.330249 c 0.335394,-0.128232 0.465578,-0.161642 0.729006,-0.187113 0.185149,-0.01789 0.419266,-0.0193 0.630866,-0.0039 0.353511,0.02591 0.423727,0.01455 0.539741,-0.08777 0.129018,-0.113726 0.04921,-0.444684 -0.142487,-0.590901 -0.228209,-0.174062 -0.685142,-0.268056 -1.30311,-0.268056 -0.452884,0 -0.537622,0.02043 -0.958703,0.231179 -0.279043,0.139653 -0.296329,0.153417 -0.331263,0.263792 -0.07402,0.233819 0.09536,0.526252 0.35265,0.608886 0.242891,0.07801 0.348351,0.08538 0.483306,0.0338 z M 34.094768,45.862219 C 33.988822,45.746598 33.915574,45.559205 33.830721,45.186805 33.704035,44.630813 33.5473,44.148306 33.39264,43.838184 c -0.234662,-0.470546 -0.600871,-0.811468 -0.986511,-0.918403 -0.253957,-0.07042 -0.365125,-0.06516 -0.495501,0.02343 -0.153046,0.103997 -0.246993,0.09361 -0.386591,-0.04268 -0.206687,-0.201792 -0.361085,-0.217632 -0.822396,-0.08438 -0.455268,0.131502 -0.555596,0.190717 -0.637702,0.376373 -0.18965,0.428833 -0.586158,0.115537 -0.586732,-0.463603 -2.14e-4,-0.248445 0.05273,-0.597691 0.120035,-0.791234 0.08192,-0.235564 0.202341,-1.002543 0.20836,-1.326982 0.0051,-0.274599 0.0026,-0.287146 -0.101899,-0.498599 -0.181646,-0.3678 -0.464126,-0.542098 -0.838899,-0.517624 -0.249176,0.01628 -0.393725,0.08503 -0.548514,0.260868 -0.14491,0.164626 -0.20179,0.333355 -0.20179,0.598586 0,0.33832 0.11926,0.521102 0.434621,0.666106 0.123321,0.0567 0.160984,0.06154 0.312532,0.04012 0.207238,-0.02929 0.256394,-0.05355 0.369363,-0.182209 0.201354,-0.229325 0.177311,-0.590061 -0.05218,-0.78318 -0.226072,-0.190226 -0.636414,0.02185 -0.544012,0.281154 0.05898,0.165517 0.214572,0.156144 0.231499,-0.01394 0.0106,-0.107411 0.07997,-0.117897 0.166499,-0.02521 0.0853,0.09137 0.103454,0.196136 0.05146,0.29669 -0.06147,0.118838 -0.149789,0.172972 -0.282057,0.172849 -0.350597,-3.18e-4 -0.569768,-0.46103 -0.369929,-0.777598 0.136063,-0.215536 0.311735,-0.301698 0.576127,-0.282577 0.239946,0.01736 0.39248,0.133699 0.523897,0.399618 0.0954,0.193012 0.101858,0.22212 0.09165,0.413124 -0.02607,0.488182 -0.358838,0.820067 -0.82251,0.820353 -0.166677,1.05e-4 -0.222824,-0.01363 -0.372343,-0.0909 -0.242003,-0.12511 -0.393312,-0.269764 -0.485315,-0.463983 -0.217165,-0.458448 -0.105409,-0.995045 0.376197,-1.806403 0.343008,-0.57785 0.484285,-0.934853 0.515562,-1.302781 0.01835,-0.215941 0.0644,-0.256725 0.06331,-0.05608 -0.0023,0.43616 -0.102442,0.975212 -0.226021,1.217436 -0.08608,0.168748 -0.06353,0.193314 0.133517,0.145411 0.285169,-0.06933 0.598836,-0.01363 0.80402,0.142926 l 0.09396,0.07165 0.004,-1.000007 c 0.0023,-0.550005 0.009,-1.00496 0.015,-1.011014 0.01864,-0.01864 0.09536,0.46053 0.145093,0.906081 l 0.04727,0.423439 0.241965,-0.08995 c 0.676837,-0.251638 0.871046,-0.449403 0.894747,-0.911127 0.0067,-0.131078 0.02118,-0.248001 0.03207,-0.259827 0.01097,-0.0118 0.05374,0.09171 0.09514,0.230068 0.07387,0.246771 0.07906,0.254791 0.272225,0.421046 0.202819,0.174559 0.243025,0.191031 0.339839,0.139215 0.05432,-0.02906 0.05581,-0.04775 0.03771,-0.469648 -0.01659,-0.38695 -0.08172,-0.848168 -0.14023,-0.993139 -0.04342,-0.107579 0.03458,-0.04002 0.121413,0.105136 0.05073,0.08481 0.110855,0.154213 0.133609,0.154213 0.02276,0 0.04863,0.01891 0.05751,0.04206 0.009,0.02315 0.03935,0.04206 0.06773,0.04206 0.02836,0 0.129427,0.04564 0.224566,0.101388 0.150501,0.0882 0.190643,0.09969 0.308748,0.08833 0.08957,-0.0086 0.169538,-0.03881 0.235063,-0.08878 0.086,-0.0656 0.0993,-0.09154 0.09918,-0.193492 -1.09e-4,-0.09877 -0.03285,-0.167701 -0.203281,-0.428063 -0.314349,-0.480224 -0.45988,-0.651868 -0.584303,-0.689146 -0.09799,-0.02935 -0.116813,-0.02516 -0.241083,0.05385 -0.07413,0.04713 -0.18897,0.100022 -0.255187,0.117515 -0.148138,0.03915 -0.197968,0.132215 -0.133244,0.24888 0.07944,0.143229 0.130654,0.262933 0.117908,0.275673 -0.02336,0.02336 -0.124246,-0.105708 -0.213539,-0.273215 -0.06398,-0.12005 -0.131304,-0.196102 -0.246747,-0.278775 -0.273321,-0.195715 -0.362695,-0.180134 -0.376936,0.06572 -0.0082,0.142078 -0.01049,0.137336 -0.117147,-0.241688 -0.05981,-0.212632 -0.100762,-0.394578 -0.09104,-0.404317 0.0097,-0.0096 0.115454,0.07713 0.234913,0.19306 0.160711,0.155952 0.257312,0.225586 0.371416,0.26773 0.235526,0.08699 0.325737,0.0997 0.43998,0.06199 0.139183,-0.04593 0.348498,-0.199732 0.40483,-0.29745 0.04541,-0.07877 0.143319,-0.468538 0.178396,-0.710163 0.01012,-0.06939 0.0255,-0.151197 0.03425,-0.181792 0.01574,-0.05492 0.0162,-0.0549 0.03709,0.0016 0.02394,0.06473 -0.0141,0.49738 -0.05821,0.660986 -0.04111,0.152651 0.0055,0.295259 0.139471,0.426662 0.06072,0.05955 0.212876,0.251972 0.338132,0.427585 0.218138,0.305845 0.268593,0.36581 0.235732,0.280182 -0.03106,-0.08092 0.05652,-0.291949 0.22808,-0.549654 0.188236,-0.282749 0.256109,-0.454056 0.226553,-0.571812 -0.01898,-0.07562 -0.300799,-0.332405 -0.653367,-0.595334 -0.11082,-0.08264 -0.211122,-0.166132 -0.222894,-0.185531 -0.0118,-0.0194 0.02527,-6.35e-4 0.08233,0.04184 0.05706,0.0424 0.144834,0.107804 0.195061,0.145334 0.109687,0.08195 0.381463,0.211498 0.44449,0.211881 0.03348,2.12e-4 0.04991,-0.03774 0.06355,-0.146926 0.05243,-0.419343 0.119778,-0.687072 0.205306,-0.81618 0.06111,-0.09227 0.093,-0.181378 0.106494,-0.297645 0.0106,-0.09127 0.01288,-0.176174 0.0051,-0.188672 -0.01469,-0.02378 -0.595736,-0.39602 -0.858393,-0.549929 -0.08376,-0.04909 -0.157303,-0.104838 -0.163426,-0.123897 -0.0061,-0.01904 0.07192,0.0158 0.173408,0.07746 0.101493,0.06165 0.325615,0.169527 0.498045,0.239704 0.172427,0.07018 0.334831,0.139001 0.360896,0.152955 0.03938,0.02108 0.05012,0.0086 0.06348,-0.07375 0.0089,-0.05451 0.0026,-0.128882 -0.0141,-0.165272 -0.02417,-0.05306 -0.01904,-0.08462 0.0259,-0.159341 0.147411,-0.24513 0.109628,-0.351261 -0.166073,-0.466486 -0.294265,-0.122989 -0.583805,-0.256344 -0.583805,-0.268887 0,-0.0059 0.135638,0.03686 0.301416,0.09505 0.259492,0.0911 0.710688,0.223796 1.296782,0.381402 0.08481,0.02281 0.221563,0.06097 0.303877,0.08479 0.0823,0.02382 0.156152,0.03683 0.164078,0.02889 0.0211,-0.0211 -0.07261,-0.289239 -0.112761,-0.322562 -0.04988,-0.04139 -0.883706,-0.504321 -1.420654,-0.788721 -0.254448,-0.134774 -0.63297,-0.343989 -0.841155,-0.464924 -0.613366,-0.356311 -0.906866,-0.516906 -0.978681,-0.535514 -0.113274,-0.02935 -0.157773,0.02315 -0.149956,0.176946 0.01108,0.218578 0.167139,0.500095 0.428089,0.77235 0.122897,0.128215 0.22355,0.236282 0.223671,0.240139 9.54e-4,0.03024 -0.161637,-0.0056 -0.284387,-0.06281 -0.08249,-0.0384 -0.166174,-0.06995 -0.18596,-0.0701 -0.01976,-1.07e-4 -0.175919,-0.07011 -0.346965,-0.155454 -0.17105,-0.08536 -0.438753,-0.191318 -0.594898,-0.235485 -0.156144,-0.04417 -0.427656,-0.120185 -0.60336,-0.168932 -0.175703,-0.04876 -0.493265,-0.157273 -0.705699,-0.241172 -0.212431,-0.0839 -0.421961,-0.152475 -0.465622,-0.152387 -0.20354,3.18e-4 -0.430178,0.123821 -0.381688,0.207854 0.03939,0.06827 0.407675,0.30247 0.694481,0.441647 0.17229,0.08362 0.422389,0.173517 0.647377,0.232731 0.496949,0.13079 0.819286,0.250989 1.018723,0.379888 0.19297,0.124716 0.202497,0.139594 0.269174,0.42004 0.05786,0.24337 0.252661,0.70068 0.372794,0.875157 0.04551,0.06611 0.178933,0.232423 0.29647,0.369573 0.117539,0.137139 0.213705,0.262871 0.213705,0.279383 0,0.03916 -0.0274,0.009 -0.34233,-0.376891 -0.283145,-0.346938 -0.45215,-0.612459 -0.429324,-0.674505 0.01789,-0.04864 -0.01097,-0.09115 -0.0902,-0.132866 -0.03452,-0.01818 -0.07076,-0.06739 -0.08057,-0.109342 -0.02973,-0.127306 -0.125034,-0.40538 -0.166292,-0.485164 -0.09964,-0.192661 -0.32477,-0.311407 -0.767748,-0.404935 -0.379673,-0.08016 -0.867018,-0.219481 -0.989714,-0.282931 -0.07503,-0.03879 -0.145381,-0.05265 -0.372276,-0.07326 -0.08391,-0.0076 -0.0841,-0.0073 -0.07843,0.132548 0.0032,0.07711 0.04408,0.264627 0.09104,0.416709 0.07196,0.23318 0.08285,0.305681 0.06939,0.462637 -0.01485,0.172493 -0.0086,0.201096 0.08369,0.390611 0.0548,0.112463 0.136289,0.257756 0.181091,0.322862 0.04479,0.06511 0.141001,0.263291 0.213775,0.440403 0.213504,0.51956 0.50018,1.09324 0.644313,1.289351 l 0.133942,0.182249 -0.118291,-0.112153 c -0.06506,-0.0617 -0.176279,-0.192831 -0.247162,-0.291437 l -0.128882,-0.179277 -0.08578,0.10217 c -0.04718,0.05619 -0.102588,0.102171 -0.123125,0.102171 -0.02718,0 -0.02197,0.02486 0.01914,0.09138 0.04999,0.08089 0.05749,0.148546 0.06538,0.588846 0.0078,0.440294 0.0039,0.497458 -0.0358,0.497426 -0.03431,-2.8e-5 -0.05216,-0.05062 -0.07677,-0.217333 -0.09085,-0.615289 -0.17777,-0.933308 -0.28049,-1.026271 -0.02766,-0.02505 -0.08867,-0.05321 -0.135563,-0.06258 -0.167046,-0.03341 -0.364893,0.217247 -0.466628,0.591175 -0.04217,0.155011 -0.131593,0.894149 -0.172984,1.429966 -0.04691,0.607153 -0.23602,1.715988 -0.349079,2.046818 -0.02723,0.07973 -0.02805,0.07825 -0.01552,-0.02805 0.143653,-1.217093 0.150303,-1.846823 0.02772,-2.621607 -0.02318,-0.146501 -0.0677,-0.44301 -0.09893,-0.658908 -0.03125,-0.215894 -0.06238,-0.411465 -0.06923,-0.434597 -0.0068,-0.02315 -0.04475,-0.231317 -0.08427,-0.462636 -0.03951,-0.231317 -0.127943,-0.674014 -0.196509,-0.983769 -0.181212,-0.818646 -0.215413,-1.264044 -0.134382,-1.749993 0.016,-0.09591 0.01515,-0.09703 -0.03888,-0.04908 -0.03039,0.02699 -0.07664,0.04908 -0.102786,0.04908 -0.08392,0 -0.100303,-0.114644 -0.05851,-0.409564 0.02162,-0.152559 0.03955,-0.42258 0.03984,-0.600045 6.35e-4,-0.314675 -0.0028,-0.332726 -0.139228,-0.729003 -0.07688,-0.223487 -0.139957,-0.434998 -0.140199,-0.470026 -6.36e-4,-0.07701 0.12264,-0.14691 0.171959,-0.09759 0.0382,0.0382 0.13829,0.279829 0.252664,0.609897 0.07314,0.211091 0.09034,0.311244 0.105231,0.612585 0.01549,0.313665 0.02493,0.365445 0.07288,0.400519 0.07635,0.05583 0.081,0.02458 0.04344,-0.29283 -0.03468,-0.293243 -0.03727,-0.28501 0.120519,-0.383812 0.04002,-0.02505 0.03293,-0.07114 -0.06689,-0.434597 -0.289619,-1.054526 -0.28203,-1.010993 -0.195557,-1.121543 0.03175,-0.04061 0.0551,-0.114299 0.05545,-0.175161 3.19e-4,-0.07834 0.02413,-0.13182 0.0931,-0.210291 0.05086,-0.05787 0.157272,-0.187236 0.236476,-0.287472 0.07921,-0.100241 0.419262,-0.455897 0.755694,-0.790353 0.623621,-0.619958 1.31933,-1.217594 1.747251,-1.500935 0.765569,-0.506913 1.283334,-0.835128 1.390559,-0.881487 0.09854,-0.0426 0.397247,-0.209687 0.922622,-0.516076 0.215898,-0.125896 0.513199,-0.281442 0.660673,-0.345641 0.147469,-0.06419 0.443977,-0.212094 0.658905,-0.328659 0.214927,-0.116562 0.548494,-0.297619 0.74126,-0.402342 0.192764,-0.104718 0.490287,-0.266274 0.661161,-0.359014 0.739092,-0.401137 1.357794,-0.67143 1.988483,-0.868716 1.015551,-0.317676 1.416443,-0.384137 2.313184,-0.383495 0.647186,3.18e-4 0.714716,0.01287 1.332619,0.244456 0.817747,0.306517 1.066363,0.451265 1.413476,0.822953 0.393999,0.421892 0.502498,0.816148 0.365974,1.329861 -0.03454,0.129958 -0.07281,0.327508 -0.08504,0.438985 -0.02894,0.263583 -0.127018,0.475839 -0.273494,0.591855 -0.156387,0.123866 -0.216858,0.231559 -0.295948,0.52709 -0.08084,0.302055 -0.112368,0.365757 -0.29029,0.586576 -0.245322,0.304457 -0.277034,0.374897 -0.40785,0.905897 -0.01659,0.06733 -0.07865,0.183754 -0.137911,0.258734 -0.262738,0.332387 -0.381277,0.549136 -0.416212,0.761054 -0.04325,0.262429 -0.08529,0.349109 -0.269198,0.555218 -0.083,0.09302 -0.174715,0.215996 -0.203812,0.273284 -0.06153,0.121109 -0.199501,0.547572 -0.19973,0.617312 -6.36e-4,0.147333 -0.07215,0.280748 -0.251037,0.467269 -0.269483,0.280992 -0.492887,0.623894 -0.564411,0.866313 -0.09712,0.329108 -0.175902,0.443899 -0.496658,0.723555 -0.161217,0.140562 -0.313585,0.292777 -0.338596,0.338262 -0.143486,0.260923 -0.19722,0.323617 -0.329694,0.384602 -0.371703,0.17112 -0.498177,0.245434 -0.728045,0.427783 -0.340686,0.27025 -0.440846,0.330182 -0.67813,0.405751 -0.230431,0.07338 -0.59966,0.08671 -0.945233,0.03409 -0.107948,-0.01644 -0.306029,-0.04566 -0.440173,-0.06493 l -0.2439,-0.03505 0.244971,0.240736 c 0.344018,0.338062 0.511295,0.575697 0.66208,0.940555 0.131396,0.317947 0.152549,0.427516 0.09385,0.48621 -0.05903,0.05903 -0.126837,0.03653 -0.212767,-0.07059 -0.07532,-0.0939 -0.08847,-0.10022 -0.132456,-0.06371 -0.118219,0.09812 0.0206,0.707821 0.293561,1.289483 0.204259,0.435252 0.238062,0.547499 0.213738,0.709718 -0.02746,0.183133 -0.115453,0.25975 -0.325625,0.283528 -0.132792,0.015 -0.18983,0.03764 -0.267941,0.10622 -0.135973,0.119383 -0.235829,0.325235 -0.235829,0.486127 0,0.175296 0.100324,0.559029 0.186554,0.713575 0.114144,0.20458 0.205988,0.451325 0.205988,0.553431 0,0.129927 -0.04386,0.201367 -0.151137,0.246194 -0.07851,0.03281 -0.121777,0.03087 -0.325217,-0.01454 -0.365926,-0.08157 -0.586724,-0.03074 -0.734668,0.16909 -0.139275,0.188135 -0.178107,0.723333 -0.0794,1.094474 0.06674,0.250942 0.07135,0.421259 0.0144,0.5314 -0.08628,0.166839 -0.202769,0.17885 -0.402451,0.0415 -0.362258,-0.24919 -0.52804,-0.03056 -0.515814,0.680243 0.0052,0.306144 0.02404,0.452238 0.106244,0.827138 0.05492,0.250428 0.130805,0.636222 0.168638,0.857323 0.03782,0.221102 0.08853,0.486066 0.112654,0.588811 0.219526,0.934823 0.276361,1.423615 0.197186,1.695961 -0.07554,0.259846 -0.218649,0.346196 -0.345071,0.20821 z m -0.525893,-2.703592 c 0.06773,-0.06773 0.04016,-0.185944 -0.122914,-0.527339 -0.230044,-0.481583 -0.498663,-0.824295 -0.826709,-1.054747 -0.24472,-0.171914 -0.350803,-0.208485 -0.480551,-0.165665 -0.121172,0.03998 -0.302686,0.241994 -0.345145,0.384091 -0.0471,0.157616 -0.04909,0.461987 -0.0034,0.534988 0.06076,0.09726 0.102213,0.09585 0.238578,-0.0083 0.226012,-0.172519 0.494362,-0.131397 0.819415,0.125532 0.07254,0.05735 0.213732,0.222248 0.313769,0.366468 0.19473,0.280748 0.289101,0.39186 0.332813,0.39186 0.015,0 0.04844,-0.0211 0.07425,-0.04693 z M 30.4986,42.530889 c 0.310069,-0.151631 0.53487,-0.22256 0.705386,-0.22256 0.185759,0 0.23559,-0.167072 0.118326,-0.396677 -0.04442,-0.08694 -0.244873,-0.192131 -0.366184,-0.192131 -0.118468,0 -0.524097,0.210014 -0.622845,0.32248 -0.08937,0.101795 -0.197245,0.35878 -0.220668,0.525686 -0.01272,0.09091 -0.0073,0.105147 0.04049,0.105147 0.03039,0 0.185862,-0.06388 0.345504,-0.14194 z m 3.041914,-1.609128 c 0.06852,-0.392918 0.16598,-0.560356 0.335911,-0.577071 0.15798,-0.01555 0.221178,0.0047 0.310239,0.09908 0.0509,0.05398 0.104659,0.09813 0.119443,0.09813 0.07823,0 0.05568,-0.325212 -0.04267,-0.61488 -0.08601,-0.253334 -0.340026,-0.562741 -0.461999,-0.562741 -0.09892,0 -0.275602,0.11282 -0.363493,0.232079 -0.18151,0.246306 -0.203417,0.330722 -0.196786,0.758269 0.0057,0.366028 0.04623,0.661179 0.11605,0.844842 0.03064,0.0806 0.03157,0.08088 0.0853,0.02715 0.03603,-0.03603 0.06903,-0.138716 0.09802,-0.304855 z m 0.948784,-1.593163 c 0.03039,-0.02222 0.06927,-0.129351 0.103037,-0.283871 0.107257,-0.490838 0.228067,-0.642513 0.467777,-0.587305 0.08788,0.02025 0.116204,0.04543 0.164993,0.146759 0.07196,0.149439 0.123792,0.182665 0.217977,0.139744 0.09836,-0.04481 0.109652,-0.09478 0.06001,-0.265574 -0.07042,-0.242215 -0.144516,-0.392481 -0.25243,-0.511937 -0.08687,-0.09615 -0.123503,-0.115311 -0.250927,-0.131228 -0.208798,-0.02611 -0.365713,0.04713 -0.521753,0.243463 -0.206208,0.259456 -0.237635,0.356349 -0.232503,0.716862 0.0047,0.332978 0.03972,0.494735 0.116718,0.539664 0.06155,0.03592 0.06955,0.0355 0.127108,-0.0066 z m 0.727519,-2.270493 c 0.02604,-0.01926 0.07363,-0.110222 0.105792,-0.202104 0.08607,-0.245884 0.129668,-0.317872 0.221194,-0.365205 0.106471,-0.05506 0.157512,-0.05295 0.301701,0.01243 0.06518,0.02961 0.123927,0.04508 0.130532,0.03439 0.02029,-0.03281 -0.111796,-0.416056 -0.188495,-0.546931 -0.08239,-0.140578 -0.250926,-0.299539 -0.317592,-0.299539 -0.07704,0 -0.227309,0.110128 -0.317593,0.232764 -0.138198,0.187713 -0.188766,0.435668 -0.173672,0.851581 0.004,0.110199 0.02269,0.165778 0.07786,0.231316 0.0815,0.09686 0.0935,0.100689 0.160278,0.05122 z m -0.07823,-2.649647 c 0.03905,-0.241801 0.07984,-0.391503 0.133079,-0.488386 0.07024,-0.127821 0.05371,-0.173578 -0.08894,-0.24636 -0.157154,-0.08018 -0.195051,-0.07281 -0.246219,0.0478 -0.08615,0.203115 -0.0428,0.602574 0.07969,0.734047 0.07699,0.08264 0.103089,0.0726 0.122414,-0.0471 z m 1.811341,-1.470452 c 0.305495,-0.124504 0.687006,-0.387923 0.780182,-0.538683 0.134032,-0.216863 0.04191,-0.31489 -0.269658,-0.286999 -0.220568,0.01974 -0.324457,0.064 -0.53626,0.228488 -0.294841,0.228968 -0.413528,0.475062 -0.289114,0.599476 0.07472,0.07472 0.126851,0.07435 0.31485,-0.0023 z M 35.096106,32.1864 c 0.06666,-0.06666 0.07425,-0.220514 0.01635,-0.330844 -0.07706,-0.14676 -0.320048,-0.340099 -0.763768,-0.607658 -0.0901,-0.05433 -0.147547,-0.09881 -0.127655,-0.09885 0.0471,-9.4e-5 0.242451,0.09949 0.384414,0.19598 0.161597,0.109819 0.303675,0.148199 0.500457,0.135154 0.318848,-0.02114 0.563909,-0.268861 0.559433,-0.565519 -0.002,-0.129427 -0.01243,-0.150789 -0.124458,-0.255501 -0.06728,-0.06283 -0.16017,-0.143033 -0.206434,-0.178183 -0.08024,-0.06097 -0.08087,-0.06306 -0.0141,-0.04551 0.03855,0.01012 0.107948,0.04223 0.154213,0.07131 0.196756,0.123731 0.427179,0.221565 0.521899,0.221583 0.07314,1.6e-5 0.122792,-0.02142 0.178536,-0.07709 0.09772,-0.09758 0.1145,-0.143169 0.170028,-0.461821 0.0498,-0.285842 0.04217,-0.390845 -0.04902,-0.674459 -0.05341,-0.166153 -0.07887,-0.203447 -0.202936,-0.297396 -0.07803,-0.05909 -0.18286,-0.130865 -0.23298,-0.159541 -0.0796,-0.04552 -0.119912,-0.09612 -0.0766,-0.09612 0.008,0 0.13732,0.06103 0.287393,0.135593 0.150078,0.07458 0.364986,0.164692 0.477574,0.200247 0.180212,0.05691 0.213285,0.06005 0.276405,0.02626 0.141728,-0.07586 0.346027,-0.454543 0.346027,-0.641424 0,-0.153749 -0.0608,-0.366891 -0.127155,-0.445744 -0.03634,-0.04319 -0.133002,-0.11387 -0.2148,-0.157053 -0.151198,-0.07984 -1.019043,-0.384099 -1.452517,-0.50925 -0.47183,-0.13623 -0.964422,-0.115931 -1.126773,0.04642 -0.202356,0.202358 -0.06727,0.350187 0.873254,0.955576 0.210249,0.135335 0.304,0.210121 0.271289,0.216421 -0.02749,0.0052 -0.07212,-0.01049 -0.09918,-0.03489 -0.02705,-0.02449 -0.07204,-0.04451 -0.09998,-0.04451 -0.02795,0 -0.146805,-0.05846 -0.264157,-0.129927 -0.776458,-0.472814 -0.831702,-0.494518 -1.294307,-0.508555 -0.353086,-0.01073 -0.395729,-0.0062 -0.60283,0.06275 -0.122578,0.04084 -0.269836,0.105041 -0.327243,0.142637 l -0.104373,0.06836 0.06489,0.09562 c 0.0796,0.117289 0.343247,0.360325 0.550424,0.507385 0.08481,0.0602 0.349784,0.262475 0.588813,0.449491 0.239029,0.187016 0.513479,0.395169 0.609891,0.462557 0.107411,0.07508 0.165246,0.13258 0.149349,0.148472 -0.01589,0.01589 -0.116335,-0.03896 -0.259412,-0.141699 -0.416102,-0.298788 -1.056967,-0.70847 -1.108515,-0.708633 -0.02763,-9e-5 -0.17455,-0.08168 -0.326508,-0.181288 -0.151955,-0.0996 -0.303364,-0.189564 -0.336462,-0.199885 -0.0331,-0.01022 -0.08507,-0.03599 -0.11549,-0.05703 -0.06534,-0.04524 -0.248139,-0.05043 -0.325097,-0.0093 -0.05485,0.02937 -0.194388,0.274803 -0.194388,0.34195 0,0.02003 -0.02524,0.08347 -0.05608,0.141018 -0.06623,0.123549 -0.07254,0.300085 -0.01469,0.411833 0.06781,0.131138 0.237246,0.254716 0.691652,0.504481 0.430801,0.236792 0.9213,0.528615 0.9213,0.54813 0,0.03427 -0.230751,-0.07047 -0.639921,-0.290465 -0.257182,-0.138273 -0.568542,-0.302096 -0.691912,-0.364053 l -0.224308,-0.112653 -0.01825,0.17342 c -0.01002,0.09539 -0.02947,0.211276 -0.04318,0.25754 -0.04284,0.144516 -0.01711,0.194469 0.13979,0.271428 0.08027,0.03938 0.240253,0.150381 0.355533,0.246702 0.471158,0.393664 1.78289,1.187647 2.22976,1.349661 0.197765,0.0717 0.473451,0.07007 0.546753,-0.0032 z m 3.244969,-0.455626 c 0.103444,-0.05123 0.215918,-0.132474 0.256958,-0.185598 0.04015,-0.05196 0.120307,-0.150517 0.178135,-0.219004 0.05783,-0.0685 0.105148,-0.136956 0.105148,-0.15214 0,-0.01519 -0.0308,-0.05841 -0.06845,-0.09606 -0.05497,-0.05497 -0.08673,-0.06513 -0.161223,-0.05163 -0.244367,0.0443 -0.59709,0.26767 -0.682015,0.431893 -0.05215,0.100856 -0.05204,0.135609 9.53e-4,0.262105 0.05452,0.130487 0.124306,0.132457 0.370643,0.01049 z M 39.1429,30.581192 c 0.02121,-0.03469 0.137048,-0.238324 0.257404,-0.452505 0.239676,-0.426502 0.240988,-0.437147 0.06589,-0.533163 -0.09516,-0.05217 -0.101085,-0.05222 -0.262294,-0.0016 -0.194947,0.06131 -0.339881,0.179612 -0.41049,0.335039 -0.06922,0.152366 -0.06518,0.231109 0.02168,0.424443 0.0861,0.191612 0.167505,0.290782 0.2387,0.290782 0.02779,0 0.06791,-0.02839 0.08911,-0.06308 z m 0.78677,-1.740875 c 0.112297,-0.225929 0.137669,-0.304553 0.140198,-0.434383 l 0.0032,-0.15852 -0.100919,-0.02516 c -0.143578,-0.0358 -0.286071,-9.53e-4 -0.421518,0.102974 -0.158255,0.121459 -0.221804,0.213498 -0.239737,0.347206 -0.02032,0.15138 0.04117,0.26169 0.207068,0.371575 0.212051,0.140457 0.250148,0.12161 0.411824,-0.203693 z m -11.839263,0.100616 c 0.05469,-0.05783 0.190636,-0.227489 0.302094,-0.377021 0.20131,-0.270072 1.734172,-1.845036 1.795718,-1.845036 0.03576,0 0.181653,-0.107794 0.53672,-0.39655 0.144941,-0.117873 0.56435,-0.411038 0.932037,-0.651503 0.648079,-0.423839 0.830764,-0.523243 2.00916,-1.093258 0.177345,-0.0858 0.518013,-0.265611 0.757043,-0.399609 0.47816,-0.268054 1.742928,-0.916351 1.85187,-0.949233 0.03783,-0.01132 0.220181,-0.0941 0.405237,-0.183737 0.185054,-0.08965 0.39955,-0.187942 0.476654,-0.218458 0.07711,-0.03051 0.241131,-0.09595 0.364503,-0.14541 0.635632,-0.254843 0.847378,-0.304162 1.631888,-0.380089 0.905467,-0.08765 1.59079,-0.05625 1.810421,0.0829 0.07028,0.04452 0.20134,0.01287 0.182369,-0.044 -0.01705,-0.05111 -0.338741,-0.149107 -0.767728,-0.233885 -0.365072,-0.07214 -0.421274,-0.07599 -0.89425,-0.06104 -0.512356,0.01621 -0.798556,0.06197 -1.52125,0.243279 -0.316617,0.07944 -0.970723,0.339771 -1.394761,0.555119 -0.123368,0.06265 -0.482964,0.235463 -0.799099,0.384023 -0.316138,0.148562 -0.713582,0.349626 -0.883218,0.446812 -0.559278,0.320421 -0.81954,0.465094 -0.836669,0.465094 -0.0093,0 -0.247525,0.112964 -0.529403,0.251004 -0.487658,0.238835 -0.766929,0.392846 -1.465824,0.808368 -0.169632,0.100856 -0.41567,0.242378 -0.546751,0.314496 -0.268651,0.147805 -1.015445,0.622209 -1.371075,0.870971 -0.32599,0.228031 -0.680699,0.54394 -1.324124,1.179284 -0.922872,0.911277 -1.119741,1.215359 -0.928136,1.433561 0.06215,0.07076 0.09506,0.06183 0.206574,-0.05607 z m 9.451036,-1.046948 c 0.149349,-0.178728 0.23145,-0.565565 0.152451,-0.718334 -0.108531,-0.209883 -0.462958,-0.435178 -0.870297,-0.553221 -0.200033,-0.05796 -0.308055,-0.07179 -0.561137,-0.07179 -0.539881,0 -0.839564,0.121261 -1.0286,0.416212 -0.09654,0.150608 -0.07566,0.215606 0.112487,0.350411 0.223083,0.159831 0.681698,0.404319 0.885315,0.471967 0.107948,0.03586 0.200475,0.07467 0.205618,0.08624 0.0051,0.01156 0.0493,0.02206 0.09813,0.02331 0.04883,0.0014 0.177113,0.02585 0.285062,0.05466 0.138593,0.03697 0.262193,0.04931 0.420578,0.04199 0.213258,-0.0099 0.228055,-0.01485 0.300386,-0.10143 z m 2.810875,-0.01455 c 0.07633,-0.07633 0.255126,-0.352421 0.349717,-0.540021 0.08022,-0.159096 0.08632,-0.187373 0.0562,-0.260084 -0.06796,-0.164088 -0.28583,-0.242017 -0.436808,-0.156239 -0.082,0.04659 -0.262309,0.266631 -0.308626,0.376628 -0.05226,0.124109 -0.04677,0.224161 0.02043,0.372412 0.104385,0.230247 0.220609,0.305759 0.319065,0.207304 z M 33.54728,27.546458 c 0.147971,-0.06055 0.451177,-0.380578 0.551709,-0.58232 0.121366,-0.243562 0.0896,-0.400782 -0.14014,-0.693182 -0.198815,-0.253062 -0.756492,-0.726357 -0.979662,-0.831431 -0.250815,-0.118099 -0.391544,-0.07742 -0.642496,0.185676 -0.175161,0.183635 -0.212721,0.259529 -0.212592,0.429531 3.18e-4,0.604444 0.372857,1.432152 0.6902,1.534079 0.127185,0.04084 0.595829,0.01378 0.732974,-0.04235 z m 4.684909,-0.876324 c 0.07459,-0.05569 0.190087,-0.344581 0.217119,-0.543131 0.02511,-0.184532 -0.05921,-0.367229 -0.203513,-0.440793 -0.332321,-0.169427 -0.905314,-0.341277 -1.137913,-0.341277 -0.181734,0 -0.406202,0.07483 -0.457,0.152354 -0.123669,0.188755 -0.05653,0.424896 0.188379,0.662586 0.156753,0.152129 0.546886,0.42325 0.685244,0.476201 0.307467,0.117683 0.578228,0.130716 0.707684,0.03407 z m 2.812104,-0.200448 c 0.145638,-0.229592 0.211458,-0.591561 0.133927,-0.736441 -0.03357,-0.06272 -0.230936,-0.16243 -0.323411,-0.163391 -0.156518,-0.0016 -0.306483,0.226827 -0.335626,0.51128 -0.01734,0.169106 -0.01227,0.19404 0.0711,0.350463 0.04936,0.09261 0.117183,0.180705 0.150715,0.195743 0.09953,0.04465 0.212082,-0.01378 0.303293,-0.157654 z M 35.54299,26.246691 c 0.146349,-0.107137 0.183397,-0.190874 0.193732,-0.437815 0.0072,-0.171673 -0.0059,-0.294681 -0.05008,-0.467613 -0.07391,-0.289937 -0.244476,-0.655343 -0.35961,-0.77048 -0.09647,-0.09647 -0.299061,-0.151122 -0.560273,-0.151122 h -0.151764 l 0.01926,0.08772 c 0.0106,0.04826 0.07891,0.161755 0.151837,0.252245 0.253285,0.314319 0.378249,0.6924 0.411243,1.244212 0.01012,0.169635 0.03062,0.323844 0.04549,0.342686 0.03058,0.03876 0.177674,-0.01012 0.300146,-0.09983 z m 3.199883,-0.706428 c 0.08869,-0.04746 0.162116,-0.229066 0.182171,-0.450543 0.01783,-0.197016 0.01519,-0.211009 -0.05263,-0.278812 -0.07209,-0.07206 -0.27534,-0.148549 -0.481766,-0.181332 -0.0617,-0.0099 -0.269872,-0.04754 -0.462638,-0.08389 -0.482157,-0.0909 -0.649831,-0.106374 -0.778253,-0.0718 -0.135094,0.03637 -0.192631,0.09715 -0.217167,0.229425 -0.01631,0.08783 -0.0069,0.11493 0.06992,0.202472 0.09741,0.110951 0.570752,0.358424 0.927144,0.484743 0.114751,0.04067 0.271728,0.0971 0.348836,0.125412 0.155522,0.05709 0.38108,0.06891 0.464387,0.02432 z m 2.693799,-0.295456 c 0.112011,-0.05792 0.19134,-0.2406 0.212118,-0.488436 0.01303,-0.155951 0.0068,-0.208746 -0.03192,-0.267816 -0.05662,-0.08641 -0.20061,-0.153053 -0.330342,-0.152907 -0.301336,3.17e-4 -0.482555,0.408816 -0.329969,0.743762 0.08885,0.195042 0.289275,0.264084 0.480119,0.165397 z m -1.928168,-0.906729 c 0.133624,-0.09193 0.298181,-0.309276 0.297981,-0.393553 -2.12e-4,-0.09832 -0.109306,-0.222756 -0.225871,-0.257679 -0.201534,-0.06038 -0.716106,0.0045 -1.243748,0.156981 -0.462181,0.133502 -0.626205,0.20492 -0.684302,0.297946 -0.02914,0.04669 -0.02498,0.05809 0.02963,0.08084 0.09187,0.03829 0.459,0.103506 0.862664,0.15322 0.192766,0.02376 0.388335,0.04837 0.4346,0.05474 0.225582,0.03102 0.391733,0.002 0.529049,-0.0925 z m -2.58965,-0.229511 c 0.07877,-0.01687 0.259177,-0.08471 0.40093,-0.150728 0.270604,-0.126003 1.063298,-0.374351 1.421339,-0.445303 0.380526,-0.0754 0.734312,-0.108985 0.937366,-0.08898 0.376458,0.03709 1.050289,0.02018 1.205305,-0.03024 0.208863,-0.06794 0.24061,-0.105243 0.24061,-0.282713 0,-0.198771 -0.05116,-0.312651 -0.19622,-0.436821 -0.17144,-0.146746 -0.332097,-0.175936 -0.931285,-0.169196 -0.846857,0.0095 -1.599739,0.132261 -2.301705,0.375238 -0.774324,0.268018 -1.158373,0.516337 -1.276668,0.825469 -0.03337,0.08722 -0.06068,0.174974 -0.06068,0.195025 0,0.07915 0.103183,0.158967 0.252393,0.19525 0.0848,0.02064 0.156702,0.03889 0.159798,0.04059 0.0032,0.0016 0.07008,-0.01073 0.148819,-0.0276 z m 5.20451,-0.01409 c 0.148198,-0.03977 0.159547,-0.27572 0.02601,-0.540884 -0.156888,-0.311534 -0.350407,-0.425693 -0.453889,-0.267759 -0.03302,0.0504 -0.05107,0.155262 -0.06053,0.351634 -0.01273,0.265436 -0.01002,0.283526 0.05341,0.351833 0.0368,0.03961 0.09212,0.08245 0.122973,0.0952 0.06627,0.0274 0.227801,0.03257 0.312014,0.01002 z M 5.4487725,42.153083 c -0.027059,-0.07051 -0.019076,-0.0887 0.01394,-0.03186 0.016383,0.02813 0.023842,0.05708 0.016633,0.06431 -0.00727,0.0073 -0.020982,-0.0074 -0.030621,-0.03243 z m 42.2375135,0.02912 c 0,-0.01542 0.01227,-0.04696 0.02718,-0.0701 0.015,-0.02315 0.02718,-0.02945 0.02718,-0.01394 0,0.01542 -0.01227,0.04696 -0.02718,0.0701 -0.015,0.02315 -0.02718,0.02945 -0.02718,0.0141 z M 5.3646567,41.956813 c -0.027059,-0.07051 -0.019076,-0.0887 0.01394,-0.03187 0.016382,0.02813 0.023842,0.05708 0.016633,0.06429 -0.00727,0.0073 -0.020982,-0.0074 -0.030621,-0.03243 z m 42.4057463,0.02912 c 0,-0.01542 0.01227,-0.04696 0.02718,-0.0701 0.015,-0.02315 0.02718,-0.02945 0.02718,-0.0141 0,0.01542 -0.01227,0.04696 -0.02718,0.0701 -0.01501,0.02315 -0.02718,0.02945 -0.02718,0.01409 z M 5.2805396,41.760544 c -0.027059,-0.07051 -0.019076,-0.0887 0.01394,-0.03187 0.016383,0.02813 0.023842,0.05709 0.016633,0.0643 -0.00727,0.0073 -0.020982,-0.0074 -0.030621,-0.03243 z m 42.5739774,0.02912 c 0,-0.01542 0.01227,-0.04696 0.02718,-0.0701 0.015,-0.02315 0.02718,-0.02945 0.02718,-0.0141 0,0.01542 -0.01227,0.04696 -0.02718,0.0701 -0.015,0.02315 -0.02718,0.02945 -0.02718,0.0141 z M 5.0388571,41.153718 C 3.9858695,38.471525 3.3840233,35.320707 3.3849036,32.494878 3.3861765,27.971862 4.5472589,23.695978 6.7661077,20.041527 7.1033622,19.486068 7.2309752,19.298781 7.68979,18.685879 8.39428,17.744802 9.0896897,16.94396 9.9193562,16.11829 c 0.9722818,-0.967597 1.5479248,-1.417342 2.2859548,-1.785997 0.287619,-0.143668 0.460535,-0.198963 0.715233,-0.228722 0.114035,-0.01333 0.23257,-0.03378 0.263411,-0.04548 0.04759,-0.01803 0.04491,-0.009 -0.01764,0.06018 -0.04055,0.04478 -0.08175,0.126805 -0.09158,0.182257 -0.05586,0.315175 -0.611122,0.945939 -1.92358,2.185209 -1.122841,1.060224 -1.9761298,2.035632 -2.9180762,3.3357 -1.67955,2.318101 -2.7627255,4.405737 -3.5569647,6.855434 -0.5994084,1.848777 -0.9095186,3.57685 -1.0289663,5.733888 -0.102611,1.852864 0.090325,3.915856 0.5513706,5.895557 0.2150978,0.923616 0.5780765,2.096113 0.9219519,2.978081 0.0776,0.199035 0.1363514,0.366627 0.1305632,0.372421 -0.00572,0.0057 -0.1012754,-0.220604 -0.2121816,-0.5031 z m 42.8848819,0.460708 c 0.396343,-0.972131 0.810476,-2.277313 1.052926,-3.318394 0.336643,-1.445535 0.501152,-2.699597 0.562391,-4.287071 0.0341,-0.884097 -0.0059,-1.909408 -0.115025,-2.952537 -0.37402,-3.573493 -1.652942,-7.048783 -3.742427,-10.169517 -0.665713,-0.994276 -1.457091,-2.047878 -2.084656,-2.775419 -0.366346,-0.42471 -1.044016,-1.124071 -1.575325,-1.625749 -1.312458,-1.23927 -1.8677,-1.870034 -1.923579,-2.18521 -0.0099,-0.05545 -0.05104,-0.137473 -0.09158,-0.182258 -0.06254,-0.06908 -0.06521,-0.0782 -0.01764,-0.06018 0.03084,0.01168 0.14938,0.03215 0.263411,0.04548 0.254699,0.02975 0.427615,0.08505 0.715237,0.228723 0.738026,0.368654 1.313673,0.8184 2.285951,1.785997 0.829666,0.82567 1.525077,1.62651 2.229567,2.567588 0.458817,0.6129 0.586429,0.80019 0.923684,1.355649 1.682047,2.770336 2.75072,5.86415 3.170252,9.177892 0.182088,1.438247 0.249375,3.006882 0.183205,4.270827 -0.121277,2.316558 -0.521212,4.450645 -1.232193,6.575048 -0.196046,0.58577 -0.581947,1.598199 -0.609179,1.598199 -0.0083,0 -0.0061,-0.02206 0.005,-0.04906 z M 26.594,37.997448 c -0.02371,-0.027 -0.07828,-0.158024 -0.121231,-0.291192 -0.06801,-0.21089 -0.07361,-0.252918 -0.04342,-0.325815 0.065,-0.156944 0.290797,-0.198096 0.413526,-0.07538 0.05044,0.05044 0.06678,0.08992 0.05517,0.133184 -0.0091,0.03383 -0.01667,0.15929 -0.01687,0.278804 -3.18e-4,0.179593 -0.01012,0.227032 -0.05646,0.273379 -0.06917,0.06917 -0.173294,0.07232 -0.230727,0.007 z M 1.3829492,37.506918 C 1.1577494,36.519596 0.98573377,35.375504 0.88366919,34.186216 0.83002302,33.561029 0.8213574,33.265121 0.82023616,32.018221 0.81896111,30.545832 0.83084033,30.282405 0.9474211,29.200344 1.1503959,27.317053 1.644687,25.044596 2.1946243,23.466457 2.5701402,22.38885 3.3976801,20.686456 4.1777381,19.386842 c 2.1840482,-3.638711 5.2744308,-6.72932 8.9220969,-8.922746 1.069509,-0.6431176 1.507275,-0.8417087 2.049566,-0.9297693 0.2432,-0.039493 0.351602,-0.045117 0.471551,-0.024447 0.147031,0.025334 0.425629,-0.00939 0.619204,-0.077254 0.03084,-0.010726 -0.01825,0.031187 -0.109092,0.093333 -0.119076,0.081449 -0.206158,0.1742484 -0.312023,0.3325232 -0.264619,0.3956231 -0.689408,0.7277251 -1.555596,1.2161761 -4.6582941,2.626839 -8.4354971,6.791845 -10.5641659,11.648769 -0.8873221,2.024578 -1.330009,3.209044 -1.6714402,4.472152 -0.6167129,2.281493 -0.886901,4.509317 -0.8501317,7.009644 0.018028,1.226156 0.087083,2.072199 0.2744043,3.361892 0.030013,0.206682 0.050132,0.380237 0.044692,0.385676 -0.00546,0.0055 -0.056676,-0.195206 -0.1138527,-0.44588 z m 50.2839578,0.447673 c 0,-0.0094 0.02437,-0.185025 0.05417,-0.390202 0.186901,-1.28694 0.255989,-2.133874 0.274005,-3.359158 0.03677,-2.500332 -0.233419,-4.728156 -0.850133,-7.009644 -0.34143,-1.263112 -0.784117,-2.447576 -1.671439,-4.472153 -2.12867,-4.856928 -5.905873,-9.02193 -10.564165,-11.648772 -0.86619,-0.48845 -1.290979,-0.820552 -1.555601,-1.216174 -0.105874,-0.1582759 -0.192945,-0.2510767 -0.31202,-0.3325242 -0.09085,-0.062145 -0.139941,-0.1041427 -0.109092,-0.093323 0.193574,0.067832 0.472166,0.102588 0.619202,0.077254 0.119942,-0.02066 0.228352,-0.015004 0.471553,0.024447 0.542291,0.088064 0.980057,0.2866507 2.049563,0.9297692 3.647669,2.193423 6.738052,5.284033 8.922099,8.922744 0.780058,1.299613 1.607597,3.002009 1.983114,4.079616 0.549933,1.578141 1.044229,3.850599 1.2472,5.733888 0.116622,1.082062 0.128519,1.345485 0.127186,2.817878 -0.0014,1.246895 -0.0099,1.542806 -0.06343,2.167994 -0.06941,0.808608 -0.161124,1.52983 -0.287713,2.2621 -0.106864,0.618201 -0.334504,1.643251 -0.334504,1.506276 z M 26.450661,37.142273 c -0.0214,-0.03469 -0.05457,-0.173778 -0.07374,-0.309061 -0.02979,-0.210242 -0.02886,-0.254966 0.0062,-0.307887 0.03709,-0.05585 0.03543,-0.0696 -0.01687,-0.140336 -0.04766,-0.06446 -0.05282,-0.09212 -0.02896,-0.155323 0.03094,-0.08196 0.0043,-0.209521 -0.05987,-0.28604 -0.04512,-0.05384 -0.09764,-0.303077 -0.09764,-0.463367 0,-0.100584 0.01303,-0.13264 0.06822,-0.168846 0.05338,-0.03498 0.08096,-0.03788 0.126747,-0.01334 0.112463,0.06019 0.114977,-0.0044 0.0041,-0.106745 -0.0776,-0.07165 -0.133184,-0.161263 -0.183286,-0.295451 -0.08704,-0.233151 -0.08869,-0.274196 -0.01363,-0.342076 0.05383,-0.04871 0.06398,-0.04939 0.134321,-0.0091 0.08318,0.04775 0.199998,0.0198 0.199998,-0.04782 0,-0.05324 -0.11344,-0.123473 -0.1994,-0.123473 -0.121139,0 -0.186468,-0.08103 -0.248208,-0.307862 -0.07029,-0.258273 -0.07033,-0.267706 -9.54e-4,-0.337025 0.07298,-0.07298 0.110771,-0.07073 0.235664,0.0141 0.123427,0.08376 0.128835,0.08455 0.128835,0.01892 0,-0.06683 -0.105409,-0.163807 -0.204888,-0.188504 -0.0433,-0.01073 -0.09774,-0.04855 -0.120974,-0.08403 -0.0567,-0.08655 -0.08237,-0.351616 -0.04146,-0.428083 0.06678,-0.124777 0.116682,-0.12099 0.334718,0.02538 0.112761,0.0757 0.231051,0.137623 0.262868,0.137623 0.03181,0 0.112607,-0.05047 0.179528,-0.112153 0.212309,-0.195701 0.309546,-0.139274 0.277537,0.161044 -0.02501,0.234859 -0.04266,0.268342 -0.18269,0.347043 -0.09715,0.0546 -0.112105,0.07599 -0.112105,0.160328 0,0.09251 0.0026,0.09502 0.05128,0.05092 0.130775,-0.118349 0.22911,-0.02327 0.22911,0.221524 0,0.157972 -0.0096,0.190639 -0.07972,0.269035 -0.05819,0.06513 -0.103997,0.08923 -0.16957,0.08923 -0.07488,0 -0.08844,0.0096 -0.0815,0.05813 0.0047,0.03268 0.03291,0.06201 0.06441,0.067 0.109688,0.01736 0.212856,0.07028 0.241584,0.123957 0.03062,0.0572 0.0079,0.435081 -0.02973,0.496087 -0.01132,0.01834 -0.04787,0.03542 -0.08119,0.03794 -0.07972,0.0061 -0.08253,0.129578 -0.0045,0.196413 0.107245,0.09183 0.05904,0.545961 -0.06249,0.588786 -0.02723,0.0095 -0.02408,0.03268 0.01349,0.09799 0.02699,0.04697 0.04908,0.11817 0.04908,0.158205 0,0.07975 -0.08772,0.184935 -0.154212,0.184935 -0.06568,0 -0.04941,0.08429 0.02805,0.145199 0.06036,0.04747 0.0701,0.0777 0.0701,0.217551 0,0.192505 -0.05665,0.282043 -0.232025,0.366778 -0.146684,0.07087 -0.178466,0.0698 -0.226152,-0.0076 z m 3.205961,-0.319332 c 0,-0.06273 -0.0078,-0.19476 -0.01762,-0.293404 -0.01333,-0.13526 -0.0096,-0.171914 0.01485,-0.149093 0.01786,0.01666 0.04387,0.1302 0.05782,0.252348 0.02058,0.180317 0.01778,0.229805 -0.01485,0.263137 -0.03504,0.0358 -0.04019,0.02643 -0.04019,-0.07299 z m 1.154006,-0.542855 c 0,-0.03855 0.0064,-0.05433 0.01409,-0.03504 0.0077,0.01926 0.0077,0.05083 0,0.0701 -0.0077,0.01927 -0.01409,0.0034 -0.01409,-0.03504 z m -4.364424,-3.410939 c -0.138791,-0.07018 -0.293354,-0.16664 -0.343473,-0.21437 -0.08024,-0.07642 -0.09112,-0.104397 -0.09112,-0.234117 0,-0.219116 0.05367,-0.430628 0.128201,-0.505154 0.03604,-0.03603 0.07861,-0.06552 0.09463,-0.06552 0.02252,0 0.170065,0.185132 0.352511,0.442268 0.02365,0.03335 0.100752,-0.0489 0.155611,-0.166042 0.108138,-0.23088 0.263113,-0.313893 0.345571,-0.185096 0.02222,0.03469 0.049,0.146197 0.05952,0.247793 0.01702,0.164376 0.0112,0.20033 -0.0528,0.326619 -0.145608,0.287351 -0.296482,0.485972 -0.366593,0.482622 -0.01635,-6.36e-4 -0.143243,-0.05883 -0.282037,-0.129003 z m -0.02319,-1.065622 c -0.216524,-0.30793 -0.528163,-0.942483 -0.533396,-1.086092 -0.0051,-0.14123 0.04237,-0.166472 0.07487,-0.03977 0.03427,0.133563 0.134775,0.253533 0.302683,0.36128 0.179624,0.115263 0.36583,0.126427 0.546243,0.03275 0.126518,-0.06568 0.190454,-0.147533 0.25239,-0.323065 0.04116,-0.116658 0.07954,-0.159166 0.144441,-0.159964 0.054,-6.35e-4 0.0418,0.119398 -0.03187,0.313731 -0.240351,0.63415 -0.451783,1.059353 -0.542799,1.091599 -0.05558,0.01968 -0.08045,-0.0026 -0.212576,-0.190486 z m -0.05969,-3.08234 c -0.14826,-0.05429 -0.239575,-0.144532 -0.239575,-0.236762 0,-0.0414 0.04571,-0.17423 0.101597,-0.295168 l 0.101597,-0.219885 -0.03242,-0.231784 c -0.01784,-0.127472 -0.05094,-0.284242 -0.07355,-0.348358 -0.05808,-0.164574 -0.05139,-0.242013 0.02769,-0.321091 0.05199,-0.05199 0.09868,-0.06883 0.190909,-0.06883 0.204239,0 0.27478,0.09941 0.186898,0.263374 -0.04392,0.08196 -0.05408,0.158225 -0.05408,0.405912 v 0.304988 l 0.154212,0.172826 c 0.09072,0.101691 0.154213,0.198992 0.154213,0.236377 0,0.06407 -0.148275,0.323282 -0.206787,0.361492 -0.04897,0.03198 -0.188605,0.02159 -0.310682,-0.0231 z M 25.69044,28.523386 c -0.06101,-0.0799 -0.09942,-0.161579 -0.09942,-0.211406 0,-0.105446 0.09048,-0.283939 0.227339,-0.448498 0.06003,-0.07215 0.109127,-0.150274 0.109127,-0.173587 0,-0.08923 -0.06372,-0.07478 -0.167957,0.03813 -0.112988,0.122396 -0.180625,0.136472 -0.235595,0.04908 -0.02464,-0.03919 -0.01424,-0.08146 0.05054,-0.205266 0.167894,-0.320847 0.521247,-0.438703 0.521247,-0.173855 0,0.04585 0.02064,0.118326 0.0459,0.16104 0.06695,0.113321 0.03068,0.254381 -0.105994,0.412297 -0.06256,0.0723 -0.13282,0.171403 -0.15611,0.220241 -0.04012,0.08413 -0.0385,0.0949 0.03087,0.204767 0.0813,0.128806 0.08929,0.173902 0.03956,0.223629 -0.06947,0.06947 -0.157788,0.03661 -0.259476,-0.09656 z m 1.372164,-0.0832 c -0.116455,-0.125669 -0.117123,-0.178475 -0.0034,-0.282564 0.0557,-0.05105 0.119504,-0.09282 0.141759,-0.09282 0.06928,0 0.134744,0.08683 0.11412,0.151379 -0.01022,0.0324 -0.02527,0.09676 -0.03318,0.143032 -0.01363,0.07983 -0.07503,0.154212 -0.127276,0.154212 -0.01318,0 -0.05456,-0.03295 -0.09188,-0.07322 z m -0.10311,-0.511409 c -0.02015,-0.02855 -0.07627,-0.07232 -0.12473,-0.09729 -0.161533,-0.08322 -0.204376,-0.370985 -0.07766,-0.521589 0.08983,-0.106743 0.135458,-0.107697 0.293433,-0.0061 0.183885,0.118266 0.256779,0.207887 0.245964,0.302444 -0.0073,0.06367 -0.02493,0.08185 -0.08626,0.0889 -0.08769,0.01012 -0.08583,0.0066 -0.05105,0.09805 0.05266,0.138502 -0.11655,0.253381 -0.199701,0.135579 z m 0.117576,-0.267319 c 0,-0.0059 -0.03154,-0.03148 -0.0701,-0.05673 -0.03855,-0.02527 -0.0701,-0.03494 -0.0701,-0.02152 0,0.01349 0.02839,0.03809 0.06309,0.05483 0.0761,0.0367 0.0771,0.03701 0.0771,0.02343 z m -1.303221,-0.46494 c -0.01096,-0.01769 -0.01227,-0.06247 -0.0028,-0.09952 0.01073,-0.04285 -0.0083,-0.121337 -0.05266,-0.215704 -0.311175,-0.663437 -0.544698,-1.683149 -0.631133,-2.755921 -0.0842,-1.045056 -0.143518,-1.349026 -0.321052,-1.645291 -0.115562,-0.192837 -0.256592,-0.272582 -0.543332,-0.307217 -0.407411,-0.04921 -0.457287,-0.08742 -0.714946,-0.547657 -0.20639,-0.368674 -0.372544,-0.766236 -0.560492,-1.341119 -0.350412,-1.071836 -0.425889,-1.473575 -0.424064,-2.257106 0.002,-0.86521 0.0895,-1.393221 0.390256,-2.355242 0.229557,-0.734295 0.297502,-1.216355 0.213626,-1.51566 -0.05678,-0.202604 -0.208338,-0.38517 -0.388058,-0.467453 -0.14288,-0.06542 -0.177734,-0.07005 -0.411473,-0.05481 -0.140456,0.0091 -0.413082,0.04847 -0.605849,0.08733 -0.371723,0.07498 -0.776988,0.0934 -0.956612,0.04351 -0.362472,-0.100689 -0.498357,-0.432856 -0.33245,-0.81267 0.03705,-0.08481 0.295706,-0.45703 0.574795,-0.827137 0.54369,-0.721013 0.717007,-0.985563 0.888903,-1.356824 0.15117,-0.326493 0.198964,-0.531109 0.184083,-0.7881383 C 22.064751,9.7065916 21.946825,9.4741419 21.70362,9.2368799 21.255246,8.7994701 20.819469,8.6896012 19.780763,8.7520879 c -0.441677,0.026576 -0.597106,0.026075 -0.771062,-0.0024 -0.38044,-0.062438 -0.644525,-0.2201427 -0.7672,-0.4581534 -0.194744,-0.3778279 -0.17817,-1.1071012 0.04478,-1.9703044 0.20305,-0.7861604 0.770254,-2.3869256 1.208286,-3.4100287 0.215172,-0.5025737 0.232759,-0.5573625 0.204729,-0.6377654 -0.02665,-0.076432 -0.01485,-0.1347903 0.08965,-0.445564 0.141639,-0.4210115 0.230644,-0.5398548 0.404309,-0.5398548 0.0837,0 0.125685,0.021453 0.213094,0.1088532 0.163357,0.1633573 0.14282,0.2771905 -0.12164,0.674006 -0.161556,0.2424149 -0.269516,0.3667213 -0.318498,0.3667213 -0.09499,0 -0.861335,1.962125 -1.253891,3.2104173 -0.22079,0.7020927 -0.254602,0.8321167 -0.327961,1.2612185 -0.119276,0.6977098 -0.05788,1.2229373 0.166638,1.4257893 0.205354,0.1855251 0.290272,0.1981545 1.347358,0.2003718 0.895953,0.00177 0.948994,0.00501 1.149582,0.066173 0.301645,0.092081 0.53738,0.2339335 0.790206,0.4754807 0.177318,0.1694111 0.244407,0.2583513 0.339268,0.4497898 0.114488,0.2310599 0.118218,0.2471337 0.117288,0.5071039 -0.0014,0.333855 -0.04816,0.499276 -0.267322,0.941405 -0.189763,0.382831 -0.320556,0.577651 -0.903681,1.346079 -0.228202,0.300722 -0.445728,0.612953 -0.483391,0.693851 -0.239822,0.515115 0.155569,0.685166 1.122615,0.482819 0.503011,-0.105243 0.839797,-0.108389 1.051448,-0.0099 0.249578,0.116265 0.433437,0.334937 0.516348,0.614142 0.09966,0.335554 0.03747,0.803872 -0.219553,1.653487 -0.305055,1.008404 -0.395861,1.595599 -0.372898,2.411316 0.01987,0.70636 0.110844,1.139507 0.456552,2.174222 0.234391,0.701531 0.618839,1.472825 0.77068,1.546176 0.03794,0.01831 0.169822,0.04599 0.293073,0.06149 0.374459,0.04709 0.55422,0.157301 0.715076,0.438447 0.189275,0.330823 0.252952,0.648867 0.33671,1.681778 0.04242,0.523108 0.09808,0.903551 0.198517,1.356905 0.154855,0.698953 0.243918,0.978648 0.436925,1.372094 0.0807,0.164519 0.111236,0.202807 0.152991,0.191885 0.08273,-0.02163 0.06446,0.08069 -0.02588,0.145017 -0.09824,0.06995 -0.272534,0.1056 -0.299893,0.06131 z m 1.120971,0.0073 c -0.15289,-0.03891 -0.158044,-0.09724 -0.03039,-0.343891 0.318458,-0.615378 0.571527,-1.684721 0.660433,-2.790653 0.08152,-1.014082 0.142443,-1.323898 0.32597,-1.657943 0.165927,-0.302004 0.341775,-0.413961 0.726091,-0.462283 0.123245,-0.01549 0.255131,-0.04318 0.293074,-0.06149 0.151841,-0.07336 0.536285,-0.844644 0.770681,-1.546176 0.342719,-1.025755 0.436046,-1.467299 0.456962,-2.16196 0.02467,-0.819457 -0.06395,-1.389038 -0.383253,-2.462991 -0.206128,-0.693321 -0.26456,-1.00542 -0.249035,-1.330184 0.01988,-0.415641 0.222415,-0.742932 0.555772,-0.898092 0.211683,-0.09852 0.548573,-0.09537 1.051449,0.0099 0.790748,0.165459 1.192257,0.08564 1.191365,-0.23683 -3.18e-4,-0.165196 -0.123171,-0.37758 -0.525134,-0.908882 -0.625154,-0.826305 -0.6398,-0.846972 -0.804754,-1.135781 -0.433475,-0.758932 -0.506204,-1.2263408 -0.265391,-1.7055986 0.205887,-0.40975 0.641256,-0.7636182 1.118896,-0.9094347 0.200585,-0.061238 0.253631,-0.064295 1.149583,-0.066173 1.057084,-0.0023 1.142003,-0.014848 1.347357,-0.2003718 0.26804,-0.2421751 0.299948,-0.9357701 0.08493,-1.8458779 C 34.229495,5.8967635 33.720587,4.3979827 33.350742,3.4889111 33.023644,2.6848979 32.913758,2.4528092 32.846093,2.4230347 32.770601,2.3898105 32.487941,2.0042713 32.390294,1.8013239 c -0.09804,-0.2037504 -0.09126,-0.2744801 0.03886,-0.4045844 0.08742,-0.087401 0.129397,-0.1088533 0.213093,-0.1088533 0.173666,0 0.262671,0.1188378 0.404308,0.5398549 0.104552,0.3107721 0.116288,0.3691242 0.08965,0.445564 -0.02805,0.080402 -0.01049,0.1351992 0.204734,0.6377654 0.438029,1.0231046 1.005234,2.6238683 1.208284,3.4100286 0.222953,0.8632048 0.239526,1.5924766 0.04478,1.9703046 -0.122671,0.2380111 -0.38676,0.3957151 -0.767199,0.4581538 -0.173955,0.028548 -0.329385,0.029038 -0.771061,0.0024 -1.038708,-0.062479 -1.474484,0.047392 -1.92286,0.484792 -0.438828,0.4280984 -0.495456,0.8776445 -0.192878,1.5311475 0.171895,0.371259 0.345215,0.63581 0.888905,1.356822 0.279088,0.370107 0.537744,0.742321 0.574796,0.827136 0.165906,0.379816 0.03001,0.711986 -0.332452,0.812671 -0.179622,0.04988 -0.584887,0.03148 -0.95661,-0.04351 -0.192767,-0.03888 -0.4654,-0.07817 -0.605849,-0.08733 -0.233739,-0.01522 -0.268593,-0.0106 -0.411478,0.05481 -0.179718,0.08228 -0.33128,0.264848 -0.388054,0.467451 -0.08387,0.299311 -0.01591,0.781368 0.213622,1.515663 0.30075,0.962023 0.388239,1.490034 0.390257,2.35524 0.002,0.783534 -0.07364,1.185274 -0.424062,2.257104 -0.187946,0.574888 -0.354099,0.97245 -0.560495,1.341122 -0.257653,0.460239 -0.307529,0.498444 -0.714946,0.547656 -0.286737,0.03464 -0.427767,0.114382 -0.543328,0.307217 -0.177537,0.296265 -0.236855,0.600235 -0.321055,1.645291 -0.08567,1.063324 -0.306211,2.033517 -0.624282,2.746317 -0.03404,0.0763 -0.06189,0.18355 -0.06189,0.238329 0,0.104659 -0.03939,0.126625 -0.168233,0.09383 z"
       id="path1" /></g></svg>
