<?xml version="1.0" encoding="UTF-8" standalone="no"?>
<!-- Created with Inkscape (http://www.inkscape.org/) -->

<svg
   width="200"
   height="200"
   viewBox="0 0 52.916665 52.916666"
   version="1.1"
   id="svg1"
   xml:space="preserve"
   inkscape:export-filename="butterfly.svg"
   inkscape:export-xdpi="96"
   inkscape:export-ydpi="96"
   xmlns:inkscape="http://www.inkscape.org/namespaces/inkscape"
   xmlns:sodipodi="http://sodipodi.sourceforge.net/DTD/sodipodi-0.dtd"
   xmlns="http://www.w3.org/2000/svg"
   xmlns:svg="http://www.w3.org/2000/svg"><sodipodi:namedview
     id="namedview1"
     pagecolor="#ffffff"
     bordercolor="#000000"
     borderopacity="0.25"
     inkscape:showpageshadow="2"
     inkscape:pageopacity="0.0"
     inkscape:pagecheckerboard="0"
     inkscape:deskcolor="#d1d1d1"
     inkscape:document-units="mm" /><defs
     id="defs1" /><g
     inkscape:label="Layer 1"
     inkscape:groupmode="layer"
     id="layer1"><path
       style="fill:#d45500;stroke-width:0.123492"
       d="m 18.498825,52.581479 c -0.076,-0.03238 -0.145024,-0.09839 -0.196042,-0.187447 -0.07409,-0.129354 -0.07866,-0.167295 -0.07743,-0.643896 8.04e-4,-0.339295 0.01913,-0.592712 0.05534,-0.767833 0.02974,-0.143763 0.07059,-0.38637 0.09081,-0.539116 0.04012,-0.302912 0.138472,-0.776177 0.308996,-1.486659 0.137966,-0.574806 0.188222,-0.942066 0.191893,-1.40234 0.0024,-0.307288 -0.0086,-0.389219 -0.07187,-0.541747 -0.125088,-0.300703 -0.315728,-0.457435 -0.556401,-0.457435 -0.186892,0 -0.287524,0.04761 -0.450852,0.213276 -0.07924,0.08037 -0.156456,0.146135 -0.171603,0.146135 -0.01515,0 -0.06224,-0.02813 -0.104667,-0.06248 l -0.07713,-0.06249 0.05409,-0.190742 c 0.02975,-0.104908 0.09439,-0.315719 0.143639,-0.468468 0.160536,-0.497894 0.120496,-1.11866 -0.09134,-1.416153 -0.08174,-0.114792 -0.398346,-0.269719 -0.610944,-0.298961 -0.208936,-0.02874 -0.392646,0.02548 -0.560035,0.165355 -0.145507,0.121566 -0.243996,0.13466 -0.303138,0.04033 -0.0559,-0.08918 0.02112,-0.439539 0.168559,-0.767011 0.170154,-0.377884 0.213245,-0.60706 0.196542,-1.045331 -0.01872,-0.490966 -0.131097,-0.694787 -0.439196,-0.79647 -0.184185,-0.0608 -0.330615,-0.01637 -0.386442,0.117249 -0.03926,0.09396 -0.06395,0.112843 -0.147537,0.112843 -0.151117,0 -0.186156,-0.104267 -0.116063,-0.345369 0.06292,-0.216437 0.241203,-0.584329 0.384055,-0.792507 0.130417,-0.190049 0.296692,-0.5557 0.419802,-0.923153 0.08665,-0.258663 0.101213,-0.349529 0.100605,-0.62798 -3.69e-4,-0.179054 -0.0141,-0.338954 -0.03047,-0.355335 -0.01791,-0.0179 -0.09977,0.02282 -0.205581,0.102316 -0.09669,0.07264 -0.200873,0.132091 -0.23152,0.132091 -0.06799,0 -0.158412,-0.0855 -0.158412,-0.14977 0,-0.02589 0.108124,-0.153498 0.240283,-0.283562 0.207736,-0.204446 0.728243,-0.932761 0.901892,-1.261963 0.03849,-0.07296 0.03618,-0.07682 -0.03589,-0.0605 -0.523767,0.118597 -0.62431,0.112511 -1.317612,-0.07972 -0.639369,-0.177307 -0.909295,-0.335412 -1.438662,-0.842696 -0.185749,-0.178 -0.393443,-0.344421 -0.481327,-0.385677 -0.122348,-0.05744 -0.171446,-0.105826 -0.235411,-0.232062 -0.120418,-0.237634 -0.447312,-0.640375 -0.759173,-0.935319 L 12.224198,34.9395 12.132355,34.622552 C 12.081832,34.448239 12.003397,34.242395 11.958041,34.165127 11.798277,33.892944 11.398979,33.41031 11.216005,33.268219 11.034126,33.12698 11.029359,33.118997 10.941945,32.809537 10.819029,32.374393 10.727835,32.197169 10.48173,31.915186 10.297484,31.704088 10.256001,31.631318 10.166221,31.361729 10.109373,31.191005 10.026436,30.978605 9.9819284,30.88972 9.8779475,30.68206 9.572473,30.361594 9.4353853,30.316351 9.3394497,30.284696 9.3254145,30.263152 9.291887,30.09624 9.2281636,29.778952 9.135574,29.636711 8.7322863,29.23658 L 8.352214,28.859478 8.264893,28.579409 C 8.1716667,28.280401 8.0698396,28.153689 7.7557367,27.945826 7.5968156,27.840655 7.5434726,27.739269 7.4775405,27.417086 7.4509575,27.287192 7.367055,27.051941 7.2910865,26.894306 7.1733475,26.649995 7.1527506,26.576349 7.1515253,26.395318 c -0.00155,-0.230011 0.069621,-0.411609 0.2135128,-0.544727 0.1173456,-0.108555 0.5153314,-0.324282 1.0569088,-0.572885 0.3978342,-0.182616 0.6162113,-0.257841 1.1599197,-0.399555 0.7771904,-0.202574 0.9141394,-0.231142 1.3559614,-0.282868 0.445119,-0.05212 1.386005,-0.05289 1.650025,-0.0013 0.631677,0.123288 1.281224,0.281672 1.453983,0.354535 0.107826,0.04548 0.306315,0.115035 0.441096,0.154577 0.134779,0.03955 0.406787,0.138906 0.604463,0.220809 0.197677,0.0819 0.506443,0.204312 0.68615,0.272016 0.63186,0.238048 1.968855,0.843095 2.760932,1.249447 0.729113,0.374046 2.065872,1.165458 2.678967,1.586045 0.731326,0.501695 2.467686,1.92133 3.388344,2.77028 0.39885,0.367787 0.997568,0.99874 1.150822,1.212786 0.101574,0.141859 0.166137,0.174095 0.166137,0.08293 0,-0.02022 -0.0329,-0.103893 -0.07311,-0.185943 -0.07777,-0.158677 -0.09766,-0.490331 -0.0501,-0.835332 0.06834,-0.495702 0.08877,-0.577108 0.188845,-0.751995 l 0.106037,-0.185332 -0.06813,-0.152137 c -0.36523,-0.815635 -0.624091,-1.957309 -0.723472,-3.190744 -0.09812,-1.217818 -0.167242,-1.572038 -0.374128,-1.917281 -0.134663,-0.224716 -0.299007,-0.317642 -0.633149,-0.358004 -0.474765,-0.05734 -0.532885,-0.101873 -0.833139,-0.638192 -0.240513,-0.42962 -0.434133,-0.892907 -0.65315,-1.562827 -0.408337,-1.249023 -0.496294,-1.717177 -0.494168,-2.63024 0.0025,-1.008237 0.104313,-1.623537 0.454772,-2.744597 0.267507,-0.85568 0.346683,-1.41743 0.248939,-1.766221 -0.06617,-0.236093 -0.242776,-0.448846 -0.452205,-0.544725 -0.166505,-0.07623 -0.207117,-0.08164 -0.479498,-0.06388 -0.16367,0.01061 -0.481374,0.05647 -0.706005,0.101781 -0.433172,0.08737 -0.905437,0.108843 -1.114754,0.0507 -0.42239,-0.117333 -0.580743,-0.504416 -0.387407,-0.947019 0.04318,-0.09884 0.344587,-0.532581 0.669814,-0.963875 0.633569,-0.840204 0.83554,-1.148492 1.035853,-1.581127 0.176162,-0.380465 0.231855,-0.618909 0.214516,-0.918427 C 21.776683,10.393478 21.639244,10.1226 21.355833,9.8461169 20.833337,9.3363946 20.32552,9.2083644 19.115099,9.2811824 18.600404,9.3121473 18.419283,9.3115701 18.216571,9.2783993 17.773239,9.2056462 17.465499,9.0218636 17.322541,8.744506 17.095605,8.3042169 17.114918,7.4543836 17.374729,6.4484798 17.61135,5.5323565 18.272321,3.6669632 18.782762,2.4747261 19.033505,1.8890687 19.054001,1.8252224 19.021339,1.731527 18.990299,1.64245 19.003959,1.5744506 19.125807,1.2123057 c 0.165055,-0.49060907 0.268774,-0.6291016 0.471145,-0.6291016 0.09753,0 0.146468,0.0250008 0.248323,0.12684977 0.190362,0.19036495 0.16642,0.32301793 -0.14175,0.78542793 -0.188261,0.2824914 -0.314069,0.4273461 -0.371145,0.4273461 -0.110695,0 -1.003728,2.2864947 -1.461178,3.7411482 -0.25729,0.8181573 -0.296694,0.9696783 -0.38218,1.4697121 -0.138999,0.8130553 -0.06746,1.4251089 0.194186,1.6614945 0.239302,0.2161968 0.338257,0.2309154 1.570096,0.2334996 1.044065,0.00196 1.105877,0.00577 1.339624,0.077103 0.351513,0.1073103 0.626221,0.2726077 0.92084,0.5540874 0.206634,0.1974147 0.28481,0.3010585 0.395353,0.5241453 0.133421,0.269258 0.137756,0.287986 0.136678,0.590933 -0.0013,0.389049 -0.05612,0.581817 -0.311513,1.097034 -0.221137,0.446121 -0.373549,0.673145 -1.053072,1.56861 -0.26593,0.350435 -0.519416,0.714279 -0.563306,0.808549 -0.279468,0.60027 0.181288,0.798435 1.308198,0.562638 0.58617,-0.122653 0.978629,-0.126308 1.225271,-0.01143 0.290836,0.13548 0.505087,0.390307 0.601709,0.715666 0.116124,0.39103 0.04365,0.936763 -0.255849,1.926834 -0.355484,1.175103 -0.461307,1.859377 -0.434547,2.809945 0.02317,0.823127 0.129161,1.327878 0.532027,2.533645 0.273144,0.817509 0.721143,1.716309 0.898082,1.801782 0.04422,0.02136 0.197904,0.05361 0.341525,0.07167 0.436363,0.05486 0.645842,0.183307 0.833289,0.510931 0.220569,0.385511 0.294768,0.75613 0.392371,1.959797 0.09715,1.198098 0.345678,2.306154 0.694986,3.098611 0.06471,0.14682 0.07664,0.156866 0.168941,0.142266 0.503746,-0.07969 0.706502,-0.09511 0.831898,-0.06329 0.128685,0.03267 0.137069,0.03016 0.180445,-0.0537 0.137775,-0.26643 0.333338,-0.893603 0.459573,-1.473858 0.130501,-0.599861 0.193789,-1.028232 0.243777,-1.650027 0.095,-1.181725 0.165982,-1.542759 0.379853,-1.932027 0.19336,-0.351928 0.398276,-0.482393 0.846126,-0.538702 0.143623,-0.01807 0.297311,-0.05031 0.341524,-0.07167 0.17694,-0.08547 0.62494,-0.984273 0.898083,-1.801782 0.399376,-1.195316 0.50813,-1.709854 0.532503,-2.519352 0.02877,-0.954927 -0.07453,-1.618671 -0.446606,-2.870163 -0.240205,-0.807932 -0.3083,-1.171631 -0.290207,-1.550078 0.02317,-0.484352 0.259184,-0.865752 0.647648,-1.046562 0.246678,-0.11481 0.639261,-0.11113 1.225272,0.01147 0.921467,0.192809 1.389352,0.09979 1.388314,-0.275983 -4.05e-4,-0.192504 -0.143534,-0.440002 -0.611948,-1.059133 -0.728499,-0.962908 -0.745566,-0.986994 -0.93779,-1.323542 -0.505132,-0.884394 -0.589885,-1.429075 -0.309266,-1.987559 0.239924,-0.4774918 0.747269,-0.889857 1.303867,-1.0597775 0.233748,-0.071362 0.295562,-0.074918 1.339624,-0.077103 1.231839,-0.00237 1.330794,-0.017307 1.570097,-0.2334955 0.312336,-0.2821793 0.349519,-1.0904329 0.09896,-2.1509967 C 35.952587,5.953964 35.359554,4.2074086 34.928573,3.1480566 34.547394,2.2111251 34.419345,1.9406723 34.340497,1.9059736 34.252518,1.8672712 33.923135,1.4179821 33.809345,1.1814871 33.695101,0.94405141 33.703021,0.86163021 33.854633,0.71001727 c 0.101862,-0.10185745 0.150786,-0.1268508 0.248319,-0.1268508 0.202378,0 0.306095,0.138488 0.47115,0.62910163 0.121832,0.3621459 0.135513,0.4301457 0.104466,0.5192214 -0.03267,0.093696 -0.01215,0.1575417 0.238577,0.7431953 0.51044,1.1922408 1.171414,3.057634 1.408033,3.9737575 0.259808,1.0059037 0.279121,1.8557371 0.05217,2.2960256 -0.142958,0.2773576 -0.450699,0.4611298 -0.894031,0.5338912 -0.202711,0.033264 -0.383833,0.033841 -0.898529,0.00278 -1.210418,-0.072815 -1.718237,0.055209 -2.240733,0.5649345 -0.511372,0.4988724 -0.577363,1.0227334 -0.224768,1.7842674 0.200317,0.432635 0.402284,0.740917 1.035858,1.581128 0.325221,0.431293 0.626642,0.865038 0.669814,0.963875 0.193334,0.442602 0.03496,0.829684 -0.387406,0.947013 -0.209319,0.05814 -0.681582,0.03666 -1.114756,-0.05071 -0.224629,-0.0453 -0.542334,-0.0911 -0.706003,-0.10178 -0.272382,-0.01776 -0.312993,-0.01236 -0.479498,0.06388 -0.209431,0.09588 -0.386045,0.308628 -0.452207,0.544727 -0.09775,0.348785 -0.01856,0.910535 0.248936,1.76622 0.350467,1.121058 0.452421,1.736359 0.454775,2.744597 0.002,0.913059 -0.08582,1.381215 -0.494167,2.63024 -0.219018,0.669919 -0.412637,1.133204 -0.653151,1.562827 -0.300253,0.536321 -0.358374,0.580843 -0.833138,0.63819 -0.334141,0.04036 -0.498487,0.13329 -0.63315,0.358005 -0.206885,0.345239 -0.276007,0.699464 -0.374128,1.917282 -0.09941,1.233713 -0.358268,2.375257 -0.723668,3.191218 l -0.06832,0.152565 0.113335,0.141501 c 0.153729,0.191936 0.352794,0.590527 0.352794,0.706409 0,0.05198 0.02188,0.166695 0.04865,0.254912 0.07751,0.255476 0.06332,0.457518 -0.04873,0.694382 -0.05393,0.113989 -0.0896,0.220923 -0.07927,0.23763 0.04813,0.07787 0.282759,-0.127348 0.542041,-0.47408 0.587576,-0.785776 2.410531,-2.497657 2.961166,-2.780743 0.104865,-0.05392 0.285315,-0.166432 0.401003,-0.250042 0.11569,-0.08362 0.370436,-0.236669 0.5661,-0.340125 0.240532,-0.127179 0.372817,-0.217899 0.408422,-0.280095 0.03202,-0.05592 0.135937,-0.13379 0.265043,-0.198602 0.220453,-0.11066 0.476938,-0.25832 0.942419,-0.542549 0.205264,-0.12534 0.294047,-0.162243 0.359409,-0.149405 0.05588,0.01094 0.139212,-0.01094 0.233842,-0.06152 0.08087,-0.04322 0.37493,-0.200041 0.653475,-0.34849 0.278545,-0.148448 0.537165,-0.298189 0.574721,-0.332755 0.03756,-0.03457 0.36102,-0.211015 0.718821,-0.392104 0.357803,-0.181092 0.782875,-0.407745 0.944611,-0.503673 0.161735,-0.09594 0.463151,-0.247388 0.669809,-0.336572 0.365481,-0.157721 0.664527,-0.298879 0.930999,-0.439462 0.07176,-0.03785 0.314374,-0.12621 0.539118,-0.196326 1.240227,-0.386925 1.688714,-0.462344 2.7448,-0.461591 0.741834,4.06e-4 0.836687,0.0171 1.488073,0.259654 0.902268,0.336 1.165524,0.475785 1.598628,0.848856 0.508925,0.43838 0.561016,0.532885 0.594334,1.078237 0.01698,0.277688 0.0089,0.368424 -0.05385,0.604463 -0.0406,0.152748 -0.08548,0.384014 -0.09974,0.513921 -0.03372,0.307157 -0.148011,0.554503 -0.318707,0.689698 -0.182243,0.144339 -0.252707,0.269836 -0.34487,0.614221 -0.0942,0.351995 -0.130936,0.426228 -0.338279,0.683551 -0.285879,0.354787 -0.322836,0.436872 -0.475276,1.055653 -0.01933,0.07845 -0.09165,0.214131 -0.160719,0.301504 -0.306168,0.387335 -0.444304,0.639921 -0.485013,0.88687 -0.05042,0.305813 -0.09939,0.406822 -0.313697,0.647004 -0.09672,0.108402 -0.203599,0.251703 -0.237512,0.31846 -0.07169,0.141131 -0.232479,0.638097 -0.232746,0.719365 -8.04e-4,0.171695 -0.08409,0.327162 -0.292538,0.544515 -0.314029,0.327443 -0.574367,0.727031 -0.657717,1.009526 -0.113159,0.383518 -0.204978,0.517286 -0.57876,0.843172 -0.18787,0.163794 -0.365426,0.341175 -0.394574,0.394179 -0.167193,0.304058 -0.22982,0.377115 -0.384193,0.448182 -0.433153,0.199408 -0.580535,0.286009 -0.848403,0.498502 -0.397007,0.314931 -0.513723,0.384767 -0.790234,0.472828 -0.268526,0.08551 -0.698794,0.101038 -1.101495,0.03972 -0.125797,-0.01916 -0.356619,-0.0532 -0.51294,-0.07568 l -0.284218,-0.04085 0.28547,0.280531 c 0.400885,0.39395 0.595816,0.670867 0.771528,1.096045 0.153121,0.370506 0.17777,0.498186 0.109374,0.566583 -0.06878,0.06878 -0.147796,0.04257 -0.247942,-0.08226 -0.08779,-0.109428 -0.103086,-0.116784 -0.154353,-0.07424 -0.137759,0.114329 0.024,0.824835 0.342092,1.502656 0.238026,0.507206 0.27742,0.638008 0.249073,0.827043 -0.03202,0.213406 -0.134546,0.302693 -0.379462,0.330401 -0.15475,0.01749 -0.221205,0.04385 -0.312234,0.123776 -0.158437,0.139111 -0.274808,0.378998 -0.274808,0.566486 0,0.20428 0.116901,0.651445 0.217388,0.831541 0.133021,0.2384 0.24004,0.525937 0.24004,0.64492 0,0.151411 -0.0511,0.234657 -0.176125,0.286893 -0.09148,0.03821 -0.141899,0.03598 -0.378978,-0.01686 -0.426423,-0.09505 -0.683716,-0.03583 -0.856117,0.197046 -0.162301,0.219234 -0.207551,0.84291 -0.09254,1.275405 0.07776,0.292428 0.08314,0.490901 0.01678,0.619247 -0.100543,0.194425 -0.236285,0.208422 -0.468974,0.04836 -0.422152,-0.290389 -0.61534,-0.03561 -0.601088,0.792694 0.0061,0.356755 0.028,0.527002 0.12381,0.963878 0.064,0.291824 0.152428,0.741396 0.196517,0.999051 0.04409,0.257652 0.103163,0.566418 0.131282,0.686149 0.143789,0.612301 0.249203,1.197857 0.26585,1.476763 0.02856,0.478898 -0.09316,0.815709 -0.294838,0.815709 -0.172705,0 -0.318208,-0.277612 -0.45104,-0.860586 -0.147622,-0.64788 -0.330271,-1.210147 -0.510498,-1.57154 -0.273455,-0.548328 -0.700201,-0.945615 -1.149596,-1.070228 -0.295936,-0.08205 -0.425486,-0.07594 -0.577414,0.02732 -0.178346,0.121176 -0.287824,0.109097 -0.450501,-0.04974 -0.240856,-0.235149 -0.420776,-0.253611 -0.95835,-0.09834 -0.530532,0.153242 -0.647442,0.222244 -0.743124,0.438595 -0.188759,0.426819 -0.577086,0.239157 -0.699423,-0.338 -0.07566,-0.356954 -0.0086,-1.304437 0.127807,-1.80326 0.01718,-0.0629 0.03133,-0.209702 0.03145,-0.326235 l 1.23e-4,-0.211874 -0.075,0.140223 c -0.203614,0.380675 -0.461731,0.544514 -0.856201,0.543458 -0.186763,-4.05e-4 -0.26168,-0.01767 -0.408422,-0.09363 -0.391297,-0.202516 -0.434641,-0.264677 -0.571577,-0.819785 -0.06789,-0.275214 -0.08434,-0.405335 -0.07022,-0.555452 0.05438,-0.577939 0.12245,-1.205728 0.154945,-1.428984 0.02022,-0.138995 0.02804,-0.275515 0.01734,-0.303369 -0.01072,-0.02784 -0.006,-0.119973 0.01039,-0.204705 0.01641,-0.08473 0.05541,-0.408312 0.08666,-0.719061 0.05078,-0.50493 0.05256,-0.654302 0.01666,-1.404974 -0.03896,-0.815123 -0.04583,-0.868445 -0.231734,-1.803829 -0.105362,-0.530134 -0.201788,-1.043563 -0.214273,-1.140959 -0.0329,-0.256773 -0.225509,-0.966449 -0.288265,-1.06223 -0.06537,-0.09977 -0.1312,-0.08127 -0.186585,0.05245 -0.03299,0.07959 -0.03282,0.167932 8.03e-4,0.449637 0.03723,0.313252 0.03599,0.361607 -0.01183,0.454054 -0.02943,0.05691 -0.06784,0.103473 -0.08534,0.103473 -0.06377,0 -0.03521,0.328229 0.03744,0.430252 0.05777,0.08111 0.06849,0.140031 0.06457,0.354909 -0.0074,0.405594 -0.09459,1.11283 -0.252047,2.043921 -0.0491,0.29034 -0.07785,0.59187 -0.07786,0.81684 -3.2e-5,0.436718 -0.05488,1.042764 -0.102863,1.136725 -0.09889,0.193639 -0.343602,0.243734 -0.509346,0.104269 -0.133029,-0.111939 -0.239056,-0.479839 -0.287819,-0.998741 -0.0334,-0.355261 -0.112527,-0.954246 -0.148933,-1.127244 -0.0588,-0.279394 -0.322749,-1.366636 -0.359378,-1.480279 -0.0458,-0.142099 -0.09299,-0.793143 -0.06204,-0.855896 0.0133,-0.02696 0.03449,-0.105969 0.04706,-0.175576 0.02003,-0.110662 0.01131,-0.138668 -0.06923,-0.222807 -0.09164,-0.09576 -0.09209,-0.09843 -0.09209,-0.533785 0,-0.365363 -0.0091,-0.446579 -0.05466,-0.492311 -0.08463,-0.08482 -0.146269,-0.03436 -0.190296,0.155867 -0.02217,0.09573 -0.103749,0.4387 -0.181325,0.762172 -0.319496,1.332272 -0.421474,2.147954 -0.388063,3.104009 0.0359,1.02781 0.225927,2.204201 0.45394,2.810361 0.136703,0.363414 0.182013,0.646703 0.189708,1.186048 l 0.0073,0.512568 -0.1046,0.220829 c -0.127721,0.26963 -0.385226,0.549274 -0.608033,0.660304 -0.134336,0.06695 -0.213956,0.08275 -0.416912,0.08275 -0.515611,0 -0.819094,-0.213329 -0.949019,-0.667103 l -0.0569,-0.198752 -0.0016,0.14703 c -0.0024,0.203992 0.06235,0.448944 0.223429,0.843654 0.168123,0.41196 0.243777,0.749756 0.215976,0.964331 -0.03457,0.266773 -0.144221,0.508042 -0.307284,0.676103 -0.125488,0.129335 -0.19233,0.168066 -0.391807,0.227022 -0.287816,0.08507 -0.370429,0.0639 -0.514384,-0.131802 -0.109982,-0.14953 -0.396175,-0.38428 -0.58625,-0.480884 -0.144472,-0.07342 -0.353133,-0.123334 -0.455913,-0.109053 -0.093,0.01293 -0.312769,0.145928 -0.40595,0.245673 -0.09955,0.106567 -0.261537,0.112627 -0.393944,0.01475 -0.214382,-0.158502 -0.802426,0.02833 -1.16325,0.369586 -0.239045,0.226076 -0.60991,0.71643 -0.71374,0.943698 -0.175688,0.384543 -0.220166,0.646031 -0.242753,1.427176 -0.02079,0.718379 -0.02188,0.727205 -0.102687,0.807885 -0.104854,0.104711 -0.246966,0.128086 -0.395029,0.06498 z m 23.790196,-65.753363 c -0.08431,-0.08432 -0.08383,-0.178132 0.0016,-0.298004 0.08342,-0.117158 0.177082,-0.16988 0.256825,-0.14457 0.09686,0.03076 0.10386,0.138533 0.0158,0.243193 -0.04337,0.05154 -0.07885,0.116797 -0.07885,0.145022 0,0.0282 -0.02906,0.06687 -0.06459,0.08587 -0.05131,0.02747 -0.0782,0.02096 -0.130696,-0.03152 z"
       id="path2" /></g></svg>
