<?xml version="1.0" encoding="UTF-8" standalone="no"?>
<!-- Created with Inkscape (http://www.inkscape.org/) -->

<svg
   width="200"
   height="180"
   viewBox="0 0 52.916665 47.624998"
   version="1.1"
   id="svg1"
   xml:space="preserve"
   inkscape:export-filename="butterfly-white.svg"
   inkscape:export-xdpi="96"
   inkscape:export-ydpi="96"
   inkscape:version="1.3 (0e150ed6c4, 2023-07-21)"
   sodipodi:docname="butterfly.svg"
   xmlns:inkscape="http://www.inkscape.org/namespaces/inkscape"
   xmlns:sodipodi="http://sodipodi.sourceforge.net/DTD/sodipodi-0.dtd"
   xmlns="http://www.w3.org/2000/svg"
   xmlns:svg="http://www.w3.org/2000/svg"><sodipodi:namedview
     id="namedview1"
     pagecolor="#ffffff"
     bordercolor="#000000"
     borderopacity="0.25"
     inkscape:showpageshadow="2"
     inkscape:pageopacity="0.0"
     inkscape:pagecheckerboard="0"
     inkscape:deskcolor="#d1d1d1"
     inkscape:document-units="mm"
     inkscape:zoom="3.0003928"
     inkscape:cx="82.989134"
     inkscape:cy="105.65283"
     inkscape:window-width="1920"
     inkscape:window-height="1046"
     inkscape:window-x="0"
     inkscape:window-y="0"
     inkscape:window-maximized="1"
     inkscape:current-layer="layer1" /><defs
     id="defs1" /><g
     inkscape:label="Layer 1"
     inkscape:groupmode="layer"
     id="layer1"><path
       style="fill:#ffdd55;stroke-width:0.105651"
       d="m 19.053606,45.598879 c -0.06502,-0.0277 -0.124075,-0.08418 -0.167716,-0.160366 -0.06341,-0.110666 -0.06733,-0.143126 -0.06623,-0.550871 6.85e-4,-0.290276 0.01635,-0.50708 0.04732,-0.6569 0.02541,-0.122994 0.0604,-0.330552 0.07768,-0.461228 0.0343,-0.25915 0.118464,-0.664041 0.264348,-1.271879 0.118037,-0.491761 0.161027,-0.80596 0.164177,-1.199738 0.0018,-0.262893 -0.0076,-0.332988 -0.06151,-0.463479 -0.107017,-0.257261 -0.270116,-0.391348 -0.476023,-0.391348 -0.15989,0 -0.245981,0.04074 -0.385715,0.182463 -0.06775,0.06876 -0.133847,0.125022 -0.146809,0.125022 -0.01291,0 -0.05321,-0.02407 -0.08956,-0.05345 l -0.06597,-0.05347 0.0463,-0.163184 c 0.02541,-0.08975 0.08075,-0.270106 0.122888,-0.400788 0.137347,-0.425961 0.103091,-0.957042 -0.07811,-1.211557 -0.0699,-0.0982 -0.34079,-0.230751 -0.522675,-0.25577 -0.178754,-0.02459 -0.335921,0.0218 -0.47913,0.141467 -0.124479,0.104003 -0.208739,0.115206 -0.259344,0.0345 -0.04782,-0.07629 0.01806,-0.376037 0.144208,-0.6562 0.145576,-0.323289 0.182441,-0.519355 0.168154,-0.894308 -0.016,-0.420034 -0.11216,-0.594409 -0.375747,-0.681401 -0.157581,-0.05201 -0.282855,-0.01401 -0.33061,0.100312 -0.03362,0.08039 -0.05466,0.09655 -0.126224,0.09655 -0.129289,0 -0.159266,-0.08922 -0.09929,-0.295472 0.05381,-0.185168 0.206353,-0.499908 0.328565,-0.67801 0.111578,-0.162592 0.253826,-0.475417 0.35915,-0.789782 0.07417,-0.221294 0.0866,-0.299033 0.08606,-0.537255 -3.16e-4,-0.153184 -0.01205,-0.289984 -0.02608,-0.304 -0.01533,-0.01532 -0.08538,0.01952 -0.17588,0.08753 -0.08272,0.06213 -0.171848,0.113008 -0.198071,0.113008 -0.05817,0 -0.135525,-0.07316 -0.135525,-0.128134 0,-0.02215 0.0925,-0.13132 0.205567,-0.242595 0.177727,-0.174909 0.623029,-0.798001 0.771592,-1.079642 0.03295,-0.06242 0.03097,-0.06573 -0.03071,-0.05176 -0.448099,0.101462 -0.534114,0.09625 -1.127249,-0.06821 -0.547,-0.151691 -0.777932,-0.286953 -1.230814,-0.720948 -0.158914,-0.152284 -0.336608,-0.294662 -0.41179,-0.329958 -0.104674,-0.04914 -0.146682,-0.09054 -0.201399,-0.198534 -0.103023,-0.203303 -0.382685,-0.547859 -0.649491,-0.800192 l -0.23646,-0.223619 -0.07854,-0.271157 c -0.04323,-0.149124 -0.110339,-0.325229 -0.149148,-0.391334 -0.136678,-0.232859 -0.47829,-0.645766 -0.634825,-0.76733 -0.155604,-0.120833 -0.159684,-0.127662 -0.234465,-0.392414 -0.105162,-0.372276 -0.183179,-0.523897 -0.393732,-0.76514 -0.157621,-0.180599 -0.193118,-0.242857 -0.269927,-0.473499 -0.04859,-0.146058 -0.119586,-0.327772 -0.157665,-0.403814 -0.08896,-0.177659 -0.350296,-0.451828 -0.467581,-0.490534 -0.08205,-0.02709 -0.09409,-0.04552 -0.122766,-0.18831 -0.0545,-0.27145 -0.133729,-0.393141 -0.478754,-0.735464 l -0.325158,-0.322621 -0.07469,-0.239607 C 10.218502,24.808656 10.131364,24.700249 9.862644,24.522418 9.726682,24.432438 9.681047,24.345702 9.624634,24.070066 9.601874,23.958939 9.530114,23.757674 9.465121,23.622814 9.364391,23.413799 9.346767,23.350793 9.345724,23.195916 c -0.0017,-0.19678 0.05954,-0.352142 0.182663,-0.466027 0.100397,-0.09287 0.44088,-0.277434 0.904217,-0.49012 0.340354,-0.156232 0.527183,-0.22059 0.992342,-0.34183 0.664906,-0.173306 0.782071,-0.197748 1.160061,-0.242001 0.380812,-0.04459 1.185769,-0.04525 1.411643,-0.0011 0.540411,0.105474 1.096119,0.240976 1.243919,0.303313 0.09226,0.0389 0.262057,0.09841 0.377374,0.132245 0.115301,0.03383 0.348011,0.118837 0.517132,0.188907 0.16912,0.07006 0.433272,0.174794 0.58702,0.232717 0.540573,0.203657 1.684404,0.72129 2.362049,1.068937 0.623773,0.320006 1.767408,0.99708 2.291928,1.356902 0.625669,0.429214 2.111171,1.64375 2.89882,2.370049 0.341225,0.314652 0.853445,0.85445 0.984558,1.037571 0.08691,0.121365 0.142134,0.148943 0.142134,0.07096 0,-0.0173 -0.02815,-0.08887 -0.06255,-0.15908 -0.06653,-0.135752 -0.08355,-0.419491 -0.04286,-0.714648 0.05846,-0.424086 0.07595,-0.493731 0.161563,-0.643351 l 0.09073,-0.158557 -0.05829,-0.130158 c -0.312463,-0.697797 -0.533926,-1.674529 -0.618949,-2.729767 -0.08394,-1.041876 -0.143081,-1.34492 -0.320077,-1.640284 -0.115207,-0.192251 -0.255807,-0.271751 -0.541675,-0.306284 -0.406175,-0.04905 -0.455898,-0.08716 -0.712774,-0.545988 -0.205764,-0.367552 -0.371412,-0.763907 -0.558787,-1.337041 -0.349343,-1.068573 -0.424593,-1.46909 -0.422774,-2.25024 0.0021,-0.862575 0.08925,-1.38898 0.38907,-2.348077 0.228858,-0.732056 0.296596,-1.212648 0.212974,-1.51105 -0.0566,-0.201984 -0.207702,-0.383998 -0.386873,-0.466027 -0.14245,-0.06523 -0.177194,-0.06985 -0.410225,-0.05466 -0.140024,0.0091 -0.411828,0.04831 -0.604004,0.08708 -0.370591,0.07474 -0.774629,0.09312 -0.953698,0.04337 -0.361367,-0.100383 -0.496846,-0.43154 -0.33144,-0.810198 0.03697,-0.08456 0.294805,-0.455638 0.57304,-0.824621 0.542037,-0.718817 0.714829,-0.982567 0.886201,-1.352696 0.150712,-0.325498 0.19836,-0.529494 0.183524,-0.7857398 -0.01577,-0.272496 -0.133345,-0.50424 -0.37581,-0.740778 -0.44701,-0.436082 -0.881464,-0.545616 -1.91701,-0.483317 -0.440331,0.0265 -0.595283,0.02601 -0.768716,-0.0024 -0.379282,-0.06223 -0.642562,-0.219473 -0.764866,-0.456759 -0.194147,-0.37668 -0.177627,-1.103735 0.04466,-1.964313 0.202434,-0.783768 0.767912,-2.379663 1.204617,-3.399653 0.214514,-0.501047 0.232044,-0.555668 0.204101,-0.635827 -0.02652,-0.07621 -0.01488,-0.134384 0.08938,-0.444208 0.141215,-0.41973 0.229941,-0.538214 0.403083,-0.538214 0.08341,0 0.1253,0.0214 0.212445,0.108524 0.162858,0.162862 0.142376,0.276351 -0.121271,0.671953 -0.161062,0.24168 -0.268696,0.365608 -0.317528,0.365608 -0.0947,0 -0.858711,1.956157 -1.250072,3.200653 -0.220118,0.699955 -0.253834,0.829586 -0.326964,1.257378 -0.118919,0.695591 -0.05773,1.21922 0.166127,1.421454 0.204727,0.184962 0.289389,0.197554 1.343261,0.199764 0.893223,0.0018 0.946102,0.005 1.146081,0.06597 0.30073,0.09182 0.53575,0.233225 0.787804,0.474036 0.176782,0.168895 0.243663,0.257565 0.338235,0.448422 0.114145,0.230358 0.117855,0.24638 0.116932,0.505559 -0.0011,0.3328418 -0.04801,0.4977618 -0.266508,0.9385428 -0.189188,0.381669 -0.31958,0.575893 -0.900928,1.341987 -0.227511,0.299806 -0.444378,0.611086 -0.481926,0.691736 -0.239094,0.513546 0.155098,0.683082 1.119197,0.481351 0.501485,-0.104934 0.837245,-0.10806 1.048254,-0.0097 0.248818,0.115907 0.432115,0.333919 0.514777,0.612273 0.09935,0.334536 0.03734,0.801425 -0.218885,1.648457 -0.304127,1.005331 -0.394659,1.590747 -0.371766,2.403984 0.01983,0.704206 0.110501,1.136035 0.455163,2.1676 0.233681,0.699402 0.616957,1.468349 0.768333,1.541472 0.03784,0.01828 0.169313,0.04586 0.292184,0.06131 0.37332,0.04694 0.552535,0.156824 0.712901,0.437117 0.188702,0.329813 0.252181,0.646889 0.335684,1.676658 0.08311,1.025005 0.295737,1.972977 0.594578,2.650944 0.05536,0.125609 0.06558,0.134204 0.144534,0.121713 0.430968,-0.06818 0.604433,-0.08137 0.711711,-0.05415 0.110094,0.02795 0.117268,0.0258 0.154378,-0.04594 0.117867,-0.227938 0.285178,-0.764502 0.393175,-1.260926 0.111647,-0.513196 0.165792,-0.879679 0.208557,-1.411641 0.08127,-1.010999 0.142002,-1.319873 0.324975,-1.652902 0.165425,-0.301084 0.340736,-0.4127 0.723884,-0.460874 0.122873,-0.01547 0.254357,-0.04305 0.292182,-0.06132 0.151377,-0.07313 0.534654,-0.842072 0.768336,-1.541473 0.341675,-1.022624 0.434717,-1.462824 0.45557,-2.155373 0.0246,-0.816966 -0.06378,-1.384816 -0.382083,-2.455501 -0.205503,-0.691208 -0.26376,-1.002362 -0.248281,-1.326133 0.01983,-0.414377 0.221738,-0.740674 0.554081,-0.895362 0.211039,-0.09822 0.546905,-0.09507 1.048253,0.0098 0.788338,0.164952 1.188626,0.08537 1.18774,-0.236111 -3.47e-4,-0.164693 -0.122797,-0.376433 -0.52354,-0.906116 -0.62325,-0.823794 -0.63785,-0.8444 -0.802304,-1.132327 -0.432154,-0.756623 -0.504662,-1.2226108 -0.264584,-1.7004098 0.205261,-0.408506 0.639309,-0.761296 1.115493,-0.906668 0.199977,-0.06105 0.25286,-0.0641 1.146084,-0.06597 1.053871,-0.002 1.13853,-0.0148 1.343259,-0.19976 0.267213,-0.241413 0.299023,-0.932894 0.08467,-1.840235 -0.139512,-0.59049 -0.646867,-2.084716 -1.015584,-2.991019 -0.326108,-0.801569 -0.435659,-1.03295 -0.503114,-1.062635 -0.07527,-0.0331 -0.357064,-0.41749 -0.454414,-0.619818 -0.09773,-0.203132 -0.09096,-0.273647 0.03873,-0.403355 0.08715,-0.08715 0.129001,-0.108526 0.212444,-0.108526 0.173139,0 0.261872,0.118481 0.403081,0.538216 0.10423,0.309824 0.115933,0.367999 0.08938,0.444207 -0.02796,0.08017 -0.01039,0.134781 0.204109,0.635823 0.436693,1.019995 1.002176,2.61589 1.204608,3.399657 0.222275,0.860578 0.238797,1.587634 0.04464,1.964312 -0.122304,0.237287 -0.385585,0.394508 -0.764867,0.456759 -0.173426,0.02844 -0.32838,0.02895 -0.768717,0.0024 -1.035544,-0.0623 -1.469996,0.04723 -1.917006,0.483315 -0.437492,0.4268 -0.493949,0.874977 -0.192296,1.5264908 0.171377,0.370129 0.344165,0.633873 0.886206,1.352696 0.278235,0.368983 0.536108,0.740063 0.573044,0.824623 0.165402,0.378656 0.02991,0.709815 -0.331437,0.810193 -0.179077,0.04975 -0.583113,0.03137 -0.953704,-0.04338 -0.192175,-0.03874 -0.463981,-0.07794 -0.604004,-0.08707 -0.23303,-0.0152 -0.267773,-0.01058 -0.410223,0.05466 -0.179174,0.08203 -0.330273,0.264039 -0.386876,0.466028 -0.08363,0.298395 -0.01588,0.778987 0.212972,1.511049 0.299833,0.959095 0.387058,1.485502 0.389072,2.348077 0.0018,0.781147 -0.07341,1.181666 -0.422774,2.250241 -0.187375,0.573134 -0.353021,0.969485 -0.558787,1.337039 -0.256874,0.458836 -0.306599,0.496927 -0.712772,0.545988 -0.285867,0.03452 -0.426469,0.114034 -0.541678,0.306283 -0.176994,0.295362 -0.23613,0.598411 -0.320077,1.640286 -0.08504,1.055476 -0.306507,2.032097 -0.619116,2.730173 l -0.05845,0.130523 0.09697,0.121059 c 0.131519,0.164207 0.301825,0.505212 0.301825,0.604351 0,0.04448 0.01872,0.142612 0.04162,0.218085 0.06632,0.218566 0.05417,0.391418 -0.04171,0.594062 -0.04614,0.09753 -0.07665,0.189006 -0.06782,0.203298 0.04118,0.06661 0.241907,-0.108949 0.463729,-0.405588 0.502687,-0.672253 2.062275,-2.136813 2.533357,-2.379 0.08972,-0.04614 0.244095,-0.142386 0.34307,-0.213918 0.09898,-0.07153 0.316916,-0.202475 0.484314,-0.290985 0.205781,-0.108807 0.318953,-0.186419 0.349415,-0.239629 0.0274,-0.04784 0.116297,-0.114461 0.226751,-0.16991 0.188603,-0.09468 0.408034,-0.220999 0.806264,-0.464164 0.175609,-0.107234 0.251565,-0.138804 0.307485,-0.127821 0.04781,0.0093 0.119101,-0.0093 0.200058,-0.05263 0.06919,-0.03698 0.320762,-0.17114 0.559066,-0.298144 0.238302,-0.127 0.459558,-0.255107 0.491688,-0.284678 0.03214,-0.02957 0.308864,-0.18053 0.61497,-0.335458 0.306111,-0.154929 0.669772,-0.348836 0.808141,-0.430905 0.138368,-0.08207 0.396238,-0.211646 0.57304,-0.287947 0.312678,-0.134933 0.568519,-0.255698 0.796494,-0.375971 0.06139,-0.03238 0.268955,-0.107975 0.46123,-0.167961 1.061047,-0.331026 1.444741,-0.395549 2.34825,-0.394904 0.634659,3.48e-4 0.715808,0.01463 1.273087,0.22214 0.771914,0.287458 0.997137,0.407047 1.367669,0.726219 0.435399,0.375048 0.479964,0.455898 0.508468,0.922461 0.01453,0.23757 0.0075,0.315197 -0.04606,0.517134 -0.03474,0.130681 -0.07314,0.328536 -0.08533,0.439675 -0.02884,0.26278 -0.126627,0.47439 -0.272663,0.590054 -0.155913,0.123486 -0.216196,0.230851 -0.295045,0.525482 -0.0806,0.301142 -0.11202,0.36465 -0.289407,0.584796 -0.244577,0.303531 -0.276194,0.373757 -0.40661,0.90314 -0.01654,0.06712 -0.07841,0.183196 -0.1375,0.257945 -0.261936,0.331376 -0.380115,0.54747 -0.414942,0.758741 -0.04314,0.26163 -0.08503,0.348047 -0.268376,0.553528 -0.08274,0.09275 -0.174185,0.21534 -0.203198,0.272452 -0.06133,0.120741 -0.198893,0.545909 -0.199122,0.615436 -6.87e-4,0.14689 -0.07194,0.279895 -0.250272,0.465847 -0.268661,0.280137 -0.491388,0.621995 -0.562695,0.863676 -0.09681,0.328111 -0.175364,0.442553 -0.495145,0.721357 -0.160727,0.14013 -0.312632,0.291884 -0.337569,0.337231 -0.143038,0.260129 -0.196615,0.322631 -0.328686,0.383431 -0.370574,0.1706 -0.496664,0.244689 -0.725833,0.426482 -0.339649,0.269432 -0.439504,0.329178 -0.676066,0.404519 -0.229731,0.07316 -0.597838,0.08643 -0.942359,0.03398 -0.107623,-0.01639 -0.305097,-0.04552 -0.438834,-0.06475 l -0.243154,-0.03495 0.244227,0.240002 c 0.342966,0.337036 0.509735,0.573946 0.660062,0.937695 0.130999,0.316978 0.152087,0.426212 0.09357,0.484727 -0.05884,0.05884 -0.126443,0.03641 -0.212121,-0.07037 -0.07511,-0.09361 -0.08819,-0.09991 -0.132053,-0.06352 -0.117856,0.09781 0.02053,0.705668 0.292669,1.285562 0.203637,0.433928 0.237341,0.545833 0.213088,0.707558 -0.0274,0.182575 -0.115108,0.258961 -0.324639,0.282666 -0.132391,0.01497 -0.189247,0.03751 -0.267125,0.105894 -0.135548,0.119014 -0.235105,0.324242 -0.235105,0.484643 0,0.174768 0.100011,0.55733 0.18598,0.711406 0.113803,0.203959 0.205362,0.449953 0.205362,0.551748 0,0.129536 -0.04372,0.200754 -0.150679,0.245445 -0.07827,0.03269 -0.1214,0.03077 -0.324226,-0.01443 -0.364817,-0.08132 -0.584938,-0.03065 -0.732431,0.16858 -0.138853,0.18756 -0.177567,0.721131 -0.07917,1.091142 0.06652,0.250179 0.07113,0.41998 0.01436,0.529783 -0.08602,0.166335 -0.202147,0.17831 -0.401218,0.04138 -0.361163,-0.248436 -0.52644,-0.03047 -0.514248,0.67817 0.0053,0.305214 0.02395,0.450863 0.105923,0.824624 0.05475,0.249664 0.130407,0.634284 0.168125,0.854714 0.03771,0.220429 0.08825,0.484586 0.112316,0.587019 0.123014,0.523842 0.213199,1.024798 0.227442,1.263411 0.02444,0.40971 -0.07971,0.69786 -0.252243,0.69786 -0.147754,0 -0.272235,-0.237504 -0.385876,-0.736254 -0.126296,-0.554278 -0.282557,-1.035313 -0.436744,-1.344495 -0.23395,-0.469109 -0.599043,-0.808999 -0.983512,-0.915608 -0.253181,-0.07021 -0.364015,-0.06496 -0.493992,0.02338 -0.152581,0.103668 -0.246242,0.09333 -0.385417,-0.04256 -0.206058,-0.201176 -0.359985,-0.21697 -0.819893,-0.08412 -0.453885,0.131102 -0.553906,0.190135 -0.635764,0.37523 -0.161488,0.365154 -0.493713,0.204606 -0.598374,-0.289169 -0.06473,-0.305383 -0.0073,-1.115981 0.109341,-1.542737 0.01471,-0.05381 0.0268,-0.179406 0.0269,-0.279102 l 1.06e-4,-0.181265 -0.06416,0.119965 c -0.174197,0.325679 -0.395025,0.465846 -0.732503,0.464942 -0.159781,-3.45e-4 -0.223876,-0.01511 -0.349417,-0.0801 -0.334767,-0.173293 -0.371849,-0.226473 -0.489002,-0.701383 -0.05808,-0.235453 -0.07216,-0.346775 -0.06006,-0.475205 0.04653,-0.494441 0.10476,-1.031532 0.132561,-1.222533 0.0173,-0.118913 0.02398,-0.23571 0.01484,-0.259541 -0.0091,-0.02382 -0.0052,-0.102639 0.0089,-0.17513 0.01405,-0.0725 0.04741,-0.349321 0.07414,-0.615176 0.04344,-0.431981 0.04497,-0.559773 0.01426,-1.201994 -0.03332,-0.697358 -0.03921,-0.742977 -0.198253,-1.543223 -0.09014,-0.453544 -0.172636,-0.892796 -0.183316,-0.976121 -0.02815,-0.219677 -0.192929,-0.826823 -0.24662,-0.908766 -0.05593,-0.08535 -0.112244,-0.06953 -0.159628,0.04487 -0.02823,0.06809 -0.02808,0.143672 6.88e-4,0.384679 0.03183,0.267995 0.03078,0.309363 -0.01011,0.388453 -0.02518,0.04869 -0.05804,0.08853 -0.07302,0.08853 -0.05455,0 -0.03013,0.280809 0.03204,0.368092 0.04942,0.06939 0.05859,0.119801 0.05523,0.303634 -0.0062,0.346997 -0.08092,0.952055 -0.215634,1.74863 -0.04202,0.248394 -0.0666,0.50636 -0.06661,0.698827 -2.6e-5,0.373623 -0.04696,0.892115 -0.08801,0.972499 -0.08461,0.165663 -0.293962,0.208522 -0.435758,0.08922 -0.11381,-0.09577 -0.204519,-0.410515 -0.246237,-0.85445 -0.02857,-0.303936 -0.09627,-0.816383 -0.127416,-0.964387 -0.0503,-0.239029 -0.276121,-1.169194 -0.307458,-1.26642 -0.03919,-0.121569 -0.07956,-0.678554 -0.05308,-0.732241 0.01137,-0.02307 0.02949,-0.09067 0.04026,-0.15021 0.01714,-0.09468 0.0096,-0.118633 -0.05923,-0.190618 -0.0784,-0.08191 -0.07878,-0.08419 -0.07878,-0.456668 0,-0.312576 -0.0077,-0.382059 -0.04677,-0.421183 -0.0724,-0.07257 -0.125137,-0.02939 -0.162803,0.133348 -0.01897,0.0819 -0.08875,0.375319 -0.155129,0.652059 -0.273337,1.139794 -0.360583,1.837632 -0.331997,2.655563 0.0307,0.879317 0.193285,1.885752 0.388357,2.404338 0.116953,0.31091 0.155716,0.553272 0.1623,1.014696 l 0.0061,0.438516 -0.08949,0.188924 c -0.109269,0.230676 -0.329572,0.469919 -0.520189,0.564908 -0.114928,0.05727 -0.183045,0.0708 -0.356681,0.0708 -0.441117,0 -0.700755,-0.182509 -0.811909,-0.570725 l -0.04867,-0.170037 -0.0014,0.125787 c -0.002,0.17452 0.05335,0.384085 0.191151,0.72177 0.143832,0.352442 0.208556,0.641435 0.184772,0.82501 -0.02957,0.228231 -0.123385,0.434645 -0.26289,0.578423 -0.107358,0.11065 -0.164543,0.143786 -0.335201,0.194225 -0.246234,0.07278 -0.316912,0.05467 -0.44007,-0.11276 -0.0941,-0.127927 -0.338937,-0.328763 -0.501552,-0.41141 -0.123599,-0.0628 -0.302115,-0.105515 -0.390045,-0.09329 -0.07957,0.01107 -0.267583,0.124844 -0.347303,0.210179 -0.08516,0.09117 -0.22375,0.09636 -0.337028,0.01261 -0.183409,-0.135603 -0.686503,0.02423 -0.995193,0.316191 -0.204506,0.193414 -0.521795,0.612926 -0.610625,0.807359 -0.150308,0.328987 -0.188361,0.552696 -0.207678,1.220988 -0.0178,0.614592 -0.01874,0.622142 -0.08785,0.691166 -0.0897,0.08959 -0.21129,0.109582 -0.337959,0.05558 z m 20.353148,-56.253764 c -0.07213,-0.07215 -0.07172,-0.152396 0.0014,-0.254951 0.07136,-0.100232 0.151497,-0.145337 0.219719,-0.123684 0.08286,0.02631 0.08886,0.11852 0.01352,0.208059 -0.03712,0.0441 -0.06746,0.09992 -0.06746,0.12407 0,0.02412 -0.02487,0.05721 -0.05525,0.07347 -0.04389,0.0235 -0.06689,0.01794 -0.111814,-0.02696 z"
       id="path2" /><path
       style="fill:#ff7f2a;stroke-width:0.105973"
       d="M 11.208098,46.574664 C 9.9854476,45.362808 8.7787677,43.716306 7.8538777,41.997842 c -0.27961,-0.519522 -0.36958,-0.696805 -0.56635,-1.11598 -1.35918,-2.895332 -2.02905,-5.995092 -1.97049,-9.118101 0.0273,-1.458432 0.1489,-2.451801 0.47174,-3.855306 0.75536,-3.283859 2.30509,-6.375197 4.4698403,-8.916267 0.75259,-0.883414 1.991951,-1.877488 2.602761,-2.087642 0.18229,-0.06271 0.4148,-0.179623 0.57838,-0.290807 l 0.12617,-0.08576 -0.15514,0.168668 c -0.0853,0.09277 -0.20392,0.262388 -0.26355,0.37693 -0.19451,0.373618 -0.36843,0.600609 -1.726261,2.253089 -1.4574504,1.773712 -2.1121403,2.740574 -2.8871603,4.26385 -1.00837,1.981899 -1.64899,4.027852 -1.97535,6.30868 -0.11816,0.825743 -0.12826,0.906326 -0.17047,1.35987 -0.25209,2.708561 0.0225,5.400856 0.8144,7.984731 0.6598,2.152887 1.69623,4.183998 3.0646703,6.005907 0.3881,0.516701 0.99859,1.269708 1.24449,1.535021 0.137501,0.14835 0.192371,0.232022 0.152161,0.232022 -0.005,0 -0.210311,-0.198938 -0.455621,-0.442083 z m 29.821623,0.418077 c 0,-0.01841 0.0728,-0.112022 0.161765,-0.208016 0.2459,-0.265313 0.856385,-1.018321 1.244483,-1.535021 2.196775,-2.924724 3.502657,-6.316925 3.878289,-10.074369 0.08172,-0.817366 0.1112,-1.888812 0.0748,-2.71762 -0.03276,-0.746109 -0.08522,-1.420478 -0.143366,-1.843538 -0.214146,-1.558068 -0.34305,-2.230298 -0.631026,-3.290748 -0.683967,-2.518652 -1.941475,-5.006025 -3.559807,-7.041373 -0.201433,-0.253335 -0.549191,-0.683263 -0.772799,-0.955391 -1.357835,-1.652479 -1.531755,-1.87947 -1.726262,-2.253089 -0.05963,-0.114548 -0.178232,-0.284161 -0.263555,-0.376929 l -0.155135,-0.168669 0.126169,0.08576 c 0.163579,0.111189 0.396093,0.228094 0.578374,0.290806 0.610816,0.210154 1.850173,1.204229 2.602762,2.087642 2.164753,2.54107 3.714481,5.632409 4.469844,8.916268 0.322835,1.403506 0.444386,2.396874 0.471737,3.855304 0.05858,3.12301 -0.611315,6.222772 -1.970484,9.118103 -0.235259,0.501152 -0.477601,0.9677 -0.786577,1.514281 -0.938645,1.66048 -2.202381,3.314121 -3.381928,4.425366 -0.119504,0.112596 -0.217298,0.189648 -0.217298,0.171232 z M 19.016907,45.683336 c -0.06522,-0.02779 -0.124458,-0.08442 -0.168232,-0.160854 -0.06358,-0.111009 -0.06751,-0.143561 -0.06644,-0.552551 7.31e-4,-0.291161 0.01642,-0.50863 0.0475,-0.658906 0.02551,-0.123366 0.06057,-0.331557 0.07793,-0.462638 0.03442,-0.259938 0.118825,-0.666064 0.265162,-1.275756 0.118396,-0.493263 0.161517,-0.80842 0.164668,-1.203398 0.0022,-0.263696 -0.0073,-0.334008 -0.06165,-0.464894 -0.10734,-0.258049 -0.270935,-0.392543 -0.477466,-0.392543 -0.160381,0 -0.246735,0.04084 -0.386894,0.183022 -0.068,0.06898 -0.13426,0.125397 -0.14726,0.125397 -0.01302,0 -0.05341,-0.02413 -0.08983,-0.05362 l -0.06618,-0.05361 0.04642,-0.163683 c 0.02553,-0.09002 0.08101,-0.270934 0.123261,-0.40201 0.13776,-0.427263 0.103392,-0.959967 -0.07839,-1.215257 -0.07014,-0.0985 -0.341837,-0.231453 -0.524275,-0.256547 -0.179296,-0.02467 -0.336946,0.02188 -0.480587,0.141896 -0.124867,0.104331 -0.209382,0.115561 -0.260133,0.03459 -0.04797,-0.07652 0.01812,-0.377185 0.144653,-0.658201 0.146016,-0.324276 0.182991,-0.520941 0.16866,-0.897036 -0.01606,-0.421318 -0.112499,-0.596228 -0.376893,-0.683483 -0.158055,-0.05216 -0.283713,-0.0141 -0.331619,0.100605 -0.03369,0.08062 -0.05487,0.09684 -0.126609,0.09684 -0.129685,0 -0.159747,-0.08948 -0.09959,-0.296376 0.054,-0.185734 0.206985,-0.501432 0.329574,-0.680081 0.111916,-0.163089 0.254601,-0.476866 0.360245,-0.792193 0.07437,-0.221964 0.08685,-0.299942 0.08633,-0.538889 -3.19e-4,-0.153654 -0.01211,-0.290873 -0.02617,-0.30493 -0.01539,-0.01539 -0.08561,0.01958 -0.176416,0.0878 -0.08297,0.06233 -0.172375,0.113357 -0.198675,0.113357 -0.05835,0 -0.135943,-0.07337 -0.135943,-0.128519 0,-0.02222 0.09279,-0.131729 0.206199,-0.243333 0.178265,-0.175442 0.624932,-0.800438 0.773946,-1.082937 0.03302,-0.06262 0.03106,-0.06593 -0.03082,-0.05193 -0.449464,0.101764 -0.535744,0.09655 -1.130692,-0.06842 -0.548672,-0.152138 -0.780302,-0.28781 -1.234572,-0.723133 -0.1594,-0.15275 -0.33763,-0.295563 -0.41305,-0.330964 -0.10499,-0.04928 -0.14712,-0.09082 -0.20201,-0.199139 -0.10334,-0.203925 -0.38386,-0.549531 -0.65148,-0.802634 l -0.23717,-0.224307 -0.0788,-0.271985 c -0.0434,-0.149581 -0.11065,-0.326224 -0.14958,-0.392529 -0.13709,-0.233568 -0.47975,-0.647735 -0.63677,-0.769669 -0.15607,-0.1212 -0.16016,-0.128048 -0.23518,-0.393613 -0.10547,-0.373414 -0.18373,-0.525496 -0.39493,-0.767473 -0.1581,-0.181154 -0.1937,-0.243603 -0.27075,-0.474944 -0.0488,-0.1465 -0.11996,-0.328775 -0.15814,-0.40505 -0.0892,-0.178203 -0.351371,-0.453205 -0.469011,-0.492028 -0.0823,-0.02718 -0.0944,-0.04565 -0.12314,-0.188884 -0.0547,-0.272279 -0.13414,-0.394343 -0.48022,-0.73771 l -0.32616,-0.323605 -0.0749,-0.240337 c -0.08,-0.256592 -0.16738,-0.365324 -0.4369204,-0.543699 -0.1364,-0.09025 -0.18217,-0.177249 -0.23874,-0.453729 -0.0228,-0.111463 -0.0948,-0.313342 -0.1600099,-0.448617 -0.10104,-0.209655 -0.11872,-0.272847 -0.11976,-0.428204 -0.001,-0.197379 0.0597,-0.353209 0.1832199,-0.467447 0.10071,-0.09317 0.44223,-0.27828 0.9069804,-0.491612 0.34139,-0.156711 0.52879,-0.221265 0.99537,-0.342877 0.666931,-0.173834 0.784451,-0.198352 1.163601,-0.242741 0.38197,-0.04472 1.18938,-0.04539 1.41594,-0.0014 0.54207,0.105792 1.09947,0.24172 1.24772,0.304244 0.0925,0.03902 0.26286,0.09872 0.37852,0.132638 0.11566,0.03393 0.34908,0.119201 0.51872,0.189485 0.169628,0.07029 0.434594,0.17533 0.588807,0.233429 0.542224,0.204274 1.689548,0.723492 2.369259,1.072197 0.625679,0.320981 1.772804,1.000122 2.298922,1.361043 0.622888,0.427307 2.105382,1.638712 2.902098,2.371419 0.365348,0.335995 0.896301,0.902683 1.035118,1.104783 0.09705,0.14129 0.106017,0.167827 0.0777,0.22996 -0.01762,0.03863 -0.0449,0.07024 -0.06064,0.07024 -0.01573,0 -0.02865,0.04817 -0.02865,0.107066 0,0.175904 -0.07695,0.381727 -0.210573,0.563243 -0.142017,0.192912 -0.155329,0.273613 -0.05993,0.363232 0.03627,0.03409 0.0815,0.113834 0.100491,0.177227 l 0.03453,0.115265 0.07085,-0.123278 c 0.03896,-0.06779 0.137699,-0.236826 0.219413,-0.375618 0.27822,-0.472539 0.407451,-0.7415 0.389894,-0.811455 -0.01198,-0.04777 6.37e-4,-0.07728 0.04622,-0.109307 0.0583,-0.04083 0.07131,-0.03879 0.187583,0.02935 0.08667,0.0508 0.160511,0.07187 0.241023,0.06879 0.09907,-0.0039 0.133078,-0.02292 0.232197,-0.130655 0.127125,-0.138184 0.173828,-0.152518 0.244034,-0.07495 0.06074,0.06711 0.05858,0.131337 -0.01363,0.406689 -0.07856,0.299245 -0.08482,0.825898 -0.01257,1.056117 0.08541,0.272123 0.08538,0.295792 -3.17e-4,0.415229 -0.0454,0.06315 -0.133897,0.136002 -0.207922,0.171143 -0.154857,0.07353 -0.272529,0.05614 -0.490007,-0.07241 -0.152879,-0.09037 -0.18627,-0.172592 -0.127609,-0.314218 0.01702,-0.04105 0.04229,-0.263645 0.05618,-0.494671 0.02781,-0.462765 0.0093,-0.54622 -0.122048,-0.54622 -0.08625,0 -0.104494,0.0255 -0.220657,0.308424 -0.279727,0.681312 -0.329084,0.957564 -0.217565,1.217729 0.06719,0.156757 0.05368,0.201818 -0.122276,0.407975 -0.115931,0.135806 -0.124595,0.155454 -0.08693,0.197061 0.02301,0.02544 0.04183,0.07096 0.04183,0.101201 0,0.03024 0.01991,0.130184 0.04421,0.222101 0.02432,0.09191 0.05487,0.230201 0.0679,0.307305 0.04533,0.26805 -0.06945,1.126958 -0.251018,1.878586 -0.113167,0.46849 -0.229987,1.12038 -0.286384,1.598197 -0.0577,0.488945 -0.03291,1.726777 0.04772,2.381135 l 0.0141,0.11431 -0.05856,-0.12617 c -0.06161,-0.132776 -0.151576,-0.517427 -0.252446,-1.079484 -0.07547,-0.420516 -0.300528,-1.144506 -0.446347,-1.43584 -0.139093,-0.277895 -0.373808,-0.541729 -0.488802,-0.549435 -0.07285,-0.0049 -0.0864,0.008 -0.127262,0.120716 -0.02515,0.06939 -0.06557,0.164027 -0.08982,0.210291 -0.06381,0.121776 -0.127411,0.422627 -0.180795,0.855176 -0.04936,0.400003 -0.04182,1.278217 0.01628,1.892602 0.01455,0.154213 0.02695,0.459439 0.0275,0.678281 6.35e-4,0.218841 0.01132,0.404318 0.0241,0.412168 0.01273,0.0078 0.104174,-0.01132 0.203279,-0.0428 0.147516,-0.04671 0.233561,-0.05498 0.474591,-0.04549 0.359692,0.0141 0.479845,0.06145 0.71942,0.283256 0.188157,0.1742 0.233892,0.192194 0.233892,0.09202 0,-0.08862 -0.05173,-0.230785 -0.266585,-0.732529 -0.16069,-0.375273 -0.223037,-0.564053 -0.27779,-0.841157 -0.0091,-0.04626 0.07499,0.09252 0.186979,0.308426 0.111975,0.215897 0.236886,0.443824 0.277573,0.506513 0.161382,0.248648 0.358415,0.681786 0.414684,0.911611 0.04507,0.184032 0.06038,0.345342 0.0653,0.686944 l 0.0064,0.446441 -0.08976,0.189502 c -0.109592,0.231378 -0.330579,0.471354 -0.521776,0.566629 -0.174861,0.08715 -0.490948,0.09798 -0.7073,0.02426 -0.417611,-0.14229 -0.625586,-0.698247 -0.419091,-1.120308 0.159158,-0.325303 0.374109,-0.484166 0.664159,-0.490852 0.255856,-0.0059 0.4334,0.13123 0.510448,0.39425 0.126201,0.430842 -0.05187,0.730921 -0.433732,0.730921 -0.126504,0 -0.155757,-0.01168 -0.239443,-0.09533 -0.129321,-0.129321 -0.134549,-0.29034 -0.01333,-0.411519 0.04719,-0.04718 0.111915,-0.08196 0.152556,-0.08196 0.096,0 0.117873,0.04599 0.03209,0.06752 -0.129396,0.03248 -0.117742,0.241202 0.01584,0.283597 0.09079,0.02883 0.213638,-0.03796 0.263646,-0.143365 0.05962,-0.125625 0.03068,-0.28023 -0.0716,-0.382498 -0.14994,-0.14994 -0.495317,-0.08698 -0.633592,0.115526 -0.192249,0.281516 -0.110319,0.675379 0.173964,0.836394 0.134502,0.07619 0.427383,0.08722 0.583516,0.02197 0.262514,-0.109688 0.418947,-0.367802 0.415951,-0.686327 -0.0047,-0.502564 -0.177672,-0.776374 -0.560693,-0.887721 -0.139941,-0.04067 -0.168369,-0.04058 -0.33825,0.0014 -0.208393,0.05121 -0.418702,0.18238 -0.589456,0.367625 -0.156892,0.170209 -0.211411,0.36604 -0.210636,0.756583 6.35e-4,0.281027 0.0096,0.334577 0.102442,0.60283 0.05601,0.161921 0.147667,0.405169 0.203681,0.540549 0.136593,0.330145 0.153576,0.458084 0.09836,0.741283 -0.06333,0.324896 -0.172921,0.447754 -0.555746,0.623099 -0.122518,0.05611 -0.206541,0.01789 -0.346387,-0.157528 -0.230379,-0.289017 -0.647251,-0.521001 -0.878472,-0.488865 -0.07981,0.01108 -0.268402,0.12523 -0.348362,0.210821 -0.08542,0.09144 -0.224435,0.09664 -0.33806,0.01272 -0.183969,-0.136018 -0.688591,0.02432 -0.998228,0.317155 -0.205132,0.194005 -0.523384,0.614796 -0.612486,0.809823 -0.15076,0.329994 -0.188932,0.554385 -0.208315,1.224715 -0.01783,0.616468 -0.01879,0.62404 -0.08811,0.693276 -0.08998,0.08985 -0.21193,0.109914 -0.338989,0.05576 z m 1.024174,-3.225903 c 0.280773,-0.385252 0.537421,-0.581096 0.807781,-0.616407 0.136837,-0.01786 0.336641,0.04325 0.430932,0.131836 0.08465,0.07952 0.09852,0.04391 0.115954,-0.297734 0.01424,-0.277614 0.01156,-0.295326 -0.0611,-0.419353 -0.08969,-0.15305 -0.273659,-0.295361 -0.381817,-0.295361 -0.04233,0 -0.161914,0.02622 -0.265751,0.05832 -0.344044,0.106267 -0.521136,0.341882 -0.778063,1.035192 -0.162596,0.438761 -0.197218,0.675133 -0.09838,0.671664 0.01975,-6.36e-4 0.123458,-0.121367 0.230437,-0.26815 z m 2.875184,-0.136503 c 0.06107,-0.07358 -0.008,-0.231049 -0.203105,-0.46281 -0.284329,-0.337807 -0.624183,-0.473066 -0.83379,-0.331837 -0.18094,0.121913 -0.259316,0.405819 -0.141472,0.512463 0.04598,0.04161 0.06922,0.04457 0.144381,0.01837 0.122897,-0.04284 0.317111,-0.03917 0.425583,0.008 0.04963,0.02159 0.177071,0.109461 0.283217,0.195259 0.20017,0.161786 0.235659,0.168389 0.325189,0.06052 z m -3.15605,-1.491859 c 0.120747,-0.476315 0.08346,-1.000322 -0.09022,-1.26818 -0.146775,-0.226364 -0.537977,-0.331742 -0.750477,-0.202156 -0.132063,0.08052 -0.256858,0.299315 -0.306512,0.537345 -0.024,0.115037 -0.05113,0.233326 -0.06028,0.262861 -0.01243,0.04029 0.01424,0.02841 0.106757,-0.04743 0.2106,-0.172573 0.38756,-0.203998 0.601535,-0.106827 0.22307,0.101294 0.31894,0.311377 0.379378,0.831317 0.01867,0.160595 0.03698,0.288945 0.04071,0.285222 0.0039,-0.0039 0.03933,-0.135183 0.07911,-0.29214 z m -1.077694,-2.202887 c 0.03805,-0.206752 0.02066,-0.404032 -0.04759,-0.539348 -0.087,-0.172528 -0.264268,-0.378803 -0.387664,-0.451117 -0.109091,-0.06393 -0.151091,-0.07282 -0.294753,-0.06244 -0.105553,0.0076 -0.195927,0.03246 -0.244264,0.06706 -0.0695,0.04976 -0.308614,0.485095 -0.356257,0.648608 -0.01804,0.06195 -0.01728,0.06187 0.144712,-0.0141 0.137972,-0.06465 0.199981,-0.07629 0.405779,-0.07629 0.225243,0 0.251774,0.0062 0.364504,0.08521 0.141425,0.0991 0.291289,0.332386 0.319032,0.496586 0.02403,0.142242 0.04937,0.101732 0.0965,-0.154234 z m 4.400359,-1.493032 c 0.01837,-0.200475 0.05163,-0.553761 0.07387,-0.78508 0.05859,-0.608891 0.103767,-1.194887 0.09835,-1.275755 -0.0026,-0.03855 -0.0055,-0.126701 -0.0066,-0.19588 l -0.0016,-0.125776 -0.09614,0.111761 c -0.05288,0.06147 -0.113357,0.143305 -0.134381,0.181862 -0.06107,0.111963 -0.466973,0.491096 -0.596063,0.556755 -0.22527,0.114584 -0.337348,0.432965 -0.415964,1.181634 -0.04284,0.408031 -0.04263,0.453458 0.0033,0.743025 0.04742,0.298479 0.108353,0.452317 0.213822,0.539856 0.02277,0.01888 0.141123,0.0669 0.263033,0.106684 0.266161,0.08689 0.38195,0.154778 0.466769,0.273693 l 0.06358,0.08915 0.01726,-0.518711 c 0.0095,-0.285292 0.0323,-0.682741 0.05067,-0.883217 z m -1.629854,0.79691 c 0.04769,-0.01663 0.131366,-0.08471 0.185937,-0.151319 0.106518,-0.129988 0.141472,-0.275626 0.212103,-0.883924 0.01702,-0.146501 0.05719,-0.446654 0.08927,-0.667005 0.03208,-0.220349 0.05311,-0.405886 0.04668,-0.412304 -0.0064,-0.0064 -0.06166,0.0061 -0.122745,0.02788 -0.0611,0.02174 -0.130004,0.04014 -0.153142,0.04084 -0.04858,0.0016 -0.296595,0.391305 -0.393208,0.618035 -0.0829,0.194531 -0.103423,0.564807 -0.05707,1.029976 0.04651,0.466792 0.03896,0.451203 0.192165,0.3978 z m -0.749099,-0.899015 c 0.170253,-0.051 0.284434,-0.167849 0.480846,-0.492038 0.324995,-0.536421 0.354177,-0.632394 0.203779,-0.67014 -0.03658,-0.0093 -0.148092,-0.07028 -0.247833,-0.135791 -0.142002,-0.09328 -0.200296,-0.116323 -0.268776,-0.106267 -0.127426,0.0187 -0.329237,0.259983 -0.505655,0.604555 -0.134032,0.261796 -0.147152,0.303949 -0.144879,0.465655 0.003,0.20932 0.0501,0.29745 0.179067,0.334698 0.126049,0.03639 0.180113,0.03627 0.303447,-6.34e-4 z m -2.787982,-0.552513 c 0.0607,-0.208757 0.03772,-0.629038 -0.0467,-0.8547 -0.129275,-0.345521 -0.354505,-0.455115 -0.528364,-0.257099 -0.111093,0.126534 -0.289005,0.511278 -0.278346,0.601956 0.0064,0.05468 0.05127,0.0933 0.204505,0.176128 0.231428,0.12508 0.298857,0.197156 0.412351,0.4408 l 0.08454,0.181474 0.05316,-0.06565 c 0.02924,-0.0361 0.07374,-0.136412 0.09886,-0.222911 z m 2.509616,-0.572075 c 0.17585,-0.184675 0.262766,-0.300679 0.301855,-0.402865 l 0.05489,-0.143501 -0.0846,-0.263055 c -0.05443,-0.169235 -0.09023,-0.349844 -0.100386,-0.506401 l -0.01578,-0.243348 -0.07182,0.04705 c -0.03951,0.02588 -0.111547,0.06072 -0.160089,0.0774 l -0.08826,0.03033 0.115037,-0.180773 c 0.06326,-0.09943 0.151728,-0.211718 0.196567,-0.249534 0.152635,-0.128746 0.980417,-1.605917 0.928831,-1.657505 -0.0076,-0.0076 -0.06807,0.0069 -0.134457,0.03237 -0.184166,0.07034 -0.184994,0.05662 -0.0043,-0.07039 0.09117,-0.06407 0.230246,-0.165172 0.309028,-0.224663 0.07878,-0.05949 0.299587,-0.178893 0.490678,-0.265331 0.191088,-0.08644 0.372666,-0.185711 0.403506,-0.220607 0.03084,-0.03488 0.09547,-0.08337 0.143639,-0.107733 0.110985,-0.05614 0.86322,-0.356213 1.104079,-0.44044 0.100241,-0.03506 0.218104,-0.0964 0.261923,-0.13632 0.08591,-0.07828 0.186695,-0.253447 0.186695,-0.324516 0,-0.0593 -0.130231,-0.104992 -0.23619,-0.08287 -0.164619,0.03435 -1.153988,0.32445 -1.577114,0.462437 -0.233966,0.07629 -0.44215,0.138805 -0.462637,0.138895 -0.02047,9.6e-5 -0.07282,0.01873 -0.116312,0.0414 -0.04348,0.02266 -0.207508,0.08719 -0.364499,0.143334 -0.156996,0.05617 -0.365567,0.139305 -0.463497,0.184761 -0.09792,0.04547 -0.183615,0.0771 -0.190412,0.07029 -0.02537,-0.02538 0.282962,-0.333131 0.38678,-0.386095 0.05933,-0.03028 0.107852,-0.06158 0.107852,-0.06959 0,-0.008 -0.02523,-0.06405 -0.05607,-0.124489 -0.03084,-0.06045 -0.05608,-0.159846 -0.05608,-0.220866 0,-0.06103 -0.02444,-0.167959 -0.0543,-0.237637 -0.04491,-0.104742 -0.0722,-0.131638 -0.157703,-0.155243 -0.114786,-0.03169 -0.168231,-0.01049 -0.594038,0.235523 l -0.21736,0.125594 0.139714,-0.119016 c 0.609757,-0.519455 0.772536,-0.791642 0.77688,-1.299044 0.0017,-0.190148 -0.0106,-0.254709 -0.07597,-0.400303 -0.124063,-0.276467 -0.303327,-0.395852 -0.594955,-0.396237 -0.167253,-2.11e-4 -0.605427,0.146425 -0.820954,0.274755 -0.23343,0.138986 -0.703862,0.383385 -0.630377,0.327492 0.610747,-0.464539 1.109537,-0.893158 1.177621,-1.011948 l 0.05607,-0.09784 -0.06585,-0.05447 c -0.157961,-0.13061 -0.852067,-0.268383 -1.195878,-0.237351 -0.344528,0.03108 -0.599932,0.114953 -1.137693,0.373604 -0.286466,0.137774 -0.575092,0.284748 -0.64139,0.326599 -0.0663,0.04184 -0.270139,0.150667 -0.452975,0.24182 -0.269773,0.134487 -0.335865,0.179391 -0.350637,0.238249 -0.03315,0.132048 0.01156,0.370386 0.110903,0.591964 0.05393,0.120232 0.118885,0.291146 0.144335,0.379808 0.0496,0.172787 0.102212,0.245452 0.177498,0.245193 0.217895,-6.35e-4 0.484219,-0.0881 1.056453,-0.346489 0.136882,-0.06181 0.19699,-0.07993 0.154213,-0.04649 -0.225716,0.176406 -0.454622,0.348949 -0.59582,0.44911 -0.154505,0.109591 -0.16122,0.119503 -0.16122,0.237707 0,0.11002 0.01697,0.142471 0.157049,0.300368 0.08637,0.09737 0.18779,0.244701 0.225361,0.32741 0.05963,0.131291 0.06747,0.185251 0.06165,0.424959 -0.0066,0.268081 0.01836,0.363951 0.09441,0.363951 0.01485,0 0.105136,-0.05789 0.200748,-0.128654 0.206388,-0.152756 1.64191,-0.892297 1.517885,-0.78197 -0.102317,0.09101 -0.637769,0.443485 -0.869198,0.572165 -0.347415,0.193175 -0.569618,0.366155 -0.629657,0.490175 -0.138441,0.285975 -0.0118,0.437425 0.307214,0.367288 0.145304,-0.03196 1.121425,-0.410519 1.44048,-0.558667 0.152284,-0.0707 0.283857,-0.128564 0.292381,-0.128564 0.0195,0 -0.607741,0.409681 -0.786044,0.513399 -0.179228,0.104268 -0.212825,0.170655 -0.137729,0.272218 0.05991,0.08103 0.172268,0.383981 0.172268,0.464485 0,0.03103 0.01612,0.04129 0.04906,0.03123 0.133034,-0.04069 0.609461,-0.221452 0.680492,-0.258183 0.175866,-0.09094 0.113131,-0.03422 -0.0913,0.08257 -0.319532,0.182522 -0.542177,0.345843 -0.577672,0.423746 -0.01723,0.03781 -0.04525,0.06876 -0.06226,0.06876 -0.01702,0 -0.0043,0.04313 0.02835,0.09591 0.117945,0.19084 0.195132,0.485111 0.227492,0.86732 0.01718,0.202726 0.03604,0.373503 0.04197,0.379501 0.0059,0.0061 0.07103,-0.05709 0.144684,-0.140183 0.190465,-0.214886 0.289121,-0.313752 0.301073,-0.301718 0.0057,0.0057 -0.09085,0.212304 -0.214567,0.459042 -0.123701,0.246739 -0.234911,0.481963 -0.247121,0.522717 -0.0245,0.08176 0.04619,0.243448 0.233655,0.534395 0.05667,0.08793 0.103006,0.165744 0.103006,0.172915 0,0.0072 0.02478,0.07086 0.05508,0.141533 0.08235,0.192104 0.133095,0.176504 0.425775,-0.130867 z m 1.689488,-0.481295 c 0.24574,-0.137653 0.601716,-0.480682 0.78086,-0.752477 0.211427,-0.320772 0.454215,-0.788921 0.708842,-1.366807 0.280276,-0.636097 0.33671,-0.787864 0.435666,-1.171648 0.111688,-0.433192 0.108591,-0.557735 -0.01815,-0.729986 -0.01156,-0.01557 -0.563374,0.161768 -0.895089,0.287628 -0.366512,0.139063 -1.070551,0.516674 -1.231601,0.660567 -0.20278,0.181177 -0.436108,0.534146 -0.675007,1.021123 -0.150621,0.307044 -0.255325,0.561749 -0.291573,0.709325 -0.0533,0.217008 -0.05434,0.250084 -0.01806,0.57479 0.04381,0.392104 0.06413,0.458329 0.187669,0.612068 0.112572,0.140077 0.18363,0.186058 0.367023,0.237508 0.221361,0.0621 0.441731,0.03424 0.64943,-0.08211 z M 18.00249,33.948655 c 0.122684,-0.243989 0.175787,-0.427417 0.175787,-0.607198 0,-0.252359 -0.118874,-0.394898 -0.264382,-0.317024 -0.09403,0.05032 -0.246492,0.303208 -0.261139,0.433163 -0.02096,0.185884 0.151319,0.706417 0.225752,0.682108 0.01837,-0.0061 0.07416,-0.09197 0.123987,-0.191049 z m -1.707968,-1.630902 c 0.01908,-0.165839 -0.487783,-0.790152 -0.710603,-0.87525 -0.12173,-0.04649 -0.13137,-0.04653 -0.18198,-6.35e-4 -0.0294,0.02661 -0.0676,0.09125 -0.0849,0.143653 -0.0278,0.08423 -0.0231,0.109031 0.0405,0.213909 0.0952,0.156945 0.11641,0.180586 0.29726,0.331015 0.24711,0.20554 0.38987,0.280327 0.51871,0.271745 0.09922,-0.0067 0.11317,-0.01635 0.121007,-0.08435 z m -1.337003,-1.116189 c 0.1363,-0.156856 0.0599,-0.590968 -0.13616,-0.773288 -0.14094,-0.131093 -0.3988,-0.242574 -0.56848,-0.245783 -0.14959,-0.0028 -0.15448,-6.35e-4 -0.16337,0.07717 -0.008,0.06695 0.02,0.108341 0.16876,0.252347 0.1442,0.139624 0.19298,0.210987 0.2574,0.376624 0.0973,0.250198 0.23685,0.411967 0.33156,0.384373 0.0355,-0.01023 0.0851,-0.0425 0.11029,-0.07144 z m -0.89259,-1.461784 c 0.0725,-0.09754 0.0769,-0.40591 0.008,-0.569591 -0.0529,-0.125792 -0.21583,-0.306647 -0.33044,-0.366814 -0.14545,-0.07637 -0.38692,-0.02634 -0.38692,0.0802 0,0.015 0.0551,0.104445 0.12249,0.198934 0.0674,0.0945 0.18775,0.301928 0.26752,0.460983 0.15948,0.317991 0.20701,0.347215 0.31927,0.196284 z M 24.99165,28.751439 c 0,-0.114656 -0.01257,-0.241643 -0.02805,-0.282194 -0.03258,-0.08569 -0.77642,-0.839372 -1.206804,-1.22278 -0.452887,-0.403454 -1.092309,-0.936844 -1.526966,-1.273751 -0.215898,-0.167345 -0.493477,-0.384489 -0.616849,-0.482547 -0.280881,-0.223255 -0.651489,-0.46843 -1.219677,-0.806879 -0.10024,-0.0597 -0.311122,-0.193275 -0.468632,-0.296818 -0.308201,-0.202606 -1.624837,-0.877574 -2.213155,-1.134566 -0.740768,-0.323586 -0.958457,-0.413863 -1.313711,-0.5448 -0.200476,-0.07388 -0.459127,-0.171917 -0.574787,-0.217836 -0.29665,-0.117778 -0.49284,-0.171127 -0.53454,-0.145351 -0.0485,0.02998 0.12295,0.136184 0.59312,0.367378 0.20681,0.101701 0.659905,0.324799 1.006882,0.495775 0.346979,0.170979 0.744425,0.356751 0.883215,0.412835 0.616116,0.248953 1.702992,0.798833 2.074855,1.049727 0.107948,0.07282 0.240431,0.157369 0.294406,0.187856 0.356233,0.201227 0.674335,0.406363 0.959835,0.618977 0.483065,0.359739 1.209509,0.923063 1.421132,1.102019 0.101503,0.08583 0.291811,0.236935 0.422891,0.335773 0.348203,0.262561 1.652333,1.581729 1.916059,1.938157 0.04374,0.05912 0.09105,0.107495 0.105147,0.107495 0.01409,0 0.02562,-0.0938 0.02562,-0.208461 z m -8.405222,-0.19545 c 0.296405,-0.07519 0.377621,-0.112212 0.820789,-0.374321 0.593781,-0.351166 0.792037,-0.505792 0.933953,-0.728404 0.146486,-0.229773 0.0737,-0.343765 -0.250941,-0.392992 -0.211624,-0.03209 -0.38836,-0.0026 -0.951121,0.159078 -0.637256,0.183005 -1.238209,0.430291 -1.352319,0.556469 -0.16776,0.185502 0.0204,0.642926 0.33065,0.803684 0.111811,0.05793 0.156786,0.05569 0.468989,-0.02353 z m -3.314119,-0.1012 c 0.0292,-0.01563 0.0935,-0.0871 0.14286,-0.158804 0.0756,-0.109901 0.0918,-0.162652 0.1029,-0.336316 0.0241,-0.376145 -0.12727,-0.603563 -0.42674,-0.640979 -0.17644,-0.02203 -0.27252,-0.005 -0.33751,0.06003 -0.0558,0.05576 -0.0356,0.129609 0.0733,0.267974 0.11323,0.14394 0.21011,0.370182 0.25014,0.584208 0.0463,0.247452 0.0796,0.285686 0.19507,0.223888 z m 7.068742,-1.233275 c 0.01334,-0.242128 0.044,-0.420224 0.122913,-0.714986 0.161925,-0.604804 0.161727,-0.601448 0.0496,-0.836469 -0.05273,-0.110534 -0.142366,-0.249118 -0.199187,-0.30798 -0.132623,-0.137396 -0.378548,-0.287127 -0.544455,-0.331499 -0.203936,-0.05455 -0.24747,-0.02032 -0.354478,0.278845 -0.08823,0.246653 -0.390553,0.791609 -0.557935,1.00572 -0.10584,0.13538 -0.128368,0.23238 -0.08865,0.381696 0.04365,0.164083 0.140228,0.281135 0.34318,0.415949 0.395559,0.262751 0.877234,0.451988 1.113039,0.437284 l 0.09813,-0.0061 z m -4.126307,0.04382 c 0.239488,-0.08385 0.523752,-0.177938 0.6317,-0.209095 0.249519,-0.07202 0.640567,-0.322894 0.654272,-0.419754 0.01272,-0.08987 -0.137259,-0.241288 -0.301943,-0.304853 -0.19426,-0.07498 -1.069434,-0.0634 -1.529944,0.02025 -0.18506,0.03361 -0.37903,0.08118 -0.43104,0.105707 -0.16875,0.07957 -0.22544,0.352487 -0.12963,0.624061 0.0548,0.155302 0.11116,0.218625 0.25224,0.283408 0.1965,0.09023 0.36946,0.07006 0.85434,-0.09972 z m -3.546075,-0.212029 c 0.0653,-0.06812 0.0827,-0.11468 0.0918,-0.245337 0.0106,-0.151504 0.004,-0.170669 -0.10099,-0.317024 -0.0617,-0.08567 -0.16224,-0.190445 -0.22339,-0.232818 -0.0953,-0.06605 -0.13426,-0.07582 -0.27283,-0.06853 -0.22532,0.01179 -0.24092,0.04787 -0.12617,0.291352 0.0502,0.106601 0.10387,0.220762 0.11917,0.253705 0.0153,0.03293 0.091,0.137032 0.16823,0.23132 0.16188,0.197659 0.22352,0.213302 0.3442,0.08733 z m 2.67721,-1.044683 c 0.25766,-0.128868 0.43629,-0.284099 0.51279,-0.445627 0.0535,-0.112988 0.0634,-0.279988 0.0213,-0.358737 -0.0648,-0.121109 -0.46583,-0.200418 -0.7316,-0.144683 -0.2611,0.05475 -0.57817,0.196691 -0.68494,0.306623 -0.11529,0.118684 -0.12272,0.189939 -0.0422,0.405106 0.065,0.17377 0.16068,0.275194 0.33162,0.351565 0.15534,0.06941 0.27005,0.04732 0.59307,-0.114252 z m 2.183543,0.01022 c 0.02096,-0.01334 0.06732,-0.167643 0.103037,-0.343043 0.07422,-0.364423 0.211665,-0.70804 0.377017,-0.942507 0.156573,-0.222021 0.16949,-0.324649 0.05985,-0.475485 -0.09753,-0.134153 -0.197715,-0.166613 -0.429564,-0.139154 -0.460564,0.05455 -0.695172,0.416703 -0.695172,1.073113 0,0.489403 0.07257,0.645071 0.369176,0.791887 0.134199,0.06641 0.159786,0.0706 0.215668,0.03519 z m -5.532733,-0.184347 0.10305,-0.09718 -0.0105,-0.232265 c -0.009,-0.198671 -0.022,-0.249327 -0.09,-0.350222 -0.12808,-0.19015 -0.34754,-0.226283 -0.563551,-0.09278 l -0.0951,0.05879 0.0536,0.118039 c 0.0295,0.06491 0.0538,0.160666 0.0542,0.212775 3.2e-4,0.06629 0.028,0.125927 0.0917,0.198647 0.0501,0.05715 0.112631,0.143849 0.138901,0.192656 0.0669,0.124398 0.17999,0.121399 0.31766,-0.0085 z m 2.69256,-0.914878 c 0.69703,-0.275727 0.93752,-0.430479 0.93752,-0.603291 0,-0.154014 -0.2241,-0.192838 -0.729,-0.126291 -0.79468,0.104743 -1.07032,0.148501 -1.18776,0.188514 -0.12234,0.04167 -0.13005,0.05028 -0.13005,0.144986 0,0.134609 0.0954,0.324229 0.2381,0.473132 0.17001,0.177446 0.24449,0.170859 0.87119,-0.07706 z m -3.198821,-0.226425 c 0.0859,-0.03915 0.11138,-0.121822 0.0872,-0.283137 -0.0399,-0.265948 -0.24364,-0.552754 -0.42505,-0.598287 -0.0994,-0.02495 -0.33823,0.0016 -0.38837,0.04331 -0.037,0.03068 -0.0367,0.04751 0.003,0.14582 0.0302,0.07542 0.0389,0.151862 0.0271,0.23781 -0.023,0.167945 0.0289,0.263406 0.19845,0.364945 0.21159,0.126714 0.35843,0.153115 0.49798,0.08953 z m 2.552161,-0.668863 c 0.2159,-0.03078 0.52959,-0.06806 0.6971,-0.08286 0.29085,-0.02568 0.40051,-0.06065 0.36591,-0.116645 -0.0203,-0.03282 -0.46772,-0.257895 -0.66209,-0.333041 -0.33475,-0.129427 -1.05185,-0.215648 -1.55629,-0.187136 -0.35721,0.02018 -0.41296,0.04566 -0.39135,0.178805 0.0182,0.111903 0.14769,0.326003 0.2628,0.434356 0.17085,0.16083 0.6335,0.199214 1.28392,0.106518 z m -3.563901,-0.388666 c 0.13167,-0.137442 0.15569,-0.44157 0.0495,-0.626533 -0.0937,-0.163185 -0.39133,-0.207398 -0.5295104,-0.07866 -0.0547,0.05101 -0.14783,0.379782 -0.14783,0.522162 0,0.0838 0.0897,0.16707 0.2356504,0.218854 0.18982,0.06734 0.30331,0.05698 0.39222,-0.03582 z m 5.456161,-0.07735 c 0.0685,-0.01363 0.10042,-0.04124 0.13005,-0.112153 0.0835,-0.199926 -0.0623,-0.356567 -0.54749,-0.587878 -0.44144,-0.210478 -0.50759,-0.197481 -0.50739,0.09969 2.1e-4,0.259478 0.13608,0.414719 0.47827,0.546327 0.18758,0.07214 0.29248,0.08482 0.44655,0.05401 z m -3.89702,-0.330249 c 0.33539,-0.128232 0.46558,-0.161642 0.72901,-0.187113 0.18514,-0.01789 0.41926,-0.0193 0.63086,-0.0039 0.35351,0.02591 0.42373,0.01455 0.53974,-0.08777 0.12902,-0.113726 0.0492,-0.444684 -0.14248,-0.590901 -0.22821,-0.174062 -0.68515,-0.268056 -1.30311,-0.268056 -0.45289,0 -0.53763,0.02043 -0.958711,0.231179 -0.27904,0.139653 -0.29633,0.153417 -0.33126,0.263792 -0.074,0.233819 0.0954,0.526252 0.35265,0.608886 0.242891,0.07801 0.348351,0.08538 0.483311,0.0338 z m 21.822068,22.407764 c -0.105946,-0.115621 -0.179194,-0.303014 -0.264047,-0.675414 -0.126686,-0.555992 -0.283421,-1.038499 -0.438081,-1.348621 -0.234662,-0.470546 -0.600871,-0.811468 -0.986511,-0.918403 -0.253957,-0.07042 -0.365125,-0.06516 -0.495501,0.02343 -0.153046,0.103997 -0.246993,0.09361 -0.386591,-0.04268 -0.206687,-0.201792 -0.361085,-0.217632 -0.822396,-0.08438 -0.455268,0.131502 -0.555596,0.190717 -0.637702,0.376373 -0.18965,0.428833 -0.586158,0.115537 -0.586732,-0.463603 -2.14e-4,-0.248445 0.05273,-0.597691 0.120035,-0.791234 0.08192,-0.235564 0.202341,-1.002543 0.20836,-1.326982 0.0051,-0.274599 0.0026,-0.287146 -0.101899,-0.498599 -0.181646,-0.3678 -0.464126,-0.542098 -0.838899,-0.517624 -0.249176,0.01628 -0.393725,0.08503 -0.548514,0.260868 -0.14491,0.164626 -0.20179,0.333355 -0.20179,0.598586 0,0.33832 0.11926,0.521102 0.434621,0.666106 0.123321,0.0567 0.160984,0.06154 0.312532,0.04012 0.207238,-0.02929 0.256394,-0.05355 0.369363,-0.182209 0.201354,-0.229325 0.177311,-0.590061 -0.05218,-0.78318 -0.226072,-0.190226 -0.636414,0.02185 -0.544012,0.281154 0.05898,0.165517 0.214572,0.156144 0.231499,-0.01394 0.0106,-0.107411 0.07997,-0.117897 0.166499,-0.02521 0.0853,0.09137 0.103454,0.196136 0.05146,0.29669 -0.06147,0.118838 -0.149789,0.172972 -0.282057,0.172849 -0.350597,-3.18e-4 -0.569768,-0.46103 -0.369929,-0.777598 0.136063,-0.215536 0.311735,-0.301698 0.576127,-0.282577 0.239946,0.01736 0.39248,0.133699 0.523897,0.399618 0.0954,0.193012 0.101858,0.22212 0.09165,0.413124 -0.02607,0.488182 -0.358838,0.820067 -0.82251,0.820353 -0.166677,1.05e-4 -0.222824,-0.01363 -0.372343,-0.0909 -0.242003,-0.12511 -0.393312,-0.269764 -0.485315,-0.463983 -0.217165,-0.458448 -0.105409,-0.995045 0.376197,-1.806403 0.343008,-0.57785 0.484285,-0.934853 0.515562,-1.302781 0.01835,-0.215941 0.0644,-0.256725 0.06331,-0.05608 -0.0023,0.43616 -0.102442,0.975212 -0.226021,1.217436 -0.08608,0.168748 -0.06353,0.193314 0.133517,0.145411 0.285169,-0.06933 0.598836,-0.01363 0.80402,0.142926 l 0.09396,0.07165 0.004,-1.000007 c 0.0023,-0.550005 0.009,-1.00496 0.015,-1.011014 0.01864,-0.01864 0.09536,0.46053 0.145093,0.906081 l 0.04727,0.423439 0.241965,-0.08995 c 0.676837,-0.251638 0.871046,-0.449403 0.894747,-0.911127 0.0067,-0.131078 0.02118,-0.248001 0.03207,-0.259827 0.01097,-0.0118 0.05374,0.09171 0.09514,0.230068 0.07387,0.246771 0.07906,0.254791 0.272225,0.421046 0.202819,0.174559 0.243025,0.191031 0.339839,0.139215 0.05432,-0.02906 0.05581,-0.04775 0.03771,-0.469648 -0.01659,-0.38695 -0.08172,-0.848168 -0.14023,-0.993139 -0.04342,-0.107579 0.03458,-0.04002 0.121413,0.105136 0.05073,0.08481 0.110855,0.154213 0.133609,0.154213 0.02276,0 0.04863,0.01891 0.05751,0.04206 0.009,0.02315 0.03935,0.04206 0.06773,0.04206 0.02836,0 0.129427,0.04564 0.224566,0.101388 0.150501,0.0882 0.190643,0.09969 0.308748,0.08833 0.08957,-0.0086 0.169538,-0.03881 0.235063,-0.08878 0.086,-0.0656 0.0993,-0.09154 0.09918,-0.193492 -1.09e-4,-0.09877 -0.03285,-0.167701 -0.203281,-0.428063 -0.314349,-0.480224 -0.45988,-0.651868 -0.584303,-0.689146 -0.09799,-0.02935 -0.116813,-0.02516 -0.241083,0.05385 -0.07413,0.04713 -0.18897,0.100022 -0.255187,0.117515 -0.148138,0.03915 -0.197968,0.132215 -0.133244,0.24888 0.07944,0.143229 0.130654,0.262933 0.117908,0.275673 -0.02336,0.02336 -0.124246,-0.105708 -0.213539,-0.273215 -0.06398,-0.12005 -0.131304,-0.196102 -0.246747,-0.278775 -0.273321,-0.195715 -0.362695,-0.180134 -0.376936,0.06572 -0.0082,0.142078 -0.01049,0.137336 -0.117147,-0.241688 -0.05981,-0.212632 -0.100762,-0.394578 -0.09104,-0.404317 0.0097,-0.0096 0.115454,0.07713 0.234913,0.19306 0.160711,0.155952 0.257312,0.225586 0.371416,0.26773 0.235526,0.08699 0.325737,0.0997 0.43998,0.06199 0.139183,-0.04593 0.348498,-0.199732 0.40483,-0.29745 0.04541,-0.07877 0.143319,-0.468538 0.178396,-0.710163 0.01012,-0.06939 0.0255,-0.151197 0.03425,-0.181792 0.01574,-0.05492 0.0162,-0.0549 0.03709,0.0016 0.02394,0.06473 -0.0141,0.49738 -0.05821,0.660986 -0.04111,0.152651 0.0055,0.295259 0.139471,0.426662 0.06072,0.05955 0.212876,0.251972 0.338132,0.427585 0.218138,0.305845 0.268593,0.36581 0.235732,0.280182 -0.03106,-0.08092 0.05652,-0.291949 0.22808,-0.549654 0.188236,-0.282749 0.256109,-0.454056 0.226553,-0.571812 -0.01898,-0.07562 -0.300799,-0.332405 -0.653367,-0.595334 -0.11082,-0.08264 -0.211122,-0.166132 -0.222894,-0.185531 -0.0118,-0.0194 0.02527,-6.35e-4 0.08233,0.04184 0.05706,0.0424 0.144834,0.107804 0.195061,0.145334 0.109687,0.08195 0.381463,0.211498 0.44449,0.211881 0.03348,2.12e-4 0.04991,-0.03774 0.06355,-0.146926 0.05243,-0.419343 0.119778,-0.687072 0.205306,-0.81618 0.06111,-0.09227 0.093,-0.181378 0.106494,-0.297645 0.0106,-0.09127 0.01288,-0.176174 0.0051,-0.188672 -0.01469,-0.02378 -0.595736,-0.39602 -0.858393,-0.549929 -0.08376,-0.04909 -0.157303,-0.104838 -0.163426,-0.123897 -0.0061,-0.01904 0.07192,0.0158 0.173408,0.07746 0.101493,0.06165 0.325615,0.169527 0.498045,0.239704 0.172427,0.07018 0.334831,0.139001 0.360896,0.152955 0.03938,0.02108 0.05012,0.0086 0.06348,-0.07375 0.0089,-0.05451 0.0026,-0.128882 -0.0141,-0.165272 -0.02417,-0.05306 -0.01904,-0.08462 0.0259,-0.159341 0.147411,-0.24513 0.109628,-0.351261 -0.166073,-0.466486 -0.294265,-0.122989 -0.583805,-0.256344 -0.583805,-0.268887 0,-0.0059 0.135638,0.03686 0.301416,0.09505 0.259492,0.0911 0.710688,0.223796 1.296782,0.381402 0.08481,0.02281 0.221563,0.06097 0.303877,0.08479 0.0823,0.02382 0.156152,0.03683 0.164078,0.02889 0.0211,-0.0211 -0.07261,-0.289239 -0.112761,-0.322562 -0.04988,-0.04139 -0.883706,-0.504321 -1.420654,-0.788721 -0.254448,-0.134774 -0.63297,-0.343989 -0.841155,-0.464924 -0.613366,-0.356311 -0.906866,-0.516906 -0.978681,-0.535514 -0.113274,-0.02935 -0.157773,0.02315 -0.149956,0.176946 0.01108,0.218578 0.167139,0.500095 0.428089,0.77235 0.122897,0.128215 0.22355,0.236282 0.223671,0.240139 9.54e-4,0.03024 -0.161637,-0.0056 -0.284387,-0.06281 -0.08249,-0.0384 -0.166174,-0.06995 -0.18596,-0.0701 -0.01976,-1.07e-4 -0.175919,-0.07011 -0.346965,-0.155454 -0.17105,-0.08536 -0.438753,-0.191318 -0.594898,-0.235485 -0.156144,-0.04417 -0.427656,-0.120185 -0.60336,-0.168932 -0.175703,-0.04876 -0.493265,-0.157273 -0.705699,-0.241172 -0.212431,-0.0839 -0.421961,-0.152475 -0.465622,-0.152387 -0.20354,3.18e-4 -0.430178,0.123821 -0.381688,0.207854 0.03939,0.06827 0.407675,0.30247 0.694481,0.441647 0.17229,0.08362 0.422389,0.173517 0.647377,0.232731 0.496949,0.13079 0.819286,0.250989 1.018723,0.379888 0.19297,0.124716 0.202497,0.139594 0.269174,0.42004 0.05786,0.24337 0.252661,0.70068 0.372794,0.875157 0.04551,0.06611 0.178933,0.232423 0.29647,0.369573 0.117539,0.137139 0.213705,0.262871 0.213705,0.279383 0,0.03916 -0.0274,0.009 -0.34233,-0.376891 -0.283145,-0.346938 -0.45215,-0.612459 -0.429324,-0.674505 0.01789,-0.04864 -0.01097,-0.09115 -0.0902,-0.132866 -0.03452,-0.01818 -0.07076,-0.06739 -0.08057,-0.109342 -0.02973,-0.127306 -0.125034,-0.40538 -0.166292,-0.485164 -0.09964,-0.192661 -0.32477,-0.311407 -0.767748,-0.404935 -0.379673,-0.08016 -0.867018,-0.219481 -0.989714,-0.282931 -0.07503,-0.03879 -0.145381,-0.05265 -0.372276,-0.07326 -0.08391,-0.0076 -0.0841,-0.0073 -0.07843,0.132548 0.0032,0.07711 0.04408,0.264627 0.09104,0.416709 0.07196,0.23318 0.08285,0.305681 0.06939,0.462637 -0.01485,0.172493 -0.0086,0.201096 0.08369,0.390611 0.0548,0.112463 0.136289,0.257756 0.181091,0.322862 0.04479,0.06511 0.141001,0.263291 0.213775,0.440403 0.213504,0.51956 0.50018,1.09324 0.644313,1.289351 l 0.133942,0.182249 -0.118291,-0.112153 c -0.06506,-0.0617 -0.176279,-0.192831 -0.247162,-0.291437 l -0.128882,-0.179277 -0.08578,0.10217 c -0.04718,0.05619 -0.102588,0.102171 -0.123125,0.102171 -0.02718,0 -0.02197,0.02486 0.01914,0.09138 0.04999,0.08089 0.05749,0.148546 0.06538,0.588846 0.0078,0.440294 0.0039,0.497458 -0.0358,0.497426 -0.03431,-2.8e-5 -0.05216,-0.05062 -0.07677,-0.217333 -0.09085,-0.615289 -0.17777,-0.933308 -0.28049,-1.026271 -0.02766,-0.02505 -0.08867,-0.05321 -0.135563,-0.06258 -0.167046,-0.03341 -0.364893,0.217247 -0.466628,0.591175 -0.04217,0.155011 -0.131593,0.894149 -0.172984,1.429966 -0.04691,0.607153 -0.23602,1.715988 -0.349079,2.046818 -0.02723,0.07973 -0.02805,0.07825 -0.01552,-0.02805 0.143653,-1.217093 0.150303,-1.846823 0.02772,-2.621607 -0.02318,-0.146501 -0.0677,-0.44301 -0.09893,-0.658908 -0.03125,-0.215894 -0.06238,-0.411465 -0.06923,-0.434597 -0.0068,-0.02315 -0.04475,-0.231317 -0.08427,-0.462636 -0.03951,-0.231317 -0.127943,-0.674014 -0.196509,-0.983769 -0.181212,-0.818646 -0.215413,-1.264044 -0.134382,-1.749993 0.016,-0.09591 0.01515,-0.09703 -0.03888,-0.04908 -0.03039,0.02699 -0.07664,0.04908 -0.102786,0.04908 -0.08392,0 -0.100303,-0.114644 -0.05851,-0.409564 0.02162,-0.152559 0.03955,-0.42258 0.03984,-0.600045 6.35e-4,-0.314675 -0.0028,-0.332726 -0.139228,-0.729003 -0.07688,-0.223487 -0.139957,-0.434998 -0.140199,-0.470026 -6.36e-4,-0.07701 0.12264,-0.14691 0.171959,-0.09759 0.0382,0.0382 0.13829,0.279829 0.252664,0.609897 0.07314,0.211091 0.09034,0.311244 0.105231,0.612585 0.01549,0.313665 0.02493,0.365445 0.07288,0.400519 0.07635,0.05583 0.081,0.02458 0.04344,-0.29283 -0.03468,-0.293243 -0.03727,-0.28501 0.120519,-0.383812 0.04002,-0.02505 0.03293,-0.07114 -0.06689,-0.434597 -0.289619,-1.054526 -0.28203,-1.010993 -0.195557,-1.121543 0.03175,-0.04061 0.0551,-0.114299 0.05545,-0.175161 3.19e-4,-0.07834 0.02413,-0.13182 0.0931,-0.210291 0.05086,-0.05787 0.157272,-0.187236 0.236476,-0.287472 0.07921,-0.100241 0.419262,-0.455897 0.755694,-0.790353 0.623621,-0.619958 1.31933,-1.217594 1.747251,-1.500935 0.765569,-0.506913 1.283334,-0.835128 1.390559,-0.881487 0.09854,-0.0426 0.397247,-0.209687 0.922622,-0.516076 0.215898,-0.125896 0.513199,-0.281442 0.660673,-0.345641 0.147469,-0.06419 0.443977,-0.212094 0.658905,-0.328659 0.214927,-0.116562 0.548494,-0.297619 0.74126,-0.402342 0.192764,-0.104718 0.490287,-0.266274 0.661161,-0.359014 0.739092,-0.401137 1.357794,-0.67143 1.988483,-0.868716 1.015551,-0.317676 1.416443,-0.384137 2.313184,-0.383495 0.647186,3.18e-4 0.714716,0.01287 1.332619,0.244456 0.817747,0.306517 1.066363,0.451265 1.413476,0.822953 0.393999,0.421892 0.502498,0.816148 0.365974,1.329861 -0.03454,0.129958 -0.07281,0.327508 -0.08504,0.438985 -0.02894,0.263583 -0.127018,0.475839 -0.273494,0.591855 -0.156387,0.123866 -0.216858,0.231559 -0.295948,0.52709 -0.08084,0.302055 -0.112368,0.365757 -0.29029,0.586576 -0.245322,0.304457 -0.277034,0.374897 -0.40785,0.905897 -0.01659,0.06733 -0.07865,0.183754 -0.137911,0.258734 -0.262738,0.332387 -0.381277,0.549136 -0.416212,0.761054 -0.04325,0.262429 -0.08529,0.349109 -0.269198,0.555218 -0.083,0.09302 -0.174715,0.215996 -0.203812,0.273284 -0.06153,0.121109 -0.199501,0.547572 -0.19973,0.617312 -6.36e-4,0.147333 -0.07215,0.280748 -0.251037,0.467269 -0.269483,0.280992 -0.492887,0.623894 -0.564411,0.866313 -0.09712,0.329108 -0.175902,0.443899 -0.496658,0.723555 -0.161217,0.140562 -0.313585,0.292777 -0.338596,0.338262 -0.143486,0.260923 -0.19722,0.323617 -0.329694,0.384602 -0.371703,0.17112 -0.498177,0.245434 -0.728045,0.427783 -0.340686,0.27025 -0.440846,0.330182 -0.67813,0.405751 -0.230431,0.07338 -0.59966,0.08671 -0.945233,0.03409 -0.107948,-0.01644 -0.306029,-0.04566 -0.440173,-0.06493 l -0.2439,-0.03505 0.244971,0.240736 c 0.344018,0.338062 0.511295,0.575697 0.66208,0.940555 0.131396,0.317947 0.152549,0.427516 0.09385,0.48621 -0.05903,0.05903 -0.126837,0.03653 -0.212767,-0.07059 -0.07532,-0.0939 -0.08847,-0.10022 -0.132456,-0.06371 -0.118219,0.09812 0.0206,0.707821 0.293561,1.289483 0.204259,0.435252 0.238062,0.547499 0.213738,0.709718 -0.02746,0.183133 -0.115453,0.25975 -0.325625,0.283528 -0.132792,0.015 -0.18983,0.03764 -0.267941,0.10622 -0.135973,0.119383 -0.235829,0.325235 -0.235829,0.486127 0,0.175296 0.100324,0.559029 0.186554,0.713575 0.114144,0.20458 0.205988,0.451325 0.205988,0.553431 0,0.129927 -0.04386,0.201367 -0.151137,0.246194 -0.07851,0.03281 -0.121777,0.03087 -0.325217,-0.01454 -0.365926,-0.08157 -0.586724,-0.03074 -0.734668,0.16909 -0.139275,0.188135 -0.178107,0.723333 -0.0794,1.094474 0.06674,0.250942 0.07135,0.421259 0.0144,0.5314 -0.08628,0.166839 -0.202769,0.17885 -0.402451,0.0415 -0.362258,-0.24919 -0.52804,-0.03056 -0.515814,0.680243 0.0052,0.306144 0.02404,0.452238 0.106244,0.827138 0.05492,0.250428 0.130805,0.636222 0.168638,0.857323 0.03782,0.221102 0.08853,0.486066 0.112654,0.588811 0.219526,0.934823 0.276361,1.423615 0.197186,1.695961 -0.07554,0.259846 -0.218649,0.346196 -0.345071,0.20821 z m -0.525893,-2.703592 c 0.06773,-0.06773 0.04016,-0.185944 -0.122914,-0.527339 -0.230044,-0.481583 -0.498663,-0.824295 -0.826709,-1.054747 -0.24472,-0.171914 -0.350803,-0.208485 -0.480551,-0.165665 -0.121172,0.03998 -0.302686,0.241994 -0.345145,0.384091 -0.0471,0.157616 -0.04909,0.461987 -0.0034,0.534988 0.06076,0.09726 0.102213,0.09585 0.238578,-0.0083 0.226012,-0.172519 0.494362,-0.131397 0.819415,0.125532 0.07254,0.05735 0.213732,0.222248 0.313769,0.366468 0.19473,0.280748 0.289101,0.39186 0.332813,0.39186 0.015,0 0.04844,-0.0211 0.07425,-0.04693 z m -3.070275,-0.627738 c 0.310069,-0.151631 0.53487,-0.22256 0.705386,-0.22256 0.185759,0 0.23559,-0.167072 0.118326,-0.396677 -0.04442,-0.08694 -0.244873,-0.192131 -0.366184,-0.192131 -0.118468,0 -0.524097,0.210014 -0.622845,0.32248 -0.08937,0.101795 -0.197245,0.35878 -0.220668,0.525686 -0.01272,0.09091 -0.0073,0.105147 0.04049,0.105147 0.03039,0 0.185862,-0.06388 0.345504,-0.14194 z m 3.041914,-1.609128 c 0.06852,-0.392918 0.16598,-0.560356 0.335911,-0.577071 0.15798,-0.01555 0.221178,0.0047 0.310239,0.09908 0.0509,0.05398 0.104659,0.09813 0.119443,0.09813 0.07823,0 0.05568,-0.325212 -0.04267,-0.61488 -0.08601,-0.253334 -0.340026,-0.562741 -0.461999,-0.562741 -0.09892,0 -0.275602,0.11282 -0.363493,0.232079 -0.18151,0.246306 -0.203417,0.330722 -0.196786,0.758269 0.0057,0.366028 0.04623,0.661179 0.11605,0.844842 0.03064,0.0806 0.03157,0.08088 0.0853,0.02715 0.03603,-0.03603 0.06903,-0.138716 0.09802,-0.304855 z m 0.948784,-1.593163 c 0.03039,-0.02222 0.06927,-0.129351 0.103037,-0.283871 0.107257,-0.490838 0.228067,-0.642513 0.467777,-0.587305 0.08788,0.02025 0.116204,0.04543 0.164993,0.146759 0.07196,0.149439 0.123792,0.182665 0.217977,0.139744 0.09836,-0.04481 0.109652,-0.09478 0.06001,-0.265574 -0.07042,-0.242215 -0.144516,-0.392481 -0.25243,-0.511937 -0.08687,-0.09615 -0.123503,-0.115311 -0.250927,-0.131228 -0.208798,-0.02611 -0.365713,0.04713 -0.521753,0.243463 -0.206208,0.259456 -0.237635,0.356349 -0.232503,0.716862 0.0047,0.332978 0.03972,0.494735 0.116718,0.539664 0.06155,0.03592 0.06955,0.0355 0.127108,-0.0066 z m 0.727519,-2.270493 c 0.02604,-0.01926 0.07363,-0.110222 0.105792,-0.202104 0.08607,-0.245884 0.129668,-0.317872 0.221194,-0.365205 0.106471,-0.05506 0.157512,-0.05295 0.301701,0.01243 0.06518,0.02961 0.123927,0.04508 0.130532,0.03439 0.02029,-0.03281 -0.111796,-0.416056 -0.188495,-0.546931 -0.08239,-0.140578 -0.250926,-0.299539 -0.317592,-0.299539 -0.07704,0 -0.227309,0.110128 -0.317593,0.232764 -0.138198,0.187713 -0.188766,0.435668 -0.173672,0.851581 0.004,0.110199 0.02269,0.165778 0.07786,0.231316 0.0815,0.09686 0.0935,0.100689 0.160278,0.05122 z m -0.07823,-2.649647 c 0.03905,-0.241801 0.07984,-0.391503 0.133079,-0.488386 0.07024,-0.127821 0.05371,-0.173578 -0.08894,-0.24636 -0.157154,-0.08018 -0.195051,-0.07281 -0.246219,0.0478 -0.08615,0.203115 -0.0428,0.602574 0.07969,0.734047 0.07699,0.08264 0.103089,0.0726 0.122414,-0.0471 z m 1.811341,-1.470452 c 0.305495,-0.124504 0.687006,-0.387923 0.780182,-0.538683 0.134032,-0.216863 0.04191,-0.31489 -0.269658,-0.286999 -0.220568,0.01974 -0.324457,0.064 -0.53626,0.228488 -0.294841,0.228968 -0.413528,0.475062 -0.289114,0.599476 0.07472,0.07472 0.126851,0.07435 0.31485,-0.0023 z m -1.853822,-0.751606 c 0.06666,-0.06666 0.07425,-0.220514 0.01635,-0.330844 -0.07706,-0.14676 -0.320048,-0.340099 -0.763768,-0.607658 -0.0901,-0.05433 -0.147547,-0.09881 -0.127655,-0.09885 0.0471,-9.4e-5 0.242451,0.09949 0.384414,0.19598 0.161597,0.109819 0.303675,0.148199 0.500457,0.135154 0.318848,-0.02114 0.563909,-0.268861 0.559433,-0.565519 -0.002,-0.129427 -0.01243,-0.150789 -0.124458,-0.255501 -0.06728,-0.06283 -0.16017,-0.143033 -0.206434,-0.178183 -0.08024,-0.06097 -0.08087,-0.06306 -0.0141,-0.04551 0.03855,0.01012 0.107948,0.04223 0.154213,0.07131 0.196756,0.123731 0.427179,0.221565 0.521899,0.221583 0.07314,1.6e-5 0.122792,-0.02142 0.178536,-0.07709 0.09772,-0.09758 0.1145,-0.143169 0.170028,-0.461821 0.0498,-0.285842 0.04217,-0.390845 -0.04902,-0.674459 -0.05341,-0.166153 -0.07887,-0.203447 -0.202936,-0.297396 -0.07803,-0.05909 -0.18286,-0.130865 -0.23298,-0.159541 -0.0796,-0.04552 -0.119912,-0.09612 -0.0766,-0.09612 0.008,0 0.13732,0.06103 0.287393,0.135593 0.150078,0.07458 0.364986,0.164692 0.477574,0.200247 0.180212,0.05691 0.213285,0.06005 0.276405,0.02626 0.141728,-0.07586 0.346027,-0.454543 0.346027,-0.641424 0,-0.153749 -0.0608,-0.366891 -0.127155,-0.445744 -0.03634,-0.04319 -0.133002,-0.11387 -0.2148,-0.157053 -0.151198,-0.07984 -1.019043,-0.384099 -1.452517,-0.50925 -0.47183,-0.13623 -0.964422,-0.115931 -1.126773,0.04642 -0.202356,0.202358 -0.06727,0.350187 0.873254,0.955576 0.210249,0.135335 0.304,0.210121 0.271289,0.216421 -0.02749,0.0052 -0.07212,-0.01049 -0.09918,-0.03489 -0.02705,-0.02449 -0.07204,-0.04451 -0.09998,-0.04451 -0.02795,0 -0.146805,-0.05846 -0.264157,-0.129927 -0.776458,-0.472814 -0.831702,-0.494518 -1.294307,-0.508555 -0.353086,-0.01073 -0.395729,-0.0062 -0.60283,0.06275 -0.122578,0.04084 -0.269836,0.105041 -0.327243,0.142637 l -0.104373,0.06836 0.06489,0.09562 c 0.0796,0.117289 0.343247,0.360325 0.550424,0.507385 0.08481,0.0602 0.349784,0.262475 0.588813,0.449491 0.239029,0.187016 0.513479,0.395169 0.609891,0.462557 0.107411,0.07508 0.165246,0.13258 0.149349,0.148472 -0.01589,0.01589 -0.116335,-0.03896 -0.259412,-0.141699 -0.416102,-0.298788 -1.056967,-0.70847 -1.108515,-0.708633 -0.02763,-9e-5 -0.17455,-0.08168 -0.326508,-0.181288 -0.151955,-0.0996 -0.303364,-0.189564 -0.336462,-0.199885 -0.0331,-0.01022 -0.08507,-0.03599 -0.11549,-0.05703 -0.06534,-0.04524 -0.248139,-0.05043 -0.325097,-0.0093 -0.05485,0.02937 -0.194388,0.274803 -0.194388,0.34195 0,0.02003 -0.02524,0.08347 -0.05608,0.141018 -0.06623,0.123549 -0.07254,0.300085 -0.01469,0.411833 0.06781,0.131138 0.237246,0.254716 0.691652,0.504481 0.430801,0.236792 0.9213,0.528615 0.9213,0.54813 0,0.03427 -0.230751,-0.07047 -0.639921,-0.290465 -0.257182,-0.138273 -0.568542,-0.302096 -0.691912,-0.364053 l -0.224308,-0.112653 -0.01825,0.17342 c -0.01002,0.09539 -0.02947,0.211276 -0.04318,0.25754 -0.04284,0.144516 -0.01711,0.194469 0.13979,0.271428 0.08027,0.03938 0.240253,0.150381 0.355533,0.246702 0.471158,0.393664 1.78289,1.187647 2.22976,1.349661 0.197765,0.0717 0.473451,0.07007 0.546753,-0.0032 z m 3.244969,-0.455626 c 0.103444,-0.05123 0.215918,-0.132474 0.256958,-0.185598 0.04015,-0.05196 0.120307,-0.150517 0.178135,-0.219004 0.05783,-0.0685 0.105148,-0.136956 0.105148,-0.15214 0,-0.01519 -0.0308,-0.05841 -0.06845,-0.09606 -0.05497,-0.05497 -0.08673,-0.06513 -0.161223,-0.05163 -0.244367,0.0443 -0.59709,0.26767 -0.682015,0.431893 -0.05215,0.100856 -0.05204,0.135609 9.53e-4,0.262105 0.05452,0.130487 0.124306,0.132457 0.370643,0.01049 z m 0.801825,-1.149582 c 0.02121,-0.03469 0.137048,-0.238324 0.257404,-0.452505 0.239676,-0.426502 0.240988,-0.437147 0.06589,-0.533163 -0.09516,-0.05217 -0.101085,-0.05222 -0.262294,-0.0016 -0.194947,0.06131 -0.339881,0.179612 -0.41049,0.335039 -0.06922,0.152366 -0.06518,0.231109 0.02168,0.424443 0.0861,0.191612 0.167505,0.290782 0.2387,0.290782 0.02779,0 0.06791,-0.02839 0.08911,-0.06308 z m 0.78677,-1.740875 c 0.112297,-0.225929 0.137669,-0.304553 0.140198,-0.434383 l 0.0032,-0.15852 -0.100919,-0.02516 c -0.143578,-0.0358 -0.286071,-9.53e-4 -0.421518,0.102974 -0.158255,0.121459 -0.221804,0.213498 -0.239737,0.347206 -0.02032,0.15138 0.04117,0.26169 0.207068,0.371575 0.212051,0.140457 0.250148,0.12161 0.411824,-0.203693 z m -11.839263,0.100616 c 0.05469,-0.05783 0.190636,-0.227489 0.302094,-0.377021 0.20131,-0.270072 1.734172,-1.845036 1.795718,-1.845036 0.03576,0 0.181653,-0.107794 0.53672,-0.39655 0.144941,-0.117873 0.56435,-0.411038 0.932037,-0.651503 0.648079,-0.423839 0.830764,-0.523243 2.00916,-1.093258 0.177345,-0.0858 0.518013,-0.265611 0.757043,-0.399609 0.47816,-0.268054 1.742928,-0.916351 1.85187,-0.949233 0.03783,-0.01132 0.220181,-0.0941 0.405237,-0.183737 0.185054,-0.08965 0.39955,-0.187942 0.476654,-0.218458 0.07711,-0.03051 0.241131,-0.09595 0.364503,-0.14541 0.635632,-0.254843 0.847378,-0.304162 1.631888,-0.380089 0.905467,-0.08765 1.59079,-0.05625 1.810421,0.0829 0.07028,0.04452 0.20134,0.01287 0.182369,-0.044 -0.01705,-0.05111 -0.338741,-0.149107 -0.767728,-0.233885 -0.365072,-0.07214 -0.421274,-0.07599 -0.89425,-0.06104 -0.512356,0.01621 -0.798556,0.06197 -1.52125,0.243279 -0.316617,0.07944 -0.970723,0.339771 -1.394761,0.555119 -0.123368,0.06265 -0.482964,0.235463 -0.799099,0.384023 -0.316138,0.148562 -0.713582,0.349626 -0.883218,0.446812 -0.559278,0.320421 -0.81954,0.465094 -0.836669,0.465094 -0.0093,0 -0.247525,0.112964 -0.529403,0.251004 -0.487658,0.238835 -0.766929,0.392846 -1.465824,0.808368 -0.169632,0.100856 -0.41567,0.242378 -0.546751,0.314496 -0.268651,0.147805 -1.015445,0.622209 -1.371075,0.870971 -0.32599,0.228031 -0.680699,0.54394 -1.324124,1.179284 -0.922872,0.911277 -1.119741,1.215359 -0.928136,1.433561 0.06215,0.07076 0.09506,0.06183 0.206574,-0.05607 z m 9.451036,-1.046948 c 0.149349,-0.178728 0.23145,-0.565565 0.152451,-0.718334 -0.108531,-0.209883 -0.462958,-0.435178 -0.870297,-0.553221 -0.200033,-0.05796 -0.308055,-0.07179 -0.561137,-0.07179 -0.539881,0 -0.839564,0.121261 -1.0286,0.416212 -0.09654,0.150608 -0.07566,0.215606 0.112487,0.350411 0.223083,0.159831 0.681698,0.404319 0.885315,0.471967 0.107948,0.03586 0.200475,0.07467 0.205618,0.08624 0.0051,0.01156 0.0493,0.02206 0.09813,0.02331 0.04883,0.0014 0.177113,0.02585 0.285062,0.05466 0.138593,0.03697 0.262193,0.04931 0.420578,0.04199 0.213258,-0.0099 0.228055,-0.01485 0.300386,-0.10143 z m 2.810875,-0.01455 c 0.07633,-0.07633 0.255126,-0.352421 0.349717,-0.540021 0.08022,-0.159096 0.08632,-0.187373 0.0562,-0.260084 -0.06796,-0.164088 -0.28583,-0.242017 -0.436808,-0.156239 -0.082,0.04659 -0.262309,0.266631 -0.308626,0.376628 -0.05226,0.124109 -0.04677,0.224161 0.02043,0.372412 0.104385,0.230247 0.220609,0.305759 0.319065,0.207304 z m -6.805038,-0.332977 c 0.147971,-0.06055 0.451177,-0.380578 0.551709,-0.58232 0.121366,-0.243562 0.0896,-0.400782 -0.14014,-0.693182 -0.198815,-0.253062 -0.756492,-0.726357 -0.979662,-0.831431 -0.250815,-0.118099 -0.391544,-0.07742 -0.642496,0.185676 -0.175161,0.183635 -0.212721,0.259529 -0.212592,0.429531 3.18e-4,0.604444 0.372857,1.432152 0.6902,1.534079 0.127185,0.04084 0.595829,0.01378 0.732974,-0.04235 z m 4.684909,-0.876324 c 0.07459,-0.05569 0.190087,-0.344581 0.217119,-0.543131 0.02511,-0.184532 -0.05921,-0.367229 -0.203513,-0.440793 -0.332321,-0.169427 -0.905314,-0.341277 -1.137913,-0.341277 -0.181734,0 -0.406202,0.07483 -0.457,0.152354 -0.123669,0.188755 -0.05653,0.424896 0.188379,0.662586 0.156753,0.152129 0.546886,0.42325 0.685244,0.476201 0.307467,0.117683 0.578228,0.130716 0.707684,0.03407 z m 2.812104,-0.200448 c 0.145638,-0.229592 0.211458,-0.591561 0.133927,-0.736441 -0.03357,-0.06272 -0.230936,-0.16243 -0.323411,-0.163391 -0.156518,-0.0016 -0.306483,0.226827 -0.335626,0.51128 -0.01734,0.169106 -0.01227,0.19404 0.0711,0.350463 0.04936,0.09261 0.117183,0.180705 0.150715,0.195743 0.09953,0.04465 0.212082,-0.01378 0.303293,-0.157654 z M 35.308119,26.0203 c 0.146349,-0.107137 0.183397,-0.190874 0.193732,-0.437815 0.0072,-0.171673 -0.0059,-0.294681 -0.05008,-0.467613 -0.07391,-0.289937 -0.244476,-0.655343 -0.35961,-0.77048 -0.09647,-0.09647 -0.299061,-0.151122 -0.560273,-0.151122 h -0.151764 l 0.01926,0.08772 c 0.0106,0.04826 0.07891,0.161755 0.151837,0.252245 0.253285,0.314319 0.378249,0.6924 0.411243,1.244212 0.01012,0.169635 0.03062,0.323844 0.04549,0.342686 0.03058,0.03876 0.177674,-0.01012 0.300146,-0.09983 z m 3.199883,-0.706428 c 0.08869,-0.04746 0.162116,-0.229066 0.182171,-0.450543 0.01783,-0.197016 0.01519,-0.211009 -0.05263,-0.278812 -0.07209,-0.07206 -0.27534,-0.148549 -0.481766,-0.181332 -0.0617,-0.0099 -0.269872,-0.04754 -0.462638,-0.08389 -0.482157,-0.0909 -0.649831,-0.106374 -0.778253,-0.0718 -0.135094,0.03637 -0.192631,0.09715 -0.217167,0.229425 -0.01631,0.08783 -0.0069,0.11493 0.06992,0.202472 0.09741,0.110951 0.570752,0.358424 0.927144,0.484743 0.114751,0.04067 0.271728,0.0971 0.348836,0.125412 0.155522,0.05709 0.38108,0.06891 0.464387,0.02432 z m 2.693799,-0.295456 c 0.112011,-0.05792 0.19134,-0.2406 0.212118,-0.488436 0.01303,-0.155951 0.0068,-0.208746 -0.03192,-0.267816 -0.05662,-0.08641 -0.20061,-0.153053 -0.330342,-0.152907 -0.301336,3.17e-4 -0.482555,0.408816 -0.329969,0.743762 0.08885,0.195042 0.289275,0.264084 0.480119,0.165397 z m -1.928168,-0.906729 c 0.133624,-0.09193 0.298181,-0.309276 0.297981,-0.393553 -2.12e-4,-0.09832 -0.109306,-0.222756 -0.225871,-0.257679 -0.201534,-0.06038 -0.716106,0.0045 -1.243748,0.156981 -0.462181,0.133502 -0.626205,0.20492 -0.684302,0.297946 -0.02914,0.04669 -0.02498,0.05809 0.02963,0.08084 0.09187,0.03829 0.459,0.103506 0.862664,0.15322 0.192766,0.02376 0.388335,0.04837 0.4346,0.05474 0.225582,0.03102 0.391733,0.002 0.529049,-0.0925 z m -2.58965,-0.229511 c 0.07877,-0.01687 0.259177,-0.08471 0.40093,-0.150728 0.270604,-0.126003 1.063298,-0.374351 1.421339,-0.445303 0.380526,-0.0754 0.734312,-0.108985 0.937366,-0.08898 0.376458,0.03709 1.050289,0.02018 1.205305,-0.03024 0.208863,-0.06794 0.24061,-0.105243 0.24061,-0.282713 0,-0.198771 -0.05116,-0.312651 -0.19622,-0.436821 -0.17144,-0.146746 -0.332097,-0.175936 -0.931285,-0.169196 -0.846857,0.0095 -1.599739,0.132261 -2.301705,0.375238 -0.774324,0.268018 -1.158373,0.516337 -1.276668,0.825469 -0.03337,0.08722 -0.06068,0.174974 -0.06068,0.195025 0,0.07915 0.103183,0.158967 0.252393,0.19525 0.0848,0.02064 0.156702,0.03889 0.159798,0.04059 0.0032,0.0016 0.07008,-0.01073 0.148819,-0.0276 z m 5.20451,-0.01409 c 0.148198,-0.03977 0.159547,-0.27572 0.02601,-0.540884 -0.156888,-0.311534 -0.350407,-0.425693 -0.453889,-0.267759 -0.03302,0.0504 -0.05107,0.155262 -0.06053,0.351634 -0.01273,0.265436 -0.01002,0.283526 0.05341,0.351833 0.0368,0.03961 0.09212,0.08245 0.122973,0.0952 0.06627,0.0274 0.227801,0.03257 0.312014,0.01002 z M 5.2138977,41.926692 c -0.0271,-0.07051 -0.0191,-0.0887 0.0139,-0.03186 0.0164,0.02813 0.0238,0.05708 0.0166,0.06431 -0.007,0.0073 -0.021,-0.0074 -0.0306,-0.03243 z m 42.2375173,0.02912 c 0,-0.01542 0.01227,-0.04696 0.02718,-0.0701 0.015,-0.02315 0.02718,-0.02945 0.02718,-0.01394 0,0.01542 -0.01227,0.04696 -0.02718,0.0701 -0.015,0.02315 -0.02718,0.02945 -0.02718,0.0141 z M 5.1297877,41.730422 c -0.0271,-0.07051 -0.0191,-0.0887 0.0139,-0.03187 0.0164,0.02813 0.0238,0.05708 0.0166,0.06429 -0.007,0.0073 -0.021,-0.0074 -0.0306,-0.03243 z m 42.4057443,0.02912 c 0,-0.01542 0.01227,-0.04696 0.02718,-0.0701 0.015,-0.02315 0.02718,-0.02945 0.02718,-0.0141 0,0.01542 -0.01227,0.04696 -0.02718,0.0701 -0.01501,0.02315 -0.02718,0.02945 -0.02718,0.01409 z M 5.0456677,41.534153 c -0.0271,-0.07051 -0.0191,-0.0887 0.0139,-0.03187 0.0164,0.02813 0.0238,0.05709 0.0166,0.0643 -0.007,0.0073 -0.021,-0.0074 -0.0306,-0.03243 z m 42.5739783,0.02912 c 0,-0.01542 0.01227,-0.04696 0.02718,-0.0701 0.015,-0.02315 0.02718,-0.02945 0.02718,-0.0141 0,0.01542 -0.01227,0.04696 -0.02718,0.0701 -0.015,0.02315 -0.02718,0.02945 -0.02718,0.0141 z M 4.8039877,40.927327 c -1.05299,-2.682193 -1.65484,-5.833011 -1.65396,-8.65884 0.001,-4.523016 1.16236,-8.7989 3.38121,-12.453351 0.33725,-0.555459 0.46487,-0.742746 0.92368,-1.355648 0.70449,-0.941077 1.3999,-1.741919 2.2295699,-2.567589 0.9722804,-0.967597 1.5479204,-1.417342 2.2859514,-1.785997 0.28762,-0.143668 0.46054,-0.198963 0.71523,-0.228722 0.11404,-0.01333 0.23257,-0.03378 0.26342,-0.04548 0.0476,-0.01803 0.0449,-0.009 -0.0176,0.06018 -0.0405,0.04478 -0.0817,0.126805 -0.0916,0.182257 -0.0559,0.315175 -0.61113,0.945939 -1.923581,2.185209 -1.1228504,1.060224 -1.9761303,2.035632 -2.9180803,3.3357 -1.67955,2.318101 -2.76273,4.405737 -3.55697,6.855434 -0.5994,1.848777 -0.90951,3.57685 -1.02896,5.733888 -0.10261,1.852864 0.0903,3.915856 0.55137,5.895557 0.2151,0.923616 0.57808,2.096113 0.92195,2.978081 0.0776,0.199035 0.13635,0.366627 0.13056,0.372421 -0.006,0.0057 -0.10127,-0.220604 -0.21218,-0.5031 z m 42.8848803,0.460708 c 0.396343,-0.972131 0.810476,-2.277313 1.052926,-3.318394 0.336643,-1.445535 0.501152,-2.699597 0.562391,-4.287071 0.0341,-0.884097 -0.0059,-1.909408 -0.115025,-2.952537 C 48.81514,27.25654 47.536218,23.78125 45.446733,20.660516 44.78102,19.66624 43.989642,18.612638 43.362077,17.885097 c -0.366346,-0.42471 -1.044016,-1.124071 -1.575325,-1.625749 -1.312458,-1.23927 -1.8677,-1.870034 -1.923579,-2.18521 -0.0099,-0.05545 -0.05104,-0.137473 -0.09158,-0.182258 -0.06254,-0.06908 -0.06521,-0.0782 -0.01764,-0.06018 0.03084,0.01168 0.14938,0.03215 0.263411,0.04548 0.254699,0.02975 0.427615,0.08505 0.715237,0.228723 0.738026,0.368654 1.313673,0.8184 2.285951,1.785997 0.829666,0.82567 1.525077,1.62651 2.229567,2.567588 0.458817,0.6129 0.586429,0.80019 0.923684,1.355649 1.682047,2.770336 2.75072,5.86415 3.170252,9.177892 0.182088,1.438247 0.249375,3.006882 0.183205,4.270827 -0.121277,2.316558 -0.521212,4.450645 -1.232193,6.575048 -0.196046,0.58577 -0.581947,1.598199 -0.609179,1.598199 -0.0083,0 -0.0061,-0.02206 0.005,-0.04906 z M 26.359129,37.771057 c -0.02371,-0.027 -0.07828,-0.158024 -0.121231,-0.291192 -0.06801,-0.21089 -0.07361,-0.252918 -0.04342,-0.325815 0.065,-0.156944 0.290797,-0.198096 0.413526,-0.07538 0.05044,0.05044 0.06678,0.08992 0.05517,0.133184 -0.0091,0.03383 -0.01667,0.15929 -0.01687,0.278804 -3.18e-4,0.179593 -0.01012,0.227032 -0.05646,0.273379 -0.06917,0.06917 -0.173294,0.07232 -0.230727,0.007 z M 1.1480775,37.280527 C 0.92287744,36.293205 0.75085744,35.149113 0.64879744,33.959825 c -0.0537,-0.625187 -0.0623,-0.921095 -0.0634,-2.167995 -0.001,-1.472389 0.0106,-1.735816 0.12717996,-2.817877 0.20298,-1.883291 0.6972701,-4.155748 1.2472002,-5.733887 0.37552,-1.077607 1.20306,-2.780001 1.98312,-4.079615 2.18405,-3.638711 5.27443,-6.72932 8.9221014,-8.922746 1.0695,-0.6431177 1.50727,-0.8417087 2.04956,-0.9297687 0.2432,-0.03949 0.3516,-0.04512 0.47155,-0.02445 0.14703,0.02533 0.42563,-0.0094 0.61921,-0.07725 0.0308,-0.01073 -0.0182,0.03119 -0.1091,0.09333 -0.11907,0.08145 -0.20615,0.174248 -0.31202,0.332523 -0.26462,0.3956227 -0.68941,0.7277247 -1.55559,1.2161757 -4.6583014,2.626839 -8.4355014,6.791845 -10.5641714,11.648769 -0.88732,2.024578 -1.33001,3.209044 -1.6714401,4.472152 -0.61671,2.281493 -0.8869001,4.509317 -0.8501301,7.009644 0.018,1.226156 0.0871,2.072199 0.2744001,3.361892 0.03,0.206682 0.0501,0.380237 0.0447,0.385676 -0.005,0.0055 -0.0567,-0.195206 -0.11385,-0.44588 z M 51.432036,37.7282 c 0,-0.0094 0.02437,-0.185025 0.05417,-0.390202 0.186901,-1.28694 0.255989,-2.133874 0.274005,-3.359158 0.03677,-2.500332 -0.233419,-4.728156 -0.850133,-7.009644 -0.34143,-1.263112 -0.784117,-2.447576 -1.671439,-4.472153 -2.12867,-4.856928 -5.905873,-9.02193 -10.564165,-11.648772 -0.86619,-0.48845 -1.290979,-0.820552 -1.555601,-1.2161737 -0.105874,-0.158276 -0.192945,-0.251077 -0.31202,-0.332524 -0.09085,-0.06215 -0.139941,-0.104143 -0.109092,-0.09332 0.193574,0.06783 0.472166,0.102588 0.619202,0.07725 0.119942,-0.02066 0.228352,-0.015 0.471553,0.02445 0.542291,0.08806 0.980057,0.28665 2.049563,0.9297687 3.647669,2.193423 6.738052,5.284033 8.922099,8.922744 0.780058,1.299613 1.607597,3.002009 1.983114,4.079616 0.549933,1.578141 1.044229,3.850599 1.2472,5.733888 0.116622,1.082062 0.128519,1.345485 0.127186,2.817878 -0.0014,1.246895 -0.0099,1.542806 -0.06343,2.167994 -0.06941,0.808608 -0.161124,1.52983 -0.287713,2.2621 -0.106864,0.618201 -0.334504,1.643251 -0.334504,1.506276 z M 26.21579,36.915882 c -0.0214,-0.03469 -0.05457,-0.173778 -0.07374,-0.309061 -0.02979,-0.210242 -0.02886,-0.254966 0.0062,-0.307887 0.03709,-0.05585 0.03543,-0.0696 -0.01687,-0.140336 -0.04766,-0.06446 -0.05282,-0.09212 -0.02896,-0.155323 0.03094,-0.08196 0.0043,-0.209521 -0.05987,-0.28604 -0.04512,-0.05384 -0.09764,-0.303077 -0.09764,-0.463367 0,-0.100584 0.01303,-0.13264 0.06822,-0.168846 0.05338,-0.03498 0.08096,-0.03788 0.126747,-0.01334 0.112463,0.06019 0.114977,-0.0044 0.0041,-0.106745 -0.0776,-0.07165 -0.133184,-0.161263 -0.183286,-0.295451 -0.08704,-0.233151 -0.08869,-0.274196 -0.01363,-0.342076 0.05383,-0.04871 0.06398,-0.04939 0.134321,-0.0091 0.08318,0.04775 0.199998,0.0198 0.199998,-0.04782 0,-0.05324 -0.11344,-0.123473 -0.1994,-0.123473 -0.121139,0 -0.186468,-0.08103 -0.248208,-0.307862 -0.07029,-0.258273 -0.07033,-0.267706 -9.54e-4,-0.337025 0.07298,-0.07298 0.110771,-0.07073 0.235664,0.0141 0.123427,0.08376 0.128835,0.08455 0.128835,0.01892 0,-0.06683 -0.105409,-0.163807 -0.204888,-0.188504 -0.0433,-0.01073 -0.09774,-0.04855 -0.120974,-0.08403 -0.0567,-0.08655 -0.08237,-0.351616 -0.04146,-0.428083 0.06678,-0.124777 0.116682,-0.12099 0.334718,0.02538 0.112761,0.0757 0.231051,0.137623 0.262868,0.137623 0.03181,0 0.112607,-0.05047 0.179528,-0.112153 0.212309,-0.195701 0.309546,-0.139274 0.277537,0.161044 -0.02501,0.234859 -0.04266,0.268342 -0.18269,0.347043 -0.09715,0.0546 -0.112105,0.07599 -0.112105,0.160328 0,0.09251 0.0026,0.09502 0.05128,0.05092 0.130775,-0.118349 0.22911,-0.02327 0.22911,0.221524 0,0.157972 -0.0096,0.190639 -0.07972,0.269035 -0.05819,0.06513 -0.103997,0.08923 -0.16957,0.08923 -0.07488,0 -0.08844,0.0096 -0.0815,0.05813 0.0047,0.03268 0.03291,0.06201 0.06441,0.067 0.109688,0.01736 0.212856,0.07028 0.241584,0.123957 0.03062,0.0572 0.0079,0.435081 -0.02973,0.496087 -0.01132,0.01834 -0.04787,0.03542 -0.08119,0.03794 -0.07972,0.0061 -0.08253,0.129578 -0.0045,0.196413 0.107245,0.09183 0.05904,0.545961 -0.06249,0.588786 -0.02723,0.0095 -0.02408,0.03268 0.01349,0.09799 0.02699,0.04697 0.04908,0.11817 0.04908,0.158205 0,0.07975 -0.08772,0.184935 -0.154212,0.184935 -0.06568,0 -0.04941,0.08429 0.02805,0.145199 0.06036,0.04747 0.0701,0.0777 0.0701,0.217551 0,0.192505 -0.05665,0.282043 -0.232025,0.366778 -0.146684,0.07087 -0.178466,0.0698 -0.226152,-0.0076 z m 3.205961,-0.319332 c 0,-0.06273 -0.0078,-0.19476 -0.01762,-0.293404 -0.01333,-0.13526 -0.0096,-0.171914 0.01485,-0.149093 0.01786,0.01666 0.04387,0.1302 0.05782,0.252348 0.02058,0.180317 0.01778,0.229805 -0.01485,0.263137 -0.03504,0.0358 -0.04019,0.02643 -0.04019,-0.07299 z m 1.154006,-0.542855 c 0,-0.03855 0.0064,-0.05433 0.01409,-0.03504 0.0077,0.01926 0.0077,0.05083 0,0.0701 -0.0077,0.01927 -0.01409,0.0034 -0.01409,-0.03504 z m -4.364424,-3.410939 c -0.138791,-0.07018 -0.293354,-0.16664 -0.343473,-0.21437 -0.08024,-0.07642 -0.09112,-0.104397 -0.09112,-0.234117 0,-0.219116 0.05367,-0.430628 0.128201,-0.505154 0.03604,-0.03603 0.07861,-0.06552 0.09463,-0.06552 0.02252,0 0.170065,0.185132 0.352511,0.442268 0.02365,0.03335 0.100752,-0.0489 0.155611,-0.166042 0.108138,-0.23088 0.263113,-0.313893 0.345571,-0.185096 0.02222,0.03469 0.049,0.146197 0.05952,0.247793 0.01702,0.164376 0.0112,0.20033 -0.0528,0.326619 -0.145608,0.287351 -0.296482,0.485972 -0.366593,0.482622 -0.01635,-6.36e-4 -0.143243,-0.05883 -0.282037,-0.129003 z m -0.02319,-1.065622 c -0.216524,-0.30793 -0.528163,-0.942483 -0.533396,-1.086092 -0.0051,-0.14123 0.04237,-0.166472 0.07487,-0.03977 0.03427,0.133563 0.134775,0.253533 0.302683,0.36128 0.179624,0.115263 0.36583,0.126427 0.546243,0.03275 0.126518,-0.06568 0.190454,-0.147533 0.25239,-0.323065 0.04116,-0.116658 0.07954,-0.159166 0.144441,-0.159964 0.054,-6.35e-4 0.0418,0.119398 -0.03187,0.313731 -0.240351,0.63415 -0.451783,1.059353 -0.542799,1.091599 -0.05558,0.01968 -0.08045,-0.0026 -0.212576,-0.190486 z m -0.05969,-3.08234 c -0.14826,-0.05429 -0.239575,-0.144532 -0.239575,-0.236762 0,-0.0414 0.04571,-0.17423 0.101597,-0.295168 l 0.101597,-0.219885 -0.03242,-0.231784 c -0.01784,-0.127472 -0.05094,-0.284242 -0.07355,-0.348358 -0.05808,-0.164574 -0.05139,-0.242013 0.02769,-0.321091 0.05199,-0.05199 0.09868,-0.06883 0.190909,-0.06883 0.204239,0 0.27478,0.09941 0.186898,0.263374 -0.04392,0.08196 -0.05408,0.158225 -0.05408,0.405912 v 0.304988 l 0.154212,0.172826 c 0.09072,0.101691 0.154213,0.198992 0.154213,0.236377 0,0.06407 -0.148275,0.323282 -0.206787,0.361492 -0.04897,0.03198 -0.188605,0.02159 -0.310682,-0.0231 z m -0.672884,-0.197799 c -0.06101,-0.0799 -0.09942,-0.161579 -0.09942,-0.211406 0,-0.105446 0.09048,-0.283939 0.227339,-0.448498 0.06003,-0.07215 0.109127,-0.150274 0.109127,-0.173587 0,-0.08923 -0.06372,-0.07478 -0.167957,0.03813 -0.112988,0.122396 -0.180625,0.136472 -0.235595,0.04908 -0.02464,-0.03919 -0.01424,-0.08146 0.05054,-0.205266 0.167894,-0.320847 0.521247,-0.438703 0.521247,-0.173855 0,0.04585 0.02064,0.118326 0.0459,0.16104 0.06695,0.113321 0.03068,0.254381 -0.105994,0.412297 -0.06256,0.0723 -0.13282,0.171403 -0.15611,0.220241 -0.04012,0.08413 -0.0385,0.0949 0.03087,0.204767 0.0813,0.128806 0.08929,0.173902 0.03956,0.223629 -0.06947,0.06947 -0.157788,0.03661 -0.259476,-0.09656 z m 1.372164,-0.0832 c -0.116455,-0.125669 -0.117123,-0.178475 -0.0034,-0.282564 0.0557,-0.05105 0.119504,-0.09282 0.141759,-0.09282 0.06928,0 0.134744,0.08683 0.11412,0.151379 -0.01022,0.0324 -0.02527,0.09676 -0.03318,0.143032 -0.01363,0.07983 -0.07503,0.154212 -0.127276,0.154212 -0.01318,0 -0.05456,-0.03295 -0.09188,-0.07322 z m -0.10311,-0.511409 c -0.02015,-0.02855 -0.07627,-0.07232 -0.12473,-0.09729 -0.161533,-0.08322 -0.204376,-0.370985 -0.07766,-0.521589 0.08983,-0.106743 0.135458,-0.107697 0.293433,-0.0061 0.183885,0.118266 0.256779,0.207887 0.245964,0.302444 -0.0073,0.06367 -0.02493,0.08185 -0.08626,0.0889 -0.08769,0.01012 -0.08583,0.0066 -0.05105,0.09805 0.05266,0.138502 -0.11655,0.253381 -0.199701,0.135579 z m 0.117576,-0.267319 c 0,-0.0059 -0.03154,-0.03148 -0.0701,-0.05673 -0.03855,-0.02527 -0.0701,-0.03494 -0.0701,-0.02152 0,0.01349 0.02839,0.03809 0.06309,0.05483 0.0761,0.0367 0.0771,0.03701 0.0771,0.02343 z m -1.303221,-0.46494 c -0.01096,-0.01769 -0.01227,-0.06247 -0.0028,-0.09952 0.01073,-0.04285 -0.0083,-0.121337 -0.05266,-0.215704 -0.311175,-0.663437 -0.544698,-1.683149 -0.631133,-2.755921 -0.0842,-1.045056 -0.143518,-1.349026 -0.321052,-1.645291 -0.115562,-0.192837 -0.256592,-0.272582 -0.543332,-0.307217 -0.407411,-0.04921 -0.457287,-0.08742 -0.714946,-0.547657 -0.20639,-0.368674 -0.372544,-0.766236 -0.560492,-1.341119 -0.350412,-1.071836 -0.425889,-1.473575 -0.424064,-2.257106 0.002,-0.86521 0.0895,-1.393221 0.390256,-2.355242 0.229557,-0.734295 0.297502,-1.216355 0.213626,-1.51566 -0.05678,-0.202604 -0.208338,-0.38517 -0.388058,-0.467453 -0.14288,-0.06542 -0.177734,-0.07005 -0.411473,-0.05481 -0.140456,0.0091 -0.413082,0.04847 -0.605849,0.08733 -0.371723,0.07498 -0.776988,0.0934 -0.956612,0.04351 -0.362472,-0.100689 -0.498357,-0.432856 -0.33245,-0.81267 0.03705,-0.08481 0.295706,-0.45703 0.574795,-0.827137 0.54369,-0.721013 0.717007,-0.985563 0.888903,-1.356824 0.15117,-0.326493 0.198964,-0.531109 0.184083,-0.7881377 -0.01584,-0.273298 -0.133766,-0.505747 -0.376971,-0.743009 -0.448374,-0.43741 -0.884151,-0.547279 -1.922857,-0.484792 -0.441677,0.02658 -0.597106,0.02607 -0.771062,-0.0024 -0.38044,-0.06244 -0.644525,-0.220143 -0.7672,-0.458154 -0.194744,-0.377828 -0.17817,-1.107101 0.04478,-1.970304 0.20305,-0.78616 0.770254,-2.386926 1.208286,-3.410029 0.215172,-0.502573 0.232759,-0.557362 0.204729,-0.637765 -0.02665,-0.07643 -0.01485,-0.13479 0.08965,-0.445564 0.141639,-0.421012 0.230644,-0.539855 0.404309,-0.539855 0.0837,0 0.125685,0.02145 0.213094,0.108853 0.163357,0.163358 0.14282,0.277191 -0.12164,0.674006 -0.161556,0.242415 -0.269516,0.366722 -0.318498,0.366722 -0.09499,0 -0.861335,1.962125 -1.253891,3.210417 -0.22079,0.702093 -0.254602,0.832117 -0.327961,1.261218 -0.119276,0.69771 -0.05788,1.222938 0.166638,1.42579 0.205354,0.185525 0.290272,0.198154 1.347358,0.200371 0.895953,0.0018 0.948994,0.005 1.149582,0.06617 0.301645,0.09208 0.53738,0.233934 0.790206,0.475481 0.177318,0.169411 0.244407,0.258351 0.339268,0.44979 0.114488,0.23106 0.118218,0.247134 0.117288,0.507104 -0.0014,0.3338547 -0.04816,0.4992757 -0.267322,0.9414047 -0.189763,0.382831 -0.320556,0.577651 -0.903681,1.346079 -0.228202,0.300722 -0.445728,0.612953 -0.483391,0.693851 -0.239822,0.515115 0.155569,0.685166 1.122615,0.482819 0.503011,-0.105243 0.839797,-0.108389 1.051448,-0.0099 0.249578,0.116265 0.433437,0.334937 0.516348,0.614142 0.09966,0.335554 0.03747,0.803872 -0.219553,1.653487 -0.305055,1.008404 -0.395861,1.595599 -0.372898,2.411316 0.01987,0.70636 0.110844,1.139507 0.456552,2.174222 0.234391,0.701531 0.618839,1.472825 0.77068,1.546176 0.03794,0.01831 0.169822,0.04599 0.293073,0.06149 0.374459,0.04709 0.55422,0.157301 0.715076,0.438447 0.189275,0.330823 0.252952,0.648867 0.33671,1.681778 0.04242,0.523108 0.09808,0.903551 0.198517,1.356905 0.154855,0.698953 0.243918,0.978648 0.436925,1.372094 0.0807,0.164519 0.111236,0.202807 0.152991,0.191885 0.08273,-0.02163 0.06446,0.08069 -0.02588,0.145017 -0.09824,0.06995 -0.272534,0.1056 -0.299893,0.06131 z m 1.120971,0.0073 c -0.15289,-0.03891 -0.158044,-0.09724 -0.03039,-0.343891 0.318458,-0.615378 0.571527,-1.684721 0.660433,-2.790653 0.08152,-1.014082 0.142443,-1.323898 0.32597,-1.657943 0.165927,-0.302004 0.341775,-0.413961 0.726091,-0.462283 0.123245,-0.01549 0.255131,-0.04318 0.293074,-0.06149 0.151841,-0.07336 0.536285,-0.844644 0.770681,-1.546176 0.342719,-1.025755 0.436046,-1.467299 0.456962,-2.16196 0.02467,-0.819457 -0.06395,-1.389038 -0.383253,-2.462991 -0.206128,-0.693321 -0.26456,-1.00542 -0.249035,-1.330184 0.01988,-0.415641 0.222415,-0.742932 0.555772,-0.898092 0.211683,-0.09852 0.548573,-0.09537 1.051449,0.0099 0.790748,0.165459 1.192257,0.08564 1.191365,-0.23683 -3.18e-4,-0.165196 -0.123171,-0.37758 -0.525134,-0.908882 -0.625154,-0.826305 -0.6398,-0.846972 -0.804754,-1.135781 -0.433475,-0.758932 -0.506204,-1.2263407 -0.265391,-1.7055987 0.205887,-0.40975 0.641256,-0.763618 1.118896,-0.909435 0.200585,-0.06124 0.253631,-0.0643 1.149583,-0.06617 1.057084,-0.0023 1.142003,-0.01485 1.347357,-0.200371 0.26804,-0.242175 0.299948,-0.93577 0.08493,-1.845878 -0.139931,-0.592343 -0.648839,-2.091123 -1.018684,-3.000195 -0.327098,-0.804013 -0.436984,-1.036102 -0.504649,-1.065876 -0.07549,-0.03322 -0.358152,-0.418764 -0.455799,-0.621711 -0.09804,-0.203751 -0.09126,-0.27448 0.03886,-0.404585 0.08742,-0.0874 0.129397,-0.108853 0.213093,-0.108853 0.173666,0 0.262671,0.118838 0.404308,0.539855 0.104552,0.310772 0.116288,0.369124 0.08965,0.445564 -0.02805,0.0804 -0.01049,0.135199 0.204734,0.637765 0.438029,1.023105 1.005234,2.623869 1.208284,3.410029 0.222953,0.863205 0.239526,1.592476 0.04478,1.970304 -0.122671,0.238012 -0.38676,0.395716 -0.767199,0.458154 -0.173955,0.02855 -0.329385,0.02904 -0.771061,0.0024 -1.038708,-0.06248 -1.474484,0.04739 -1.92286,0.484792 -0.438828,0.428099 -0.495456,0.877645 -0.192878,1.5311477 0.171895,0.371259 0.345215,0.63581 0.888905,1.356822 0.279088,0.370107 0.537744,0.742321 0.574796,0.827136 0.165906,0.379816 0.03001,0.711986 -0.332452,0.812671 -0.179622,0.04988 -0.584887,0.03148 -0.95661,-0.04351 -0.192767,-0.03888 -0.4654,-0.07817 -0.605849,-0.08733 -0.233739,-0.01522 -0.268593,-0.0106 -0.411478,0.05481 -0.179718,0.08228 -0.33128,0.264848 -0.388054,0.467451 -0.08387,0.299311 -0.01591,0.781368 0.213622,1.515663 0.30075,0.962023 0.388239,1.490034 0.390257,2.35524 0.002,0.783534 -0.07364,1.185274 -0.424062,2.257104 -0.187946,0.574888 -0.354099,0.97245 -0.560495,1.341122 -0.257653,0.460239 -0.307529,0.498444 -0.714946,0.547656 -0.286737,0.03464 -0.427767,0.114382 -0.543328,0.307217 -0.177537,0.296265 -0.236855,0.600235 -0.321055,1.645291 -0.08567,1.063324 -0.306211,2.033517 -0.624282,2.746317 -0.03404,0.0763 -0.06189,0.18355 -0.06189,0.238329 0,0.104659 -0.03939,0.126625 -0.168233,0.09383 z"
       id="path1" /></g></svg>
