<?xml version="1.0" encoding="UTF-8" standalone="no"?>
<!-- Created with Inkscape (http://www.inkscape.org/) -->

<svg
   width="200"
   height="145"
   viewBox="0 0 52.916665 38.364582"
   version="1.1"
   id="svg1"
   xml:space="preserve"
   inkscape:export-filename="butterfly-grey.svg"
   inkscape:export-xdpi="96"
   inkscape:export-ydpi="96"
   xmlns:inkscape="http://www.inkscape.org/namespaces/inkscape"
   xmlns:sodipodi="http://sodipodi.sourceforge.net/DTD/sodipodi-0.dtd"
   xmlns="http://www.w3.org/2000/svg"
   xmlns:svg="http://www.w3.org/2000/svg"><sodipodi:namedview
     id="namedview1"
     pagecolor="#ffffff"
     bordercolor="#000000"
     borderopacity="0.25"
     inkscape:showpageshadow="2"
     inkscape:pageopacity="0.0"
     inkscape:pagecheckerboard="0"
     inkscape:deskcolor="#d1d1d1"
     inkscape:document-units="mm" /><defs
     id="defs1" /><g
     inkscape:label="Layer 1"
     inkscape:groupmode="layer"
     id="layer1"><path
       style="fill:#000000;stroke-width:0.106726"
       d="M 11.235865,37.822041 C 10.004519,36.601572 8.7892685,34.943362 7.8578042,33.212682 7.5762072,32.689467 7.4855901,32.510922 7.2874198,32.088768 5.9185866,29.172853 5.2439421,26.051052 5.3029285,22.905842 c 0.02753,-1.468801 0.1499578,-2.469231 0.475092,-3.882716 0.7607312,-3.307203 2.3214737,-6.420521 4.5016205,-8.979654 0.757932,-0.8896989 2.006102,-1.8908409 2.621261,-2.1024869 0.18358,-0.06316 0.41775,-0.180898 0.582489,-0.29287 l 0.127067,-0.08638 -0.15623,0.169868 c -0.08592,0.09343 -0.205372,0.264248 -0.265433,0.379608 -0.195894,0.376273 -0.371047,0.604878 -1.738532,2.2691079 -1.4678136,1.786321 -2.1271599,2.760055 -2.9076908,4.294162 -1.0155302,1.99599 -1.6607046,4.056487 -1.9893874,6.353532 -0.119001,0.831612 -0.1291709,0.912769 -0.17168,1.369535 -0.2538811,2.727823 0.022651,5.43926 0.8201883,8.0415 0.6644921,2.168194 1.70829,4.213745 3.0864619,6.048603 0.390858,0.520376 1.005679,1.278739 1.253328,1.545934 0.138481,0.149413 0.193745,0.233675 0.153246,0.233675 -0.0053,0 -0.211807,-0.200352 -0.458864,-0.445227 z m 30.033638,0.421049 c 0,-0.01856 0.07331,-0.112821 0.162916,-0.209497 0.247648,-0.267195 0.862474,-1.025558 1.253331,-1.545934 2.21239,-2.945515 3.527556,-6.361831 3.905862,-10.145989 0.08229,-0.823175 0.111992,-1.902238 0.07533,-2.736942 -0.033,-0.751414 -0.08582,-1.430577 -0.14438,-1.856643 C 46.3069,20.178943 46.177077,19.501929 45.887053,18.433941 45.198223,15.897385 43.931776,13.392325 42.301936,11.34251 42.099073,11.087374 41.748843,10.654391 41.523645,10.380327 40.156156,8.7160961 39.981002,8.4874931 39.785109,8.1112191 39.725059,7.9958591 39.60561,7.8250391 39.51968,7.7316111 l -0.156235,-0.169868 0.127071,0.08638 c 0.164741,0.111972 0.398909,0.229714 0.582487,0.29287 0.615158,0.211645 1.863329,1.212788 2.621265,2.1024869 2.180142,2.559134 3.740888,5.672452 4.501621,8.979655 0.325135,1.413485 0.447548,2.413913 0.475091,3.882715 0.05898,3.14521 -0.615659,6.26701 -1.984494,9.182926 -0.236929,0.504714 -0.480995,0.97458 -0.792166,1.525048 -0.945318,1.672282 -2.218041,3.337682 -3.405972,4.456826 -0.120365,0.113394 -0.218843,0.190996 -0.218843,0.172448 z M 19.100188,36.924377 c -0.06569,-0.028 -0.125336,-0.08503 -0.169426,-0.161997 -0.06404,-0.111792 -0.06798,-0.144583 -0.06692,-0.556479 5.81e-4,-0.29323 0.01656,-0.512247 0.04786,-0.663592 0.02568,-0.124246 0.06101,-0.333913 0.07849,-0.465926 0.03467,-0.261786 0.119667,-0.670799 0.267047,-1.284824 0.119232,-0.49677 0.162665,-0.81417 0.165836,-1.211956 0.0024,-0.265571 -0.0072,-0.336379 -0.0621,-0.4682 -0.108105,-0.259881 -0.272861,-0.395332 -0.480858,-0.395332 -0.161522,0 -0.248492,0.04114 -0.389645,0.184322 -0.06848,0.06947 -0.135216,0.126297 -0.148308,0.126297 -0.01308,0 -0.05378,-0.02431 -0.09046,-0.054 l -0.06668,-0.054 0.04675,-0.164848 c 0.02574,-0.09066 0.08158,-0.272856 0.12414,-0.404868 0.138737,-0.430301 0.104128,-0.96679 -0.07894,-1.223895 -0.07064,-0.09921 -0.344272,-0.233101 -0.528004,-0.258372 -0.180572,-0.02484 -0.33934,0.02204 -0.484008,0.142906 -0.125749,0.105066 -0.210865,0.116379 -0.261976,0.03483 -0.04832,-0.07707 0.01823,-0.379865 0.14567,-0.662881 0.147054,-0.326581 0.184289,-0.524643 0.169863,-0.903413 -0.01614,-0.424316 -0.113304,-0.600468 -0.379574,-0.688343 -0.159181,-0.05256 -0.285731,-0.01412 -0.333979,0.101328 -0.03391,0.08119 -0.05529,0.09752 -0.127504,0.09752 -0.130605,0 -0.160883,-0.09011 -0.100308,-0.298481 0.05436,-0.187055 0.208456,-0.504997 0.331912,-0.684913 0.11271,-0.164251 0.256413,-0.480262 0.362811,-0.797828 0.07489,-0.223546 0.08748,-0.302077 0.08695,-0.54272 -3.2e-4,-0.154749 -0.0122,-0.292941 -0.02637,-0.3071 -0.01551,-0.01551 -0.08621,0.01968 -0.177668,0.08843 -0.08357,0.06279 -0.173603,0.114155 -0.200094,0.114155 -0.05875,0 -0.136907,-0.07389 -0.136907,-0.129431 0,-0.02236 0.09346,-0.132662 0.207667,-0.245064 0.179532,-0.176692 0.629376,-0.806127 0.779451,-1.09064 0.03328,-0.06305 0.03124,-0.0664 -0.03102,-0.05227 -0.452659,0.102493 -0.539554,0.09723 -1.138729,-0.0689 -0.552576,-0.153216 -0.785856,-0.289857 -1.243356,-0.728269 -0.160534,-0.153839 -0.340031,-0.297664 -0.415982,-0.333319 -0.10574,-0.04966 -0.14817,-0.09147 -0.203451,-0.200558 -0.104075,-0.205372 -0.386583,-0.553437 -0.656106,-0.808333 l -0.238873,-0.2259 -0.07937,-0.273918 C 13.554349,21.252922 13.486585,21.075021 13.447387,21.008247 13.309312,20.773014 12.964227,20.355905 12.806092,20.233105 12.648903,20.111037 12.644785,20.104144 12.56924,19.836694 12.46302,19.460625 12.384208,19.307461 12.171517,19.063761 12.012284,18.881319 11.97643,18.81843 11.89884,18.58544 c -0.04913,-0.147541 -0.120807,-0.33111 -0.159273,-0.407922 -0.08987,-0.179475 -0.353866,-0.456429 -0.472345,-0.49553 -0.08292,-0.02736 -0.09504,-0.04594 -0.124012,-0.190225 -0.05506,-0.274215 -0.135096,-0.397149 -0.483631,-0.742953 l -0.32848,-0.325906 -0.07547,-0.242051 C 10.175068,15.922442 10.087061,15.812932 9.8155984,15.633289 9.6782568,15.542399 9.6321523,15.454779 9.5751762,15.17633 9.5521677,15.064072 9.4796803,14.860762 9.4140324,14.724529 9.312282,14.513383 9.2944791,14.449738 9.2934219,14.293281 c -0.00113,-0.198786 0.060174,-0.355724 0.1845211,-0.470777 0.1014207,-0.09382 0.4453714,-0.280254 0.913424,-0.495106 0.34382,-0.157822 0.532551,-0.222837 1.002445,-0.34531 0.671678,-0.175073 0.790034,-0.199762 1.171871,-0.244467 0.38469,-0.04507 1.197844,-0.04571 1.426018,-0.0011 0.545916,0.10655 1.107282,0.243432 1.256588,0.306403 0.09319,0.03932 0.264731,0.09942 0.38121,0.13359 0.116481,0.03416 0.351561,0.120046 0.5224,0.190835 0.170843,0.07079 0.437687,0.17657 0.593001,0.23508 0.546077,0.205733 1.701557,0.728636 2.386098,1.07982 0.630132,0.323269 1.78541,1.007236 2.315272,1.370727 0.632037,0.433581 2.132666,1.660483 2.928331,2.394179 0.344703,0.317856 0.862142,0.863148 0.994589,1.048135 0.08779,0.122602 0.143579,0.150458 0.143579,0.07168 0,-0.01749 -0.02846,-0.0898 -0.06318,-0.160703 -0.0672,-0.137133 -0.0844,-0.423756 -0.04328,-0.721922 0.05906,-0.428406 0.07672,-0.498754 0.163207,-0.649902 l 0.09164,-0.160194 -0.05887,-0.131488 c -0.315641,-0.704948 -0.539355,-1.691629 -0.625245,-2.757608 -0.0848,-1.052485 -0.144539,-1.358617 -0.323339,-1.656987 -0.116375,-0.194209 -0.258411,-0.274523 -0.547193,-0.3094 -0.410309,-0.04954 -0.460536,-0.08804 -0.720023,-0.551555 -0.207864,-0.371291 -0.375199,-0.771679 -0.564478,-1.350653 -0.352907,-1.079455 -0.428918,-1.4840479 -0.427082,-2.2731519 0.0018,-0.871362 0.09015,-1.403123 0.393036,-2.371986 0.231183,-0.739514 0.299614,-1.225002 0.215141,-1.526434 -0.05715,-0.204041 -0.209822,-0.387913 -0.390816,-0.470777 -0.143901,-0.06588 -0.178998,-0.07056 -0.414398,-0.05518 -0.141455,0.0092 -0.416026,0.04879 -0.610158,0.08796 -0.374363,0.07551 -0.782513,0.09407 -0.963414,0.04385 -0.372291,-0.103412 -0.505841,-0.442759 -0.326779,-0.830323 0.04246,-0.09195 0.178615,-0.303016 0.302505,-0.469028 0.179638,-0.240708 0.225261,-0.321574 0.225261,-0.399233 0,-0.06122 0.03671,-0.158356 0.09883,-0.261518 0.05436,-0.09027 0.09883,-0.17333 0.09883,-0.184568 0,-0.01127 0.02544,-0.04344 0.05645,-0.07155 0.03108,-0.02811 0.05645,-0.06689 0.05645,-0.08617 0,-0.04559 0.183482,-0.206337 0.27536,-0.241272 0.05715,-0.02172 0.107239,-0.0104 0.251005,0.05686 0.178116,0.08335 0.179585,0.08499 0.179585,0.200795 0,0.123851 0.03119,0.08448 -0.567149,0.716213 -0.04699,0.0496 -0.118937,0.08845 -0.183216,0.0989 -0.09259,0.01504 -0.130338,0.04902 -0.301606,0.271282 -0.408432,0.53006 -0.462226,0.816077 -0.181727,0.966174 0.138894,0.07432 0.569594,0.05952 1.021914,-0.03514 0.506583,-0.106006 0.84576,-0.109162 1.058922,-0.0098 0.251349,0.117083 0.436515,0.33732 0.520016,0.618503 0.10036,0.337947 0.03774,0.809588 -0.221112,1.665247 -0.307222,1.01557 -0.398675,1.606945 -0.375553,2.428458 0.02003,0.711381 0.111624,1.1476039 0.459799,2.1896759 0.236062,0.70652 0.623237,1.4833 0.776157,1.557172 0.03822,0.01846 0.171034,0.04635 0.295159,0.06195 0.377122,0.0474 0.558159,0.158419 0.720162,0.44156 0.19062,0.33318 0.254746,0.653481 0.339102,1.693737 0.08397,1.03544 0.298749,1.993063 0.600634,2.677935 0.05593,0.126889 0.06623,0.135566 0.146002,0.122951 0.435359,-0.06886 0.610587,-0.08219 0.71896,-0.05471 0.111213,0.02823 0.11846,0.02608 0.155945,-0.0464 0.11907,-0.23026 0.288085,-0.772284 0.397184,-1.273766 0.11278,-0.518421 0.16748,-0.888636 0.210682,-1.426013 0.08209,-1.021292 0.143446,-1.333312 0.328281,-1.669731 0.167109,-0.30415 0.344208,-0.4169 0.731255,-0.465568 0.124124,-0.01562 0.256948,-0.04351 0.295159,-0.06195 0.15292,-0.07387 0.540095,-0.85065 0.776158,-1.55717 0.345154,-1.033047 0.439145,-1.4777279 0.460211,-2.1773289 0.02486,-0.825283 -0.06441,-1.398913 -0.385979,-2.480504 -0.207597,-0.698249 -0.266439,-1.012569 -0.250803,-1.339636 0.02004,-0.418597 0.223993,-0.748215 0.559721,-0.904481 0.21319,-0.09922 0.552472,-0.09603 1.058923,0.0099 0.452312,0.09465 0.883019,0.109453 1.021913,0.03514 0.280195,-0.149901 0.226871,-0.435367 -0.18047,-0.966222 -0.181421,-0.236422 -0.203381,-0.255268 -0.315057,-0.270364 -0.0824,-0.01115 -0.144604,-0.04216 -0.198334,-0.09883 -0.597165,-0.630126 -0.568061,-0.593378 -0.568061,-0.717124 0,-0.115801 0.0018,-0.117445 0.179585,-0.200796 0.143765,-0.06728 0.193831,-0.07862 0.251006,-0.05686 0.09187,0.03491 0.275359,0.195696 0.275359,0.241272 0,0.01928 0.02544,0.05808 0.05645,0.08616 0.03108,0.02811 0.05645,0.06031 0.05645,0.07155 0,0.01127 0.04449,0.0943 0.09883,0.184568 0.05436,0.09027 0.09884,0.199744 0.09884,0.24327 0,0.05541 0.07417,0.178585 0.247666,0.411203 0.136217,0.182634 0.278385,0.401911 0.31594,0.487277 0.167875,0.381669 0.0309,0.716891 -0.334386,0.818359 -0.180896,0.05024 -0.589046,0.03172 -0.963409,-0.04385 -0.194132,-0.03914 -0.468703,-0.07874 -0.610158,-0.08796 -0.2354,-0.01533 -0.270498,-0.01069 -0.414398,0.05518 -0.180995,0.08286 -0.333636,0.26673 -0.390816,0.470778 -0.08447,0.30143 -0.01603,0.786919 0.215141,1.526433 0.302889,0.968862 0.391004,1.500624 0.393036,2.371981 0.0018,0.789103 -0.07418,1.1937029 -0.427083,2.2731559 -0.189279,0.578969 -0.356614,0.979359 -0.564477,1.350655 -0.259487,0.463509 -0.309721,0.501987 -0.720028,0.551549 -0.288777,0.0349 -0.430813,0.115195 -0.547195,0.309404 -0.1788,0.298365 -0.238535,0.604503 -0.323332,1.656983 -0.0859,1.066229 -0.309627,2.052793 -0.625423,2.757977 l -0.05904,0.131854 0.09795,0.122288 c 0.132858,0.165877 0.304898,0.510359 0.304898,0.610507 0,0.04495 0.01894,0.144062 0.04205,0.220304 0.06699,0.220793 0.05471,0.395406 -0.04211,0.600111 -0.04658,0.09851 -0.07743,0.190932 -0.06851,0.205372 0.04159,0.06729 0.244374,-0.110063 0.46845,-0.409724 0.507812,-0.679093 2.083278,-2.158569 2.559155,-2.403221 0.09062,-0.04658 0.24658,-0.143835 0.346565,-0.216094 0.09999,-0.07226 0.320146,-0.204535 0.489246,-0.29395 0.207877,-0.109912 0.322202,-0.18832 0.352972,-0.242068 0.02765,-0.04832 0.117481,-0.115626 0.229064,-0.171638 0.190521,-0.09563 0.412184,-0.223251 0.814473,-0.468895 0.177395,-0.108321 0.254126,-0.140219 0.310613,-0.12912 0.04827,0.0095 0.120309,-0.0095 0.202098,-0.0532 0.06988,-0.03735 0.324025,-0.172882 0.564756,-0.301175 0.240726,-0.128294 0.464243,-0.257711 0.496698,-0.287581 0.03246,-0.02984 0.312007,-0.182367 0.621235,-0.338876 0.309219,-0.156503 0.676589,-0.352385 0.816365,-0.435296 0.139776,-0.08289 0.400274,-0.213798 0.578876,-0.290872 0.315861,-0.136309 0.574307,-0.258307 0.804604,-0.379798 0.06203,-0.03269 0.271692,-0.109076 0.465926,-0.169677 1.07185,-0.334391 1.459449,-0.399576 2.372161,-0.398919 0.641123,4.23e-4 0.723099,0.01475 1.286049,0.224399 0.779778,0.290385 1.007292,0.411192 1.381598,0.733614 0.439832,0.378864 0.484852,0.460543 0.513643,0.931853 0.01466,0.23999 0.0077,0.318409 -0.04654,0.522398 -0.03508,0.132011 -0.07388,0.331884 -0.08619,0.444153 -0.02914,0.265457 -0.127917,0.479221 -0.275438,0.596062 -0.157501,0.124746 -0.2184,0.233203 -0.298051,0.530838 -0.08141,0.304206 -0.11316,0.368357 -0.292354,0.590748 -0.247065,0.306623 -0.279005,0.377562 -0.41075,0.912338 -0.0167,0.0678 -0.07921,0.185056 -0.138898,0.260571 -0.264605,0.334747 -0.383986,0.553041 -0.419169,0.766465 -0.04357,0.264294 -0.08589,0.351588 -0.27111,0.559167 -0.0836,0.09368 -0.175959,0.21753 -0.205266,0.275226 -0.06196,0.12197 -0.20092,0.551468 -0.201148,0.621699 -5.34e-4,0.148391 -0.07268,0.282747 -0.252822,0.470592 -0.271398,0.28299 -0.49639,0.62833 -0.568425,0.872471 -0.09779,0.331454 -0.17715,0.447058 -0.500187,0.7287 -0.162363,0.14156 -0.315814,0.294857 -0.341004,0.34067 -0.144497,0.262775 -0.198621,0.325913 -0.332036,0.387334 -0.374346,0.172335 -0.501721,0.247179 -0.733224,0.430822 -0.343106,0.272177 -0.443978,0.332535 -0.68295,0.408638 -0.232069,0.07391 -0.603921,0.08732 -0.95195,0.03433 -0.108716,-0.01656 -0.308204,-0.046 -0.443299,-0.0654 l -0.245634,-0.03531 0.246715,0.242453 c 0.346461,0.340465 0.514922,0.579786 0.66678,0.947238 0.132335,0.320209 0.153635,0.430556 0.09452,0.48967 -0.05944,0.05944 -0.12773,0.03676 -0.214278,-0.07109 -0.07588,-0.09458 -0.08909,-0.100937 -0.133399,-0.06416 -0.119054,0.09881 0.02073,0.712855 0.295648,1.298654 0.205713,0.438345 0.239757,0.551388 0.215257,0.71476 -0.02765,0.184436 -0.116278,0.261596 -0.32794,0.285541 -0.133743,0.01516 -0.191172,0.03793 -0.269842,0.106973 -0.136931,0.120227 -0.237502,0.327546 -0.237502,0.489585 0,0.176544 0.101029,0.563005 0.187878,0.718651 0.114959,0.206034 0.207451,0.454533 0.207451,0.557364 0,0.130855 -0.04414,0.202799 -0.152216,0.247943 -0.07906,0.03303 -0.122637,0.0311 -0.327527,-0.01458 -0.368532,-0.08215 -0.590893,-0.03096 -0.739893,0.170294 -0.140264,0.18947 -0.17937,0.728474 -0.07997,1.102255 0.0672,0.252725 0.07185,0.424255 0.01452,0.535175 -0.0869,0.168028 -0.204211,0.180125 -0.405314,0.0418 -0.364832,-0.250962 -0.531795,-0.03079 -0.519476,0.685077 0.0053,0.30832 0.02422,0.455456 0.106995,0.833019 0.05529,0.252207 0.131737,0.640747 0.169838,0.863419 0.03809,0.222673 0.08916,0.489521 0.113461,0.592997 0.124269,0.529175 0.215373,1.035236 0.22976,1.276274 0.02469,0.413882 -0.08051,0.704969 -0.25481,0.704969 -0.149261,0 -0.275004,-0.239924 -0.389807,-0.743752 -0.127586,-0.559947 -0.285436,-1.045883 -0.441197,-1.358212 -0.236327,-0.473887 -0.605139,-0.817234 -0.993521,-0.924929 -0.255764,-0.07092 -0.367726,-0.06564 -0.499029,0.02358 -0.154127,0.104726 -0.248746,0.09429 -0.389335,-0.04299 -0.208161,-0.203228 -0.363655,-0.219181 -0.828244,-0.08499 -0.458505,0.132438 -0.559547,0.192072 -0.642235,0.379048 -0.163132,0.368873 -0.498743,0.206689 -0.604468,-0.292112 -0.06539,-0.308491 -0.0073,-1.127343 0.110453,-1.558447 0.01487,-0.05435 0.02706,-0.181233 0.02717,-0.281943 l 1.12e-4,-0.183109 -0.06482,0.121184 c -0.175967,0.328997 -0.399042,0.47059 -0.739963,0.469676 -0.161404,-4.27e-4 -0.226152,-0.01527 -0.352971,-0.08091 -0.338173,-0.175022 -0.37563,-0.228746 -0.493979,-0.708491 -0.05868,-0.237852 -0.0729,-0.350305 -0.06068,-0.480044 0.04699,-0.499476 0.105826,-1.042033 0.13391,-1.234979 0.01749,-0.120128 0.02422,-0.238112 0.01498,-0.262185 -0.0092,-0.02408 -0.0053,-0.10369 0.009,-0.176915 0.01418,-0.07324 0.04786,-0.35288 0.0749,-0.62144 0.0439,-0.436379 0.04542,-0.565475 0.01439,-1.214231 -0.03368,-0.704475 -0.03961,-0.750562 -0.20029,-1.558954 -0.09107,-0.458162 -0.174392,-0.90189 -0.185178,-0.98606 -0.02846,-0.221914 -0.194896,-0.835243 -0.249136,-0.918019 -0.05651,-0.08622 -0.113384,-0.07024 -0.161249,0.04531 -0.02852,0.06879 -0.0284,0.145131 5.35e-4,0.388593 0.03217,0.270725 0.03113,0.312514 -0.0102,0.392415 -0.02544,0.04919 -0.05863,0.08942 -0.07374,0.08942 -0.05513,0 -0.03043,0.283664 0.03235,0.371837 0.04994,0.07011 0.05918,0.121022 0.05582,0.306727 -0.0064,0.350528 -0.08174,0.961749 -0.217825,1.766435 -0.04246,0.250925 -0.06728,0.511515 -0.06729,0.705944 -2.9e-5,0.37743 -0.04739,0.901195 -0.0889,0.982403 -0.08547,0.16735 -0.296953,0.210639 -0.440197,0.09011 -0.114969,-0.09674 -0.206597,-0.414695 -0.24874,-0.863146 -0.02886,-0.307033 -0.09726,-0.824698 -0.128712,-0.97421 -0.05082,-0.241463 -0.278937,-1.181099 -0.310591,-1.279313 -0.03955,-0.122805 -0.08037,-0.685465 -0.05361,-0.739695 0.01151,-0.02329 0.0298,-0.09158 0.04066,-0.151746 0.01731,-0.09564 0.0097,-0.119838 -0.05981,-0.192561 -0.07919,-0.08275 -0.07959,-0.08506 -0.07959,-0.461308 0,-0.315766 -0.0078,-0.38595 -0.04722,-0.42548 -0.07315,-0.07331 -0.126417,-0.02968 -0.164466,0.134705 -0.01918,0.08274 -0.08966,0.379144 -0.156707,0.658703 -0.276119,1.151402 -0.36425,1.856342 -0.335378,2.6826 0.03101,0.888274 0.19526,1.904957 0.392315,2.428819 0.118141,0.31408 0.157305,0.558909 0.163956,1.025032 l 0.0064,0.442982 -0.09041,0.190847 c -0.110382,0.233025 -0.332929,0.474705 -0.525483,0.570659 -0.116102,0.05786 -0.184916,0.07151 -0.360314,0.07151 -0.44561,0 -0.707889,-0.184366 -0.820175,-0.576536 l -0.04919,-0.171768 -0.0018,0.12707 c -0.0024,0.176297 0.05391,0.387992 0.1931,0.729116 0.145295,0.356033 0.210675,0.647968 0.186647,0.833416 -0.02984,0.230554 -0.12464,0.439068 -0.265561,0.584313 -0.108453,0.111776 -0.16622,0.145247 -0.338615,0.196199 -0.248747,0.07353 -0.320138,0.05523 -0.444553,-0.113908 -0.09505,-0.129228 -0.34239,-0.332107 -0.506658,-0.415597 -0.124855,-0.06346 -0.305195,-0.106593 -0.394018,-0.09424 -0.08038,0.01118 -0.270313,0.126115 -0.35084,0.21232 -0.08604,0.0921 -0.226031,0.09734 -0.340462,0.01274 -0.185276,-0.136982 -0.693486,0.02448 -1.005325,0.31941 -0.206593,0.195386 -0.527109,0.619166 -0.616843,0.815581 -0.151834,0.332337 -0.190272,0.558326 -0.209793,1.233422 -0.01794,0.62085 -0.01894,0.628476 -0.08875,0.698205 -0.09061,0.0905 -0.213433,0.110694 -0.341402,0.05616 z M 5.1990518,33.140995 c -0.027241,-0.07101 -0.019224,-0.08933 0.014055,-0.03209 0.016494,0.02833 0.023987,0.05748 0.016726,0.06475 -0.00725,0.0072 -0.021141,-0.0073 -0.030841,-0.03266 z m 42.5377992,0.02933 c 0,-0.01553 0.01232,-0.04729 0.02738,-0.0706 0.01506,-0.02329 0.02738,-0.02965 0.02738,-0.01412 0,0.01552 -0.01232,0.04729 -0.02738,0.0706 -0.01506,0.02329 -0.02738,0.02965 -0.02738,0.01411 z M 5.1143357,32.943331 c -0.027239,-0.07101 -0.019224,-0.08933 0.014055,-0.03209 0.016494,0.02834 0.024045,0.05748 0.016727,0.06475 -0.00725,0.0072 -0.021141,-0.0073 -0.030842,-0.03266 z m 42.7072293,0.02934 c 0,-0.01553 0.01232,-0.04729 0.02737,-0.0706 0.01506,-0.02329 0.02738,-0.02965 0.02738,-0.01411 0,0.01552 -0.01232,0.04729 -0.02738,0.0706 -0.01506,0.02329 -0.02737,0.02965 -0.02737,0.01412 z M 5.0296254,32.745667 c -0.027239,-0.07101 -0.019224,-0.08933 0.014055,-0.03209 0.016494,0.02833 0.024045,0.05748 0.016726,0.06475 -0.00725,0.0072 -0.021141,-0.0073 -0.030841,-0.03266 z m 42.8766526,0.02933 c 0,-0.01553 0.01232,-0.04729 0.02738,-0.0706 0.01506,-0.02329 0.02738,-0.02965 0.02738,-0.01413 0,0.01553 -0.01232,0.04729 -0.02738,0.0706 -0.01506,0.02329 -0.02738,0.02965 -0.02738,0.01411 z M 4.786222,32.134527 C 3.7257492,29.433263 3.1196218,26.260047 3.1205109,23.41413 3.1216409,18.858954 4.2911271,14.55267 6.5257533,10.872243 6.8654076,10.312835 6.9939221,10.124214 7.456004,9.5069521 c 0.7094984,-0.947768 1.4098499,-1.7543 2.2454179,-2.585843 0.9791871,-0.974473 1.5589301,-1.427414 2.3022011,-1.798692 0.289666,-0.14469 0.463813,-0.200378 0.72032,-0.230347 0.114847,-0.01342 0.234221,-0.03404 0.265281,-0.04577 0.04791,-0.01818 0.04524,-0.009 -0.01777,0.0606 -0.04083,0.04512 -0.08233,0.127707 -0.09224,0.183552 -0.05628,0.317421 -0.615466,0.952663 -1.937255,2.200742 -1.1308246,1.067767 -1.9901754,2.05011 -2.9388206,3.3594219 -1.6914871,2.334582 -2.7823649,4.437058 -3.5822483,6.904169 -0.6036703,1.861924 -0.9159864,3.602279 -1.0362881,5.774656 -0.1033312,1.866035 0.090977,3.943694 0.5552952,5.937467 0.2166225,0.930181 0.5821864,2.111015 0.9285082,2.999252 0.078152,0.200452 0.1373254,0.369234 0.1314883,0.375069 -0.00581,0.0059 -0.1019946,-0.222169 -0.2136894,-0.506677 z m 43.189772,0.46398 c 0.399157,-0.979037 0.816234,-2.293501 1.06041,-3.341986 0.339033,-1.45581 0.504715,-2.718785 0.566388,-4.317548 0.03435,-0.890377 -0.0059,-1.922978 -0.115832,-2.973524 -0.376679,-3.598899 -1.664692,-7.098899 -3.769033,-10.241816 -0.670448,-1.001347 -1.46745,-2.0624349 -2.099478,-2.7951529 -0.36895,-0.427728 -1.051436,-1.132064 -1.586523,-1.63731 -1.321789,-1.248079 -1.88098,-1.883321 -1.937255,-2.200743 -0.0099,-0.05582 -0.05141,-0.138446 -0.09224,-0.183551 -0.06299,-0.06958 -0.06568,-0.07876 -0.01776,-0.0606 0.03107,0.0118 0.15044,0.03235 0.265284,0.04577 0.25651,0.02997 0.430654,0.08567 0.720317,0.230347 0.743277,0.371278 1.323014,0.824218 2.302206,1.798692 0.835565,0.831543 1.53592,1.638075 2.245418,2.585843 0.462079,0.6172619 0.590599,0.8058849 0.930251,1.3652899 1.694007,2.790032 2.770276,5.905843 3.192788,9.243142 0.183383,1.448473 0.251151,3.028254 0.184512,4.301191 -0.122139,2.333027 -0.524922,4.482285 -1.240958,6.621787 -0.197437,0.589937 -0.586081,1.609562 -0.613508,1.609562 -0.0083,0 -0.0061,-0.02224 0.0049,-0.04942 z M 1.1043251,28.4618 C 0.87752712,27.467457 0.70428471,26.315235 0.60149465,25.117489 c -0.054015,-0.629632 -0.0627498,-0.927643 -0.0638812,-2.183406 -0.001131,-1.482855 0.0106316,-1.748155 0.12809617,-2.837911 0.2044142,-1.89668 0.70222108,-4.185291 1.25607028,-5.774656 0.378179,-1.085261 1.2116032,-2.79976 1.9972105,-4.108614 2.1995687,-3.6645829 5.3119233,-6.7771639 8.9855256,-8.9861819 1.077107,-0.64768893 1.51799,-0.84769493 2.064136,-0.93637793 0.244926,-0.03979 0.3541,-0.04542 0.474902,-0.02463 0.148081,0.0255 0.428656,-0.0095 0.623609,-0.0778 0.03108,-0.01086 -0.01841,0.03142 -0.109877,0.094 -0.119924,0.08202 -0.207619,0.175484 -0.314238,0.334885 C 15.376546,1.0152341 14.948737,1.3496961 14.076387,1.8416191 9.3849777,4.4871391 5.5809204,8.6817521 3.4371207,13.573209 c -0.8936309,2.038969 -1.3394618,3.231854 -1.6833212,4.503949 -0.6210997,2.297707 -0.89320658,4.54137 -0.85618058,7.059475 0.018182,1.23487 0.087713,2.086928 0.27635818,3.385791 0.03026,0.20815 0.050471,0.382937 0.045011,0.388418 -0.00522,0.0055 -0.05709,-0.196594 -0.1146565,-0.449047 z M 51.74577,28.912656 c 0,-0.0095 0.02455,-0.186342 0.05457,-0.392979 0.18823,-1.296082 0.257805,-2.149039 0.275953,-3.383039 0.03704,-2.518104 -0.235082,-4.761768 -0.856178,-7.059476 C 50.876249,16.805069 50.430417,15.612187 49.536786,13.573216 47.392983,8.6817591 43.588926,4.4871471 38.897514,1.8416311 38.025165,1.3497071 37.597357,1.0152451 37.330856,0.61680817 c -0.106618,-0.159402 -0.194316,-0.252865 -0.31424,-0.334886 -0.09149,-0.06258 -0.140935,-0.104882 -0.109874,-0.094 0.194951,0.06831 0.475525,0.103313 0.623607,0.0778 0.120803,-0.02079 0.229974,-0.01516 0.474903,0.02463 0.546147,0.08868 0.987027,0.288689 2.064138,0.93637793 3.673598,2.209018 6.785952,5.321599 8.985524,8.9861829 0.785607,1.308852 1.619032,3.023352 1.997214,4.108614 0.553846,1.589364 1.051652,3.877975 1.25607,5.774655 0.11745,1.089756 0.129425,1.355056 0.128091,2.837913 -0.0011,1.255761 -0.0098,1.553772 -0.06388,2.183406 -0.06988,0.814361 -0.162268,1.54071 -0.289756,2.278186 -0.107627,0.622591 -0.336883,1.654929 -0.336883,1.516978 z"
       id="path3" /></g></svg>
