<?xml version="1.0" encoding="UTF-8" standalone="no"?>
<!-- Created with Inkscape (http://www.inkscape.org/) -->

<svg
   width="200"
   height="200"
   viewBox="0 0 52.916665 52.916666"
   version="1.1"
   id="svg1"
   xml:space="preserve"
   inkscape:export-filename="globe_black.svg"
   inkscape:export-xdpi="96"
   inkscape:export-ydpi="96"
   xmlns:inkscape="http://www.inkscape.org/namespaces/inkscape"
   xmlns:sodipodi="http://sodipodi.sourceforge.net/DTD/sodipodi-0.dtd"
   xmlns="http://www.w3.org/2000/svg"
   xmlns:svg="http://www.w3.org/2000/svg"><sodipodi:namedview
     id="namedview1"
     pagecolor="#ffffff"
     bordercolor="#000000"
     borderopacity="0.25"
     inkscape:showpageshadow="2"
     inkscape:pageopacity="0.0"
     inkscape:pagecheckerboard="0"
     inkscape:deskcolor="#d1d1d1"
     inkscape:document-units="mm" /><defs
     id="defs1" /><g
     inkscape:label="Layer 1"
     inkscape:groupmode="layer"
     id="layer1"><path
       style="fill:#ffffff"
       d="M 24.702909,52.917934 C 16.358707,52.352904 8.6600851,47.645416 4.2698761,40.423719 -0.4447429,32.668382 -0.7456549,22.941626 3.4794051,14.872361 l 0.565942,-1.08087 0.758635,-0.178848 c 0.41725,-0.09837 0.776754,-0.16073 0.798899,-0.138585 0.02215,0.02214 -0.30449,0.310307 -0.725854,0.640361 -0.421364,0.330053 -0.786813,0.633585 -0.812109,0.674515 -0.0253,0.04093 0.283488,0.285217 0.686188,0.542861 l 0.732181,0.468443 h 1.536741 c 1.319699,0 1.835521,-0.05304 3.6522099,-0.375533 1.163507,-0.206543 2.131549,-0.355711 2.151204,-0.331483 0.01965,0.02423 0.639971,1.035507 1.378481,2.247287 l 1.342745,2.203237 0.0025,2.080542 0.0025,2.080542 1.842818,2.498872 c 1.727012,2.341837 1.864662,2.50086 2.190416,2.530527 l 0.347598,0.03166 0.007,-0.847613 0.007,-0.847614 0.693919,1.440431 0.693919,1.440431 1.211436,0.27784 c 0.66629,0.152812 1.670118,0.384255 2.230729,0.514316 l 1.019292,0.236476 0.918608,0.972576 c 0.918099,0.972038 0.919074,0.972706 1.760064,1.205924 0.462802,0.128341 0.841457,0.262038 0.841457,0.297104 0,0.03507 -0.367181,0.830748 -0.815958,1.768181 -0.448777,0.937433 -0.815958,1.751806 -0.815958,1.809717 0,0.05791 0.419993,0.886119 0.933318,1.840461 0.874528,1.625869 0.970861,1.867 1.529343,3.828098 l 0.596025,2.092931 -0.607978,2.433227 -0.607978,2.433227 0.141837,1.555112 c 0.07801,0.855311 0.133846,1.562958 0.124081,1.572549 -0.03312,0.03253 -3.381958,0.238815 -3.638569,0.224133 -0.140243,-0.008 -0.792389,-0.05098 -1.449213,-0.09546 z m 8.118903,-0.969287 c 0.03881,-0.163491 0.138292,-0.536619 0.221071,-0.829173 l 0.150508,-0.531917 2.236301,-1.507978 2.236302,-1.507978 0.592237,-1.603256 0.592237,-1.603256 1.529921,-0.700626 1.529921,-0.700626 1.450838,-2.744858 c 0.797962,-1.509672 1.452003,-2.796263 1.453426,-2.859092 0.0014,-0.06283 -1.018636,-0.716025 -2.266797,-1.451547 L 40.278394,34.571028 39.12869,33.25297 37.978986,31.934911 37.343782,31.866531 c -0.349362,-0.03761 -1.305336,-0.245902 -2.124386,-0.462877 -0.819051,-0.216975 -2.017204,-0.473431 -2.662563,-0.569902 l -1.173379,-0.175401 -1.02029,0.284951 -1.02029,0.28495 -0.420625,-0.456324 c -0.231344,-0.250978 -0.512374,-0.572964 -0.624512,-0.715524 -0.137091,-0.174284 -0.416862,-0.31685 -0.853972,-0.43517 l -0.650085,-0.17597 0.0501,-0.957817 0.0501,-0.957817 h -0.769406 -0.769406 l -0.451797,0.502508 -0.451798,0.502507 -0.238747,-1.011353 c -0.131312,-0.556244 -0.217913,-1.032188 -0.192448,-1.057653 0.07919,-0.07919 1.841008,-0.873909 1.93737,-0.873909 0.05016,0 0.550752,0.20654 1.112427,0.458977 0.802686,0.360756 1.138786,0.458976 1.570571,0.458976 h 0.549345 l 0.177972,-0.739462 c 0.09788,-0.406704 0.224068,-0.828903 0.280409,-0.938221 0.05634,-0.109317 0.768655,-0.99624 1.582922,-1.97094 l 1.480484,-1.772181 2.151392,-1.076895 2.151392,-1.076895 1.17294,0.138349 c 0.645117,0.07609 1.218837,0.139535 1.274934,0.140985 0.0561,0.0014 0.143212,-0.287057 0.193589,-0.641127 l 0.09159,-0.643762 -1.572123,-1.600122 c -1.52644,-1.553631 -1.588263,-1.633461 -2.127784,-2.747563 L 35.492042,12.434408 H 34.59742 c -0.81499,0 -0.93877,-0.02716 -1.390587,-0.30517 -0.393735,-0.242267 -0.73132,-0.339484 -1.637782,-0.471641 -0.628,-0.09156 -1.158832,-0.149298 -1.179627,-0.128308 -0.02079,0.02099 -0.138802,0.611884 -0.262239,1.313098 -0.123437,0.701214 -0.238926,1.290818 -0.256642,1.310232 -0.01771,0.01941 -0.614169,-0.07107 -1.325453,-0.201068 -1.459014,-0.266663 -1.398566,-0.215533 -1.51624,-1.282516 l -0.06974,-0.632329 0.386964,-0.100988 c 0.21283,-0.05554 0.678846,-0.159872 1.03559,-0.23184 0.75327,-0.151962 0.681363,-0.02981 1.086016,-1.8448377 0.159459,-0.715238 0.339272,-1.298206 0.399584,-1.295485 0.06031,0.0027 0.522737,0.179581 1.027611,0.393021 l 0.917952,0.388072 v 0.649952 0.6499507 l 0.866956,0.37356 c 0.476825,0.205458 1.099291,0.429846 1.383257,0.49864 0.500555,0.121266 0.534774,0.114845 1.121942,-0.210512 0.333105,-0.184576 0.62285,-0.348562 0.64388,-0.364412 0.08023,-0.06047 -1.260901,-1.5248097 -2.395286,-2.6153427 l -1.183501,-1.13775 0.04711,-0.490245 c 0.02591,-0.269635 0.06522,-0.507229 0.08736,-0.527986 0.02214,-0.02076 0.5588,0.06276 1.192577,0.185596 l 1.152323,0.223335 1.051018,0.930989 1.051019,0.930989 0.407262,1.104044 c 0.223994,0.6072237 0.466135,1.3217627 0.538091,1.5878647 0.119333,0.441309 0.277693,0.615991 1.802256,1.988011 1.55791,1.40203 2.213608,1.847476 2.536886,1.723423 0.06058,-0.02325 0.350551,-0.434295 0.644387,-0.913443 l 0.534247,-0.871178 0.531787,-0.0603 c 0.292483,-0.03316 1.266149,-0.124826 2.163703,-0.203694 0.897554,-0.07887 1.7645,-0.193805 1.926547,-0.255418 0.162047,-0.06161 0.305496,-0.09926 0.318776,-0.08367 0.382149,0.448747 1.694408,2.849196 2.245808,4.108142 2.101477,4.798054 2.670029,10.498991 1.571558,15.758188 -1.323899,6.338488 -5.142091,12.113955 -10.49946,15.881678 -2.29756,1.615824 -5.163724,2.994248 -7.695741,3.70111 -0.446103,0.124538 -0.877525,0.251924 -0.958718,0.283081 -0.116881,0.04485 -0.132928,-0.0053 -0.07706,-0.240608 z M 6.8789821,9.8080463 c 2.164258,-2.366002 4.0530879,-3.931701 6.4647969,-5.35883 5.603072,-3.315621 12.382749,-4.38495899 18.826033,-2.969375 1.291039,0.28364 3.78567,1.090815 4.742756,1.534588 l 0.611968,0.283752 -0.382407,0.06428 c -0.213307,0.03585 -0.949172,-0.02257 -1.6641,-0.132114 l -1.281692,-0.196391 -0.834772,0.538748 c -0.459124,0.296311 -1.179004,0.892713 -1.599732,1.325337 l -0.764961,0.786589 -2.345879,0.207967 c -2.101119,0.186268 -2.425692,0.193095 -3.110839,0.06543 -0.420729,-0.0784 -0.833873,-0.144954 -0.918099,-0.147905 -0.08569,-0.003 -0.435089,0.438757 -0.793303,1.003005 l -0.640167,1.00837 -0.634622,0.05936 c -0.349043,0.03265 -1.209639,0.08869 -1.912436,0.124535 -1.235175,0.063 -1.318261,0.05385 -2.489975,-0.274109 l -1.212162,-0.339281 -1.089639,0.578561 -1.089639,0.578561 -2.285084,0.317706 c -1.772552,0.246446 -2.6782579,0.430525 -4.0380249,0.820702 -0.964117,0.276647 -1.787804,0.5029947 -1.830414,0.5029947 -0.04261,0 0.07997,-0.172116 0.272393,-0.3824797 z M 21.503162,5.5855623 c 0.902063,-0.23275 1.681241,-0.459761 1.731505,-0.504469 0.05157,-0.04587 -0.09302,-0.391698 -0.331809,-0.79364 l -0.423199,-0.71235 -0.753332,0.253286 -0.753331,0.253285 -0.623271,-0.253258 c -0.3428,-0.139291 -0.623272,-0.213324 -0.623272,-0.164516 0,0.04881 -0.365222,0.355402 -0.811605,0.68132 -0.446383,0.325917 -0.813565,0.622881 -0.815958,0.65992 -0.0049,0.07609 1.52542,0.991039 1.670362,0.998666 0.05159,0.0027 0.831847,-0.185495 1.73391,-0.418244 z m 7.184351,-0.657138 0.852477,-0.06989 1.085423,-0.815973 c 1.6409,-1.233556 1.581109,-1.063215 0.575554,-1.639717 l -0.862026,-0.494213 -0.996966,0.536066 c -1.337704,0.719281 -3.189853,1.833431 -3.189853,1.918837 0,0.03789 0.240963,0.218737 0.535472,0.401876 0.395816,0.246134 0.615277,0.319928 0.841457,0.28294 0.168291,-0.02752 0.689599,-0.08149 1.158462,-0.119928 z"
       id="path1" /></g></svg>
