<?xml version="1.0" encoding="UTF-8" standalone="no"?>
<!-- Created with Inkscape (http://www.inkscape.org/) -->

<svg
   width="200"
   height="200"
   viewBox="0 0 52.916665 52.916666"
   version="1.1"
   id="svg1"
   xml:space="preserve"
   inkscape:export-filename="edit-grey.svg"
   inkscape:export-xdpi="96"
   inkscape:export-ydpi="96"
   xmlns:inkscape="http://www.inkscape.org/namespaces/inkscape"
   xmlns:sodipodi="http://sodipodi.sourceforge.net/DTD/sodipodi-0.dtd"
   xmlns="http://www.w3.org/2000/svg"
   xmlns:svg="http://www.w3.org/2000/svg"><sodipodi:namedview
     id="namedview1"
     pagecolor="#ffffff"
     bordercolor="#000000"
     borderopacity="0.25"
     inkscape:showpageshadow="2"
     inkscape:pageopacity="0.0"
     inkscape:pagecheckerboard="0"
     inkscape:deskcolor="#d1d1d1"
     inkscape:document-units="mm" /><defs
     id="defs1" /><g
     inkscape:label="Layer 1"
     inkscape:groupmode="layer"
     id="layer1"><path
       style="fill:#000000;stroke-width:0.378782"
       d="M 13.409498,52.248233 C 11.555344,51.977453 9.970547,50.378909 9.6935279,48.500028 9.6186589,47.992214 7.0317518,16.768333 7.0317518,16.372453 V 16.079042 H 26.374102 45.716453 v 0.293411 c 0,0.39588 -2.586905,31.619761 -2.661778,32.127575 -0.283935,1.925785 -1.850552,3.47102 -3.805488,3.753542 -0.862423,0.124634 -24.983827,0.119653 -25.839689,-0.0054 z m 6.225763,-6.102821 c 0.489336,-0.298351 0.724996,-0.754888 0.72453,-1.403613 -2.17e-4,-0.303163 -0.336696,-5.956164 -0.747733,-12.562222 -0.822728,-13.222664 -0.727775,-12.380646 -1.451134,-12.868118 -0.43172,-0.290935 -1.130783,-0.30238 -1.584187,-0.02594 -0.489336,0.298352 -0.724996,0.754888 -0.724532,1.403613 2.18e-4,0.303164 0.336698,5.956164 0.747734,12.562223 0.822729,13.222663 0.727774,12.380645 1.451134,12.868116 0.431719,0.290937 1.130783,0.302382 1.584188,0.02594 z m 7.516457,0 c 0.179646,-0.109531 0.416246,-0.346131 0.525777,-0.525777 0.195926,-0.321342 0.199149,-0.530195 0.199149,-12.904167 0,-12.373973 -0.003,-12.582826 -0.199149,-12.904168 -0.590199,-0.968005 -2.016588,-0.968005 -2.606788,0 -0.195925,0.321342 -0.199148,0.530195 -0.199148,12.904168 0,12.373972 0.0032,12.582825 0.199148,12.904167 0.27849,0.456758 0.760646,0.724926 1.303395,0.724926 0.273618,0 0.579447,-0.07833 0.777616,-0.199149 z m 7.545413,-0.02594 c 0.723356,-0.487471 0.628404,0.354547 1.451133,-12.868116 0.411036,-6.606059 0.747515,-12.259059 0.747731,-12.562223 3.79e-4,-0.64675 -0.232973,-1.100902 -0.72453,-1.409567 -0.66266,-0.41611 -1.766519,-0.0962 -2.136449,0.619162 -0.120706,0.233427 -0.311393,2.839057 -0.899691,12.294034 -0.410584,6.598805 -0.746697,12.24587 -0.746913,12.549034 -3.78e-4,0.648725 0.235194,1.105262 0.724532,1.403613 0.453402,0.276445 1.152466,0.265 1.584187,-0.02594 z M 6.2644464,12.968822 C 5.6791909,12.852004 5.1393633,12.55226 4.7065959,12.103812 3.2923953,10.638371 3.7864665,8.1928453 5.6688858,7.3407215 6.1765549,7.1109119 6.2113138,7.1092065 11.000438,7.0790883 l 4.820553,-0.030314 0.06035,-1.1723171 c 0.03924,-0.7621439 0.128535,-1.3688971 0.255226,-1.7341625 0.484498,-1.3968652 1.467572,-2.3582212 2.921514,-2.856972 0.518859,-0.1779857 0.948224,-0.1890822 7.316019,-0.1890822 6.367794,0 6.797159,0.0111 7.316019,0.1890822 1.453943,0.4987508 2.437016,1.4601068 2.921512,2.856972 0.126691,0.3652654 0.215992,0.9720186 0.255227,1.7341625 l 0.06036,1.1723171 4.820552,0.030314 c 4.78537,0.030096 4.824211,0.031993 5.321653,0.2606039 2.377798,1.0927621 2.377798,4.3596068 0,5.4523698 l -0.501105,0.230287 -19.943668,0.01481 C 15.655633,13.04533 6.4935416,13.014553 6.2644464,12.968827 Z M 33.890185,6.0821548 C 33.889806,4.97543 33.742926,4.6050448 33.164882,4.2526085 32.847872,4.0593258 32.647893,4.0534608 26.374102,4.0534608 c -6.273795,0 -6.473772,0.0059 -6.790782,0.1991477 -0.578042,0.3524363 -0.724877,0.7228215 -0.725301,1.8295463 l -3.74e-4,0.9771393 h 7.516457 7.516459 z"
       id="path2" /></g></svg>
