<?xml version="1.0" encoding="UTF-8" standalone="no"?>
<!-- Created with Inkscape (http://www.inkscape.org/) -->

<svg
   width="200"
   height="200"
   viewBox="0 0 52.916665 52.916666"
   version="1.1"
   id="svg1"
   xml:space="preserve"
   xmlns:inkscape="http://www.inkscape.org/namespaces/inkscape"
   xmlns:sodipodi="http://sodipodi.sourceforge.net/DTD/sodipodi-0.dtd"
   xmlns="http://www.w3.org/2000/svg"
   xmlns:svg="http://www.w3.org/2000/svg"><sodipodi:namedview
     id="namedview1"
     pagecolor="#ffffff"
     bordercolor="#000000"
     borderopacity="0.25"
     inkscape:showpageshadow="2"
     inkscape:pageopacity="0.0"
     inkscape:pagecheckerboard="0"
     inkscape:deskcolor="#d1d1d1"
     inkscape:document-units="mm" /><defs
     id="defs1" /><g
     inkscape:label="Layer 1"
     inkscape:groupmode="layer"
     id="layer1"><path
       style="fill:#000000;stroke-width:0.382655"
       d="M 5.282556,52.497103 C 3.2101059,51.900536 1.3904237,50.039051 0.80367072,47.915328 0.63684344,47.311507 0.62532926,46.23379 0.62532926,31.22265 c 0,-13.143342 0.0247755,-16.147951 0.1369146,-16.604028 C 1.3343642,12.291773 3.2652224,10.34882 5.535666,9.8152965 6.1006409,9.682535 7.5159352,9.6604434 15.538544,9.6591594 c 8.395343,-0.00137 9.377717,0.015082 9.66881,0.1617037 1.364596,0.6873219 1.666029,2.3650719 0.613943,3.4171579 -0.662115,0.662115 0.03624,0.6162 -10.219324,0.671892 l -9.321934,0.05063 -0.4172123,0.276154 C 5.6333608,14.388581 5.3178068,14.73028 5.1615981,14.996027 L 4.8775798,15.479199 V 31.17203 c 0,15.126078 0.00684,15.705625 0.18902,16.047183 0.2655566,0.497837 0.5566034,0.795037 1.0259085,1.047605 l 0.4049762,0.217945 H 22.142389 37.787294 l 0.502598,-0.25864 c 0.304294,-0.156594 0.6228,-0.429646 0.807256,-0.692043 l 0.304658,-0.433395 0.05062,-9.331124 0.05062,-9.331121 0.245658,-0.428898 c 0.851127,-1.485971 2.982307,-1.437087 3.759445,0.08624 0.190366,0.373149 0.196478,0.677965 0.195028,9.729017 -0.0016,10.379578 0.0222,9.980589 -0.682944,11.419301 -0.276789,0.564731 -0.580559,0.967257 -1.185348,1.57071 -0.881813,0.879869 -1.594098,1.314018 -2.722173,1.659204 -0.692979,0.212047 -0.719451,0.212365 -16.958382,0.205164 C 7.0614449,52.672481 5.846269,52.659357 5.282556,52.497103 Z M 19.709837,34.289712 c -0.275898,-0.100849 -0.596053,-0.455953 -0.654435,-0.725854 -0.09018,-0.416903 1.51441,-8.263484 1.758245,-8.597996 0.180934,-0.248225 2.303708,-2.368588 13.500661,-13.48536 l 3.619489,-3.5935704 3.796777,3.7957664 3.796781,3.795766 -8.42871,8.43538 c -4.635789,4.63946 -8.556393,8.528406 -8.712455,8.642108 -0.209791,0.152844 -1.329025,0.415055 -4.294121,1.005996 -4.118127,0.820741 -4.124843,0.821855 -4.382232,0.727764 z M 44.007646,9.2967593 40.21176,5.4940785 41.987446,3.7539063 c 1.872403,-1.8349526 2.3917,-2.20526 3.590247,-2.5601831 0.39816,-0.1179057 0.921423,-0.1773479 1.51866,-0.1725191 4.053236,0.032774 6.523325,4.296238 4.595106,7.9313201 -0.207767,0.3916854 -0.8378,1.1003168 -2.092598,2.3536638 l -1.795332,1.793252 z"
       id="path1" /></g></svg>
