<?xml version="1.0" encoding="UTF-8" standalone="no"?>
<!-- Created with Inkscape (http://www.inkscape.org/) -->

<svg
   width="200"
   height="200"
   viewBox="0 0 52.916665 52.916666"
   version="1.1"
   id="svg1"
   xml:space="preserve"
   xmlns:inkscape="http://www.inkscape.org/namespaces/inkscape"
   xmlns:sodipodi="http://sodipodi.sourceforge.net/DTD/sodipodi-0.dtd"
   xmlns="http://www.w3.org/2000/svg"
   xmlns:svg="http://www.w3.org/2000/svg"><sodipodi:namedview
     id="namedview1"
     pagecolor="#ffffff"
     bordercolor="#000000"
     borderopacity="0.25"
     inkscape:showpageshadow="2"
     inkscape:pageopacity="0.0"
     inkscape:pagecheckerboard="0"
     inkscape:deskcolor="#d1d1d1"
     inkscape:document-units="mm" /><defs
     id="defs1" /><g
     inkscape:label="Layer 1"
     inkscape:groupmode="layer"
     id="layer1"><path
       style="fill:#000000;stroke-width:0.488282"
       d="M 7.9877848,52.624027 C 6.1464861,52.343782 4.533696,51.44291 3.0508804,49.866369 2.1394113,48.897292 1.8718151,48.508236 1.3968712,47.461636 0.37582259,45.211627 0.43216976,46.351555 0.43216976,27.945809 0.43216976,9.5400639 0.37582642,10.679993 1.3968712,8.4299794 1.8718151,7.3833874 2.1394113,6.9943271 3.0508804,6.0252481 4.296042,4.7013862 5.3690457,4.0051343 6.9005641,3.5272716 L 7.9071973,3.2131828 20.219008,3.2314709 c 11.478284,0.017056 12.337295,0.034015 12.688271,0.2507014 1.222013,0.7544235 1.267696,2.7238597 0.08128,3.5040556 l -0.457741,0.301013 -11.997733,0.069142 C 7.2459669,7.4329416 8.0635904,7.3768452 6.5948259,8.3126735 5.8062415,8.81512 5.1875593,9.6570618 4.7904918,10.768138 L 4.515174,11.538527 4.4806095,25.820176 4.4460449,40.101827 8.1238847,36.223714 c 2.0228143,-2.13296 3.8369913,-3.941415 4.0315043,-4.018789 0.528167,-0.210091 1.675722,-0.170523 2.13378,0.07357 0.221137,0.117846 1.108982,0.949986 1.972997,1.849213 1.592652,1.657568 1.954517,1.897543 2.606289,1.728407 0.231232,-0.06001 2.672052,-2.541755 7.380804,-7.504565 6.911325,-7.284223 7.046945,-7.417768 7.694881,-7.577021 0.518779,-0.127508 0.800346,-0.127551 1.319126,-2.1e-4 0.646829,0.158775 0.782644,0.291699 7.035316,6.885376 l 6.375758,6.723473 v -4.784759 c 0,-4.700072 0.005,-4.795112 0.282672,-5.369755 0.412361,-0.853408 0.837449,-1.131961 1.727421,-1.131961 0.889969,0 1.315056,0.278553 1.727423,1.131961 l 0.282667,0.584996 v 9.675686 c 0,10.989987 0.01115,10.840008 -0.96593,12.981571 -0.490447,1.074943 -0.740562,1.433286 -1.719858,2.464053 -0.929342,0.978189 -1.347791,1.310252 -2.213809,1.756797 -2.030402,1.046925 -0.496102,0.973258 -20.906543,1.003773 C 16.850022,52.71054 8.3447482,52.67835 7.9877667,52.62402 Z M 14.6294,22.722545 C 13.909461,22.480114 12.927767,21.361043 12.692994,20.515167 12.445069,19.621893 12.4426,19.27138 12.678319,18.43195 c 0.665282,-2.369023 3.536343,-3.240425 5.292007,-1.606191 0.843488,0.785148 1.112168,1.417484 1.112168,2.617488 0,0.763285 -0.0631,1.122362 -0.269682,1.534832 -0.354005,0.706806 -0.985418,1.360967 -1.608957,1.666923 -0.570123,0.279745 -1.85873,0.318558 -2.574467,0.07755 z M 45.847668,15.677256 C 45.372611,15.446234 45.092992,15.115428 44.847413,14.493895 44.691652,14.099667 44.654178,13.383684 44.654178,10.801746 V 7.598665 L 44.131211,8.0720366 C 43.560546,8.5885845 43.008466,8.7579268 42.294526,8.6354099 41.073787,8.4259232 40.396085,6.9418642 40.953704,5.6992212 c 0.10674,-0.2378756 1.195563,-1.4812481 2.419602,-2.7630498 3.319346,-3.47598835 3.262576,-3.47598835 6.581924,0 1.224036,1.2818017 2.312857,2.5251742 2.419602,2.7630498 0.55762,1.242643 -0.120083,2.726702 -1.340824,2.9361887 -0.713936,0.1225169 -1.266016,-0.046819 -1.836683,-0.5633733 L 48.674357,7.598665 v 3.237089 c 0,3.095083 -0.01239,3.262753 -0.282667,3.822086 -0.155468,0.321749 -0.433924,0.701466 -0.618797,0.843817 -0.424822,0.327119 -1.425888,0.418425 -1.925225,0.175599 z"
       id="path1" /></g></svg>
