<?xml version="1.0" encoding="UTF-8" standalone="no"?>
<!-- Created with Inkscape (http://www.inkscape.org/) -->

<svg
   width="200"
   height="200"
   viewBox="0 0 52.916665 52.916666"
   version="1.1"
   id="svg1"
   xml:space="preserve"
   inkscape:export-filename="vid_upload_w.svg"
   inkscape:export-xdpi="96"
   inkscape:export-ydpi="96"
   xmlns:inkscape="http://www.inkscape.org/namespaces/inkscape"
   xmlns:sodipodi="http://sodipodi.sourceforge.net/DTD/sodipodi-0.dtd"
   xmlns="http://www.w3.org/2000/svg"
   xmlns:svg="http://www.w3.org/2000/svg"><sodipodi:namedview
     id="namedview1"
     pagecolor="#ffffff"
     bordercolor="#000000"
     borderopacity="0.25"
     inkscape:showpageshadow="2"
     inkscape:pageopacity="0.0"
     inkscape:pagecheckerboard="0"
     inkscape:deskcolor="#d1d1d1"
     inkscape:document-units="mm" /><defs
     id="defs1" /><g
     inkscape:label="Layer 1"
     inkscape:groupmode="layer"
     id="layer1"><path
       style="fill:#000000;stroke-width:0.38506"
       d="M 10.116217,52.57526 C 7.7928058,52.329482 5.62445,51.289494 3.8812886,49.584872 2.0480259,47.792137 0.98336168,45.567482 0.71885494,42.976847 c -0.14468758,-1.417099 -0.14468758,-31.454969 0,-32.872065 C 0.98336168,7.5141466 2.0480259,5.2894914 3.8812886,3.4967574 5.680804,1.737024 7.7694621,0.7579993 10.275628,0.49951295 c 1.409942,-0.14542174 31.296161,-0.14542174 32.706101,0 2.577557,0.26584942 4.790979,1.33591575 6.574663,3.17848125 1.750848,1.8086473 2.724931,3.9079039 2.982111,6.4267878 0.14469,1.417096 0.14469,31.454966 0,32.872065 -0.25718,2.518884 -1.231263,4.618139 -2.982111,6.426789 -1.783684,1.842565 -3.997106,2.912629 -6.574663,3.17848 -1.249168,0.12884 -31.642692,0.122502 -32.865512,-0.0069 z m 8.825334,-8.823577 c 1.275133,-0.388822 2.267149,-1.369412 2.718107,-2.686797 0.184185,-0.538061 0.192744,-1.013243 0.192744,-10.70262 V 20.222703 l 0.53352,-0.106534 c 0.293435,-0.05859 3.483125,-0.613735 7.0882,-1.233651 3.605073,-0.619914 6.657575,-1.150639 6.783332,-1.179386 l 0.228651,-0.05227 v 7.509134 7.509132 h -2.118174 c -2.637487,0 -3.171377,0.141262 -4.218615,1.116216 -1.957376,1.822257 -1.618074,5.051025 0.681373,6.483871 0.764242,0.476221 1.323459,0.571005 3.368901,0.571005 1.649748,0 2.036043,-0.02981 2.510045,-0.193721 1.297645,-0.448725 2.185431,-1.34 2.630849,-2.641195 0.187712,-0.548368 0.194309,-1.05258 0.194309,-14.851057 0,-7.855878 -0.01709,-14.2834144 -0.03796,-14.2834144 -0.0593,0 -20.099537,3.4689394 -20.413653,3.5335764 l -0.279463,0.0575 v 11.635688 11.635684 h -2.118173 c -2.227568,0 -2.758412,0.08569 -3.537245,0.571005 -1.205752,0.751336 -1.966302,2.110735 -1.966302,3.514542 0,1.756559 1.092141,3.279776 2.786087,3.885786 0.694872,0.248589 4.203679,0.281791 4.973471,0.04706 z"
       id="path3" /></g></svg>
