<?xml version="1.0" encoding="UTF-8" standalone="no"?>
<!-- Created with Inkscape (http://www.inkscape.org/) -->

<svg
   width="200"
   height="200"
   viewBox="0 0 52.916665 52.916666"
   version="1.1"
   id="svg1"
   xml:space="preserve"
   inkscape:export-filename="star_black.svg"
   inkscape:export-xdpi="96"
   inkscape:export-ydpi="96"
   xmlns:inkscape="http://www.inkscape.org/namespaces/inkscape"
   xmlns:sodipodi="http://sodipodi.sourceforge.net/DTD/sodipodi-0.dtd"
   xmlns="http://www.w3.org/2000/svg"
   xmlns:svg="http://www.w3.org/2000/svg"><sodipodi:namedview
     id="namedview1"
     pagecolor="#ffffff"
     bordercolor="#000000"
     borderopacity="0.25"
     inkscape:showpageshadow="2"
     inkscape:pageopacity="0.0"
     inkscape:pagecheckerboard="0"
     inkscape:deskcolor="#d1d1d1"
     inkscape:document-units="mm" /><defs
     id="defs1" /><g
     inkscape:label="Layer 1"
     inkscape:groupmode="layer"
     id="layer1"><path
       style="fill:#ffcc00;stroke-width:0.380928"
       d="M 11.050684,52.036723 C 10.635156,51.783337 10.3219,51.370312 10.251071,50.98244 c -0.03493,-0.191237 0.485648,-3.641462 1.310048,-8.682673 0.752398,-4.600936 1.355552,-8.440684 1.340339,-8.532775 -0.0152,-0.09208 -2.664307,-2.871118 -5.8868665,-6.175618 -6.32344019,-6.48422 -6.17612008,-6.307472 -5.9804687,-7.17496 0.095273,-0.422456 0.6352586,-1.024398 1.0035178,-1.118673 0.1394301,-0.03569 3.8325173,-0.612149 8.2068784,-1.281017 l 7.953378,-1.216121 3.002344,-6.39999 c 4.609978,-9.82690816 4.23767,-9.0869239 4.703689,-9.3488415 0.520526,-0.29255213 1.133734,-0.29364931 1.650955,-0.00298 0.475661,0.2673354 0.101383,-0.47188195 4.40286,8.6959304 l 3.309855,7.0543551 7.7007,1.176564 c 4.235383,0.647109 7.896985,1.206345 8.136894,1.242746 0.902228,0.136893 1.490933,1.012793 1.302667,1.938161 -0.07889,0.387736 -0.604175,0.955742 -5.952051,6.43602 -3.226041,3.305914 -5.878032,6.085247 -5.893311,6.176295 -0.01528,0.09105 0.587788,3.929944 1.34015,8.53088 0.85984,5.258186 1.345614,8.487805 1.307845,8.695053 -0.07337,0.402626 -0.546552,0.961593 -0.958434,1.132199 -0.669877,0.277475 -0.844148,0.195107 -8.112164,-3.834125 -3.824872,-2.120417 -7.070387,-3.900791 -7.212248,-3.956374 -0.231806,-0.09082 -0.951578,0.282048 -7.105502,3.68094 -3.766159,2.080099 -7.038513,3.87827 -7.271893,3.995931 -0.524355,0.26436 -1.089896,0.273164 -1.499569,0.02335 z"
       id="path3" /></g></svg>
