<?xml version="1.0" encoding="UTF-8" standalone="no"?>
<!-- Created with Inkscape (http://www.inkscape.org/) -->

<svg
   width="200"
   height="200"
   viewBox="0 0 52.916665 52.916666"
   version="1.1"
   id="svg1"
   xml:space="preserve"
   inkscape:export-filename="img_upload_w.svg"
   inkscape:export-xdpi="96"
   inkscape:export-ydpi="96"
   xmlns:inkscape="http://www.inkscape.org/namespaces/inkscape"
   xmlns:sodipodi="http://sodipodi.sourceforge.net/DTD/sodipodi-0.dtd"
   xmlns="http://www.w3.org/2000/svg"
   xmlns:svg="http://www.w3.org/2000/svg"><sodipodi:namedview
     id="namedview1"
     pagecolor="#ffffff"
     bordercolor="#000000"
     borderopacity="0.25"
     inkscape:showpageshadow="2"
     inkscape:pageopacity="0.0"
     inkscape:pagecheckerboard="0"
     inkscape:deskcolor="#d1d1d1"
     inkscape:document-units="mm" /><defs
     id="defs1" /><g
     inkscape:label="Layer 1"
     inkscape:groupmode="layer"
     id="layer1"><path
       style="fill:#000000;stroke-width:0.397977"
       d="M 3.6035152,52.565939 C 2.0266854,52.047991 0.88555846,50.631659 0.65085929,48.901197 0.52942123,48.005792 0.52942123,5.2698635 0.65085929,4.3744574 0.8886951,2.6208604 2.0368981,1.2130468 3.6445281,0.70392304 4.0968344,0.56068058 6.9381755,0.54050425 26.658068,0.54050425 c 19.71989,0 22.561234,0.0201752 23.013539,0.16341879 1.607628,0.50912376 2.755832,1.91693736 2.993666,3.67053436 0.12144,0.8954061 0.12144,43.6313346 0,44.5267396 -0.237834,1.753596 -1.386038,3.161409 -2.993666,3.670533 -0.755684,0.239322 -45.3389448,0.233713 -46.0680918,-0.0058 z M 11.261166,43.981675 V 40.773878 H 8.5080773 5.7549886 v 3.207797 3.207792 h 2.7530887 2.7530887 z m 12.823795,0.02716 -0.02701,-3.18061 -3.798242,-0.02852 -3.798243,-0.02852 v 3.20912 3.209117 h 3.825273 3.825274 z m 12.76973,-0.02852 v -3.20912 l -3.798243,0.02853 -3.798243,0.02852 -0.02701,3.180611 -0.02701,3.180611 h 3.825274 3.825274 z m 10.706455,0.0013 V 40.773799 H 44.808058 42.05497 v 3.207796 3.207794 h 2.753088 2.753088 z M 24.059437,33.257909 c 0.927301,-0.525923 7.614167,-5.253773 7.845652,-5.547148 0.51949,-0.658389 0.51924,-1.487798 -7.71e-4,-2.146696 -0.256349,-0.324888 -7.569971,-5.473239 -8.053855,-5.669431 -0.693372,-0.281129 -1.362545,0.01379 -1.640399,0.722953 -0.206814,0.527854 -0.206814,11.512628 0,12.040483 0.313717,0.800699 1.065274,1.04448 1.849257,0.599839 z M 11.261166,9.2939815 V 6.0861859 H 8.5080773 5.7549886 v 3.2077956 3.2077965 h 2.7530887 2.7530887 z m 12.823795,-0.027186 0.02701,-3.1806116 h -3.825274 -3.825274 v 3.209119 3.2091201 l 3.798239,-0.0285 3.798243,-0.02851 z m 12.76973,0.027186 V 6.0861859 h -3.823732 -3.823737 v 3.1353035 c 0,1.7244156 0.0306,3.1679256 0.06797,3.2077966 0.03738,0.03987 1.758068,0.07249 3.823737,0.07249 h 3.755754 z m 10.706455,0 V 6.0861859 H 44.808058 42.05497 v 3.2077956 3.2077965 h 2.753088 2.753088 z"
       id="path2" /></g></svg>
