<?xml version="1.0" encoding="UTF-8" standalone="no"?>
<!-- Created with Inkscape (http://www.inkscape.org/) -->

<svg
   width="200"
   height="200"
   viewBox="0 0 52.916665 52.916666"
   version="1.1"
   id="svg1"
   xml:space="preserve"
   inkscape:export-filename="prev-grey.svg"
   inkscape:export-xdpi="96"
   inkscape:export-ydpi="96"
   xmlns:inkscape="http://www.inkscape.org/namespaces/inkscape"
   xmlns:sodipodi="http://sodipodi.sourceforge.net/DTD/sodipodi-0.dtd"
   xmlns="http://www.w3.org/2000/svg"
   xmlns:svg="http://www.w3.org/2000/svg"><sodipodi:namedview
     id="namedview1"
     pagecolor="#ffffff"
     bordercolor="#000000"
     borderopacity="0.25"
     inkscape:showpageshadow="2"
     inkscape:pageopacity="0.0"
     inkscape:pagecheckerboard="0"
     inkscape:deskcolor="#d1d1d1"
     inkscape:document-units="mm" /><defs
     id="defs1" /><g
     inkscape:label="Layer 1"
     inkscape:groupmode="layer"
     id="layer1"><path
       style="fill:#000000;stroke-width:0.472451"
       d="m 25.527768,52.469155 c -2.572491,-0.44346 -4.393748,-2.256895 -4.912842,-4.891746 -0.173646,-0.881411 -0.173646,-1.075202 0,-1.956614 0.597502,-3.032841 2.888895,-4.94266 5.909331,-4.925284 1.311693,0.0075 2.19464,0.270904 3.244448,0.967731 2.710358,1.79903 3.436137,5.520111 1.612537,8.267478 -1.242782,1.87233 -3.653345,2.917703 -5.853474,2.538435 z m 0,-20.000427 c -2.572491,-0.443458 -4.393748,-2.256895 -4.912842,-4.891744 -0.173646,-0.881413 -0.173646,-1.075202 0,-1.956615 0.597502,-3.03284 2.888895,-4.942661 5.909331,-4.925284 1.311693,0.0075 2.19464,0.270904 3.244448,0.967731 2.710358,1.79903 3.436137,5.52011 1.612537,8.267477 -1.242782,1.87233 -3.653345,2.917703 -5.853474,2.538435 z m 0,-20.000428 c -2.572491,-0.443457 -4.393748,-2.256893 -4.912842,-4.8917444 -0.173646,-0.8814113 -0.173646,-1.0752018 0,-1.9566126 0.597502,-3.0328419 2.888895,-4.94266162 5.909331,-4.92528486 1.311693,0.007523 2.19464,0.27090441 3.244448,0.96773036 2.710358,1.7990305 3.436137,5.5201099 1.612537,8.2674781 C 30.13846,11.802196 27.727897,12.847569 25.527768,12.4683 Z"
       id="path2" /></g></svg>
