<?xml version="1.0" encoding="UTF-8" standalone="no"?>
<!-- Created with Inkscape (http://www.inkscape.org/) -->

<svg
   width="200"
   height="200"
   viewBox="0 0 52.916665 52.916666"
   version="1.1"
   id="svg1"
   xml:space="preserve"
   inkscape:export-filename="next-black.svg"
   inkscape:export-xdpi="96"
   inkscape:export-ydpi="96"
   xmlns:inkscape="http://www.inkscape.org/namespaces/inkscape"
   xmlns:sodipodi="http://sodipodi.sourceforge.net/DTD/sodipodi-0.dtd"
   xmlns="http://www.w3.org/2000/svg"
   xmlns:svg="http://www.w3.org/2000/svg"><sodipodi:namedview
     id="namedview1"
     pagecolor="#ffffff"
     bordercolor="#000000"
     borderopacity="0.25"
     inkscape:showpageshadow="2"
     inkscape:pageopacity="0.0"
     inkscape:pagecheckerboard="0"
     inkscape:deskcolor="#d1d1d1"
     inkscape:document-units="mm" /><defs
     id="defs1" /><g
     inkscape:label="Layer 1"
     inkscape:groupmode="layer"
     id="layer1"><path
       style="fill:#ffffff;stroke-width:0.383179"
       d="m 15.503967,52.120626 c -2.112282,-0.461492 -3.527036,-2.505974 -3.171278,-4.582857 0.06134,-0.358199 0.213047,-0.868051 0.337093,-1.133004 0.17717,-0.378427 2.325891,-2.585165 10.019936,-10.290491 L 32.48412,26.305513 22.689718,16.496751 C 14.995673,8.791427 12.846952,6.5846859 12.669782,6.2062591 11.93679,4.640637 12.261514,2.8119416 13.490798,1.5826542 14.701394,0.37206105 16.384518,0.07228304 18.061335,0.76860594 18.535149,0.9653638 19.899387,2.2920655 30.0245,12.402598 c 9.146753,9.133581 11.488194,11.524159 11.728043,11.974162 0.64205,1.204608 0.641865,2.653245 -4.97e-4,3.85843 -0.240513,0.451249 -2.571409,2.830994 -11.728045,11.973833 -12.370961,12.352331 -11.654122,11.693931 -13.012332,11.951511 -0.633671,0.120173 -0.794488,0.115915 -1.507706,-0.03991 z"
       id="path1" /></g></svg>
