<?xml version="1.0" encoding="UTF-8" standalone="no"?>
<!-- Created with Inkscape (http://www.inkscape.org/) -->

<svg
   width="200"
   height="200"
   viewBox="0 0 52.916665 52.916666"
   version="1.1"
   id="svg1"
   xml:space="preserve"
   inkscape:export-filename="prev-white.svg"
   inkscape:export-xdpi="96"
   inkscape:export-ydpi="96"
   xmlns:inkscape="http://www.inkscape.org/namespaces/inkscape"
   xmlns:sodipodi="http://sodipodi.sourceforge.net/DTD/sodipodi-0.dtd"
   xmlns="http://www.w3.org/2000/svg"
   xmlns:svg="http://www.w3.org/2000/svg"><sodipodi:namedview
     id="namedview1"
     pagecolor="#ffffff"
     bordercolor="#000000"
     borderopacity="0.25"
     inkscape:showpageshadow="2"
     inkscape:pageopacity="0.0"
     inkscape:pagecheckerboard="0"
     inkscape:deskcolor="#d1d1d1"
     inkscape:document-units="mm" /><defs
     id="defs1" /><g
     inkscape:label="Layer 1"
     inkscape:groupmode="layer"
     id="layer1"><path
       style="fill:#808080;stroke-width:0.374245"
       d="m 34.651729,52.73238 c 2.014938,-0.461492 3.364493,-2.505974 3.02513,-4.582857 -0.05851,-0.358199 -0.203228,-0.868051 -0.321558,-1.133004 -0.169005,-0.378427 -2.218702,-2.585165 -9.558168,-10.290491 l -9.343029,-9.808761 9.343029,-9.808762 C 35.136599,9.4031807 37.186296,7.1964397 37.355301,6.8180127 38.054514,5.2523907 37.744754,3.4236957 36.572122,2.1944077 35.417316,0.98381474 33.811758,0.68403674 32.212217,1.3803597 31.760239,1.5771177 30.458872,2.9038187 20.800373,13.014352 12.075147,22.147933 9.8416114,24.538511 9.6128164,24.988514 c -0.612462,1.204608 -0.612285,2.653245 4.74e-4,3.85843 0.229429,0.451249 2.4529056,2.830994 11.1875586,11.973833 11.800847,12.352331 11.117044,11.693931 12.412661,11.951511 0.604468,0.120173 0.757874,0.115915 1.438223,-0.03991 z"
       id="path1-6" /></g></svg>
